Svasthi.ufo
<glyph name="exclam" format="1">
  <advance width="295" height="295"/>
  <unicode hex="0021"/>
  <outline>
    <contour>
      <point x="117" y="706" type="curve" smooth="yes"/>
      <point x="117" y="186" type="line" smooth="yes"/>
      <point x="117" y="158"/>
      <point x="126" y="140"/>
      <point x="147" y="140" type="curve" smooth="yes"/>
      <point x="169" y="140"/>
      <point x="177" y="159"/>
      <point x="177" y="186" type="curve" smooth="yes"/>
      <point x="177" y="706" type="line" smooth="yes"/>
      <point x="177" y="722"/>
      <point x="168" y="740"/>
      <point x="147" y="740" type="curve" smooth="yes"/>
      <point x="126" y="740"/>
      <point x="117" y="722"/>
    </contour>
    <component base="period" xOffset="39"/>
  </outline>
</glyph>
<glyph name="numbersign" format="1">
  <advance width="720" height="720"/>
  <unicode hex="0023"/>
  <outline>
    <contour>
      <point x="474" y="356" type="curve"/>
      <point x="294" y="356" type="line"/>
      <point x="275" y="297"/>
      <point x="258" y="243"/>
      <point x="240" y="185" type="curve"/>
      <point x="421" y="185" type="line"/>
      <point x="439" y="243"/>
      <point x="456" y="298"/>
    </contour>
    <contour>
      <point x="534" y="356" type="line"/>
      <point x="515" y="297"/>
      <point x="498" y="243"/>
      <point x="480" y="185" type="curve"/>
      <point x="556" y="185" type="line" smooth="yes"/>
      <point x="573" y="185"/>
      <point x="586" y="171"/>
      <point x="586" y="155" type="curve" smooth="yes"/>
      <point x="586" y="139"/>
      <point x="572" y="125"/>
      <point x="556" y="125" type="curve" smooth="yes"/>
      <point x="461" y="125" type="line"/>
      <point x="449" y="87"/>
      <point x="437" y="47"/>
      <point x="423" y="3" type="curve" smooth="yes"/>
      <point x="418" y="-13"/>
      <point x="406" y="-20"/>
      <point x="394" y="-20" type="curve" smooth="yes"/>
      <point x="380" y="-20"/>
      <point x="367" y="-9"/>
      <point x="367" y="8" type="curve" smooth="yes"/>
      <point x="367" y="12"/>
      <point x="368" y="16"/>
      <point x="369" y="20" type="curve" smooth="yes"/>
      <point x="381" y="58"/>
      <point x="392" y="92"/>
      <point x="402" y="125" type="curve"/>
      <point x="221" y="125" type="line"/>
      <point x="209" y="87"/>
      <point x="197" y="47"/>
      <point x="183" y="3" type="curve" smooth="yes"/>
      <point x="178" y="-13"/>
      <point x="166" y="-20"/>
      <point x="154" y="-20" type="curve" smooth="yes"/>
      <point x="140" y="-20"/>
      <point x="127" y="-9"/>
      <point x="127" y="8" type="curve" smooth="yes"/>
      <point x="127" y="12"/>
      <point x="128" y="16"/>
      <point x="129" y="20" type="curve" smooth="yes"/>
      <point x="141" y="58"/>
      <point x="152" y="92"/>
      <point x="162" y="125" type="curve"/>
      <point x="94" y="125" type="line" smooth="yes"/>
      <point x="78" y="125"/>
      <point x="64" y="139"/>
      <point x="64" y="155" type="curve" smooth="yes"/>
      <point x="64" y="171"/>
      <point x="77" y="185"/>
      <point x="94" y="185" type="curve" smooth="yes"/>
      <point x="181" y="185" type="line"/>
      <point x="199" y="243"/>
      <point x="216" y="298"/>
      <point x="234" y="356" type="curve"/>
      <point x="158" y="356" type="line" smooth="yes"/>
      <point x="142" y="356"/>
      <point x="128" y="370"/>
      <point x="128" y="386" type="curve" smooth="yes"/>
      <point x="128" y="402"/>
      <point x="141" y="416"/>
      <point x="158" y="416" type="curve" smooth="yes"/>
      <point x="253" y="416" type="line"/>
      <point x="265" y="453"/>
      <point x="277" y="492"/>
      <point x="291" y="536" type="curve" smooth="yes"/>
      <point x="296" y="552"/>
      <point x="308" y="559"/>
      <point x="320" y="559" type="curve" smooth="yes"/>
      <point x="334" y="559"/>
      <point x="347" y="549"/>
      <point x="347" y="532" type="curve" smooth="yes"/>
      <point x="347" y="528"/>
      <point x="347" y="524"/>
      <point x="345" y="519" type="curve" smooth="yes"/>
      <point x="334" y="482"/>
      <point x="323" y="448"/>
      <point x="313" y="416" type="curve"/>
      <point x="493" y="416" type="line"/>
      <point x="505" y="453"/>
      <point x="517" y="492"/>
      <point x="531" y="536" type="curve" smooth="yes"/>
      <point x="536" y="552"/>
      <point x="548" y="559"/>
      <point x="560" y="559" type="curve" smooth="yes"/>
      <point x="574" y="559"/>
      <point x="587" y="549"/>
      <point x="587" y="532" type="curve" smooth="yes"/>
      <point x="587" y="528"/>
      <point x="587" y="524"/>
      <point x="585" y="519" type="curve" smooth="yes"/>
      <point x="574" y="482"/>
      <point x="563" y="448"/>
      <point x="553" y="416" type="curve"/>
      <point x="620" y="416" type="line" smooth="yes"/>
      <point x="637" y="416"/>
      <point x="650" y="402"/>
      <point x="650" y="386" type="curve" smooth="yes"/>
      <point x="650" y="370"/>
      <point x="636" y="356"/>
      <point x="620" y="356" type="curve" smooth="yes"/>
    </contour>
  </outline>
</glyph>
<glyph name="quotesingle" format="1">
  <advance width="117" height="117"/>
  <unicode hex="0027"/>
  <outline>
    <contour>
      <point x="90" y="810" type="curve" smooth="yes"/>
      <point x="90" y="779.069"/>
      <point x="75" y="757.277"/>
      <point x="58" y="739" type="curve"/>
      <point x="42" y="757.98"/>
      <point x="26" y="779.069"/>
      <point x="26" y="810" type="curve" smooth="yes"/>
      <point x="26" y="828"/>
      <point x="40" y="844"/>
      <point x="58" y="844" type="curve" smooth="yes"/>
      <point x="76" y="844"/>
      <point x="90" y="828"/>
    </contour>
  </outline>
</glyph>
<glyph name="parenleft" format="1">
  <advance width="396" height="396"/>
  <unicode hex="0028"/>
  <outline>
    <contour>
      <point x="71.3604" y="274" type="curve" smooth="yes"/>
      <point x="71" y="518"/>
      <point x="124" y="700"/>
      <point x="277" y="864" type="curve" smooth="yes"/>
      <point x="288.021" y="875.812"/>
      <point x="309" y="878"/>
      <point x="321" y="867" type="curve" smooth="yes"/>
      <point x="332" y="857"/>
      <point x="331.066" y="833.47"/>
      <point x="320.68" y="822.6" type="curve" smooth="yes"/>
      <point x="172" y="667"/>
      <point x="132" y="500"/>
      <point x="131.881" y="274" type="curve" smooth="yes"/>
      <point x="132" y="48"/>
      <point x="172" y="-119"/>
      <point x="320.68" y="-274.6" type="curve" smooth="yes"/>
      <point x="331.066" y="-285.47"/>
      <point x="332" y="-309"/>
      <point x="321" y="-319" type="curve" smooth="yes"/>
      <point x="309" y="-330"/>
      <point x="288.021" y="-327.812"/>
      <point x="277" y="-316" type="curve" smooth="yes"/>
      <point x="124" y="-152"/>
      <point x="71" y="30"/>
    </contour>
  </outline>
</glyph>
<glyph name="parenright" format="1">
  <advance width="402" height="402"/>
  <unicode hex="0029"/>
  <outline>
    <contour>
      <point x="312.64" y="274" type="curve" smooth="yes"/>
      <point x="313" y="518"/>
      <point x="260" y="700"/>
      <point x="107" y="864" type="curve" smooth="yes"/>
      <point x="95.9795" y="875.812"/>
      <point x="75" y="878"/>
      <point x="63" y="867" type="curve" smooth="yes"/>
      <point x="52" y="857"/>
      <point x="52.9336" y="833.47"/>
      <point x="63.3203" y="822.6" type="curve" smooth="yes"/>
      <point x="212" y="667"/>
      <point x="252" y="500"/>
      <point x="252.119" y="274" type="curve" smooth="yes"/>
      <point x="252" y="48"/>
      <point x="212" y="-119"/>
      <point x="63.3203" y="-274.6" type="curve" smooth="yes"/>
      <point x="52.9336" y="-285.47"/>
      <point x="52" y="-309"/>
      <point x="63" y="-319" type="curve" smooth="yes"/>
      <point x="75" y="-330"/>
      <point x="95.9795" y="-327.812"/>
      <point x="107" y="-316" type="curve" smooth="yes"/>
      <point x="260" y="-152"/>
      <point x="313" y="30"/>
    </contour>
  </outline>
</glyph>
<glyph name="asterisk" format="1">
  <advance width="587" height="587"/>
  <unicode hex="002A"/>
  <outline>
    <contour>
      <point x="261" y="320" type="line"/>
      <point x="261" y="499" type="line" smooth="yes"/>
      <point x="261" y="516"/>
      <point x="275" y="529"/>
      <point x="291" y="529" type="curve" smooth="yes"/>
      <point x="307" y="529"/>
      <point x="321" y="515"/>
      <point x="321" y="499" type="curve" smooth="yes"/>
      <point x="321" y="320" type="line"/>
      <point x="476" y="409" type="line" smooth="yes"/>
      <point x="491" y="417"/>
      <point x="509" y="412"/>
      <point x="517" y="398" type="curve" smooth="yes"/>
      <point x="525" y="384"/>
      <point x="520" y="366"/>
      <point x="506" y="358" type="curve" smooth="yes"/>
      <point x="351" y="268" type="line"/>
      <point x="506" y="178" type="line" smooth="yes"/>
      <point x="520" y="170"/>
      <point x="525" y="152"/>
      <point x="517" y="138" type="curve" smooth="yes"/>
      <point x="509" y="124"/>
      <point x="491" y="119"/>
      <point x="476" y="127" type="curve" smooth="yes"/>
      <point x="321" y="216" type="line"/>
      <point x="321" y="37" type="line" smooth="yes"/>
      <point x="321" y="21"/>
      <point x="307" y="7"/>
      <point x="291" y="7" type="curve" smooth="yes"/>
      <point x="275" y="7"/>
      <point x="261" y="20"/>
      <point x="261" y="37" type="curve" smooth="yes"/>
      <point x="261" y="216" type="line"/>
      <point x="106" y="127" type="line" smooth="yes"/>
      <point x="92" y="119"/>
      <point x="73" y="124"/>
      <point x="65" y="138" type="curve" smooth="yes"/>
      <point x="57" y="152"/>
      <point x="61" y="170"/>
      <point x="76" y="178" type="curve" smooth="yes"/>
      <point x="231" y="268" type="line"/>
      <point x="76" y="358" type="line" smooth="yes"/>
      <point x="61" y="366"/>
      <point x="57" y="384"/>
      <point x="65" y="398" type="curve" smooth="yes"/>
      <point x="73" y="412"/>
      <point x="92" y="417"/>
      <point x="106" y="409" type="curve" smooth="yes"/>
    </contour>
  </outline>
</glyph>
<glyph name="plus" format="1">
  <advance width="607" height="607"/>
  <unicode hex="002B"/>
  <outline>
    <contour>
      <point x="329" y="308" type="line"/>
      <point x="440" y="308" type="line" smooth="yes"/>
      <point x="457" y="308"/>
      <point x="470" y="294"/>
      <point x="470" y="278" type="curve" smooth="yes"/>
      <point x="470" y="262"/>
      <point x="456" y="248"/>
      <point x="440" y="248" type="curve" smooth="yes"/>
      <point x="329" y="248" type="line"/>
      <point x="329" y="127" type="line" smooth="yes"/>
      <point x="329" y="111"/>
      <point x="315" y="97"/>
      <point x="299" y="97" type="curve" smooth="yes"/>
      <point x="283" y="97"/>
      <point x="269" y="110"/>
      <point x="269" y="127" type="curve" smooth="yes"/>
      <point x="269" y="248" type="line"/>
      <point x="158" y="248" type="line" smooth="yes"/>
      <point x="142" y="248"/>
      <point x="128" y="262"/>
      <point x="128" y="278" type="curve" smooth="yes"/>
      <point x="128" y="294"/>
      <point x="141" y="308"/>
      <point x="158" y="308" type="curve" smooth="yes"/>
      <point x="269" y="308" type="line"/>
      <point x="269" y="429" type="line" smooth="yes"/>
      <point x="269" y="446"/>
      <point x="283" y="459"/>
      <point x="299" y="459" type="curve" smooth="yes"/>
      <point x="315" y="459"/>
      <point x="329" y="445"/>
      <point x="329" y="429" type="curve" smooth="yes"/>
    </contour>
  </outline>
</glyph>
<glyph name="comma" format="1">
  <advance width="213" height="213"/>
  <unicode hex="002C"/>
  <outline>
    <contour>
      <point x="138.524" y="23.1038" type="curve" smooth="yes"/>
      <point x="138.524" y="-7.9481"/>
      <point x="116" y="-61"/>
      <point x="81" y="-61" type="curve" smooth="yes"/>
      <point x="78" y="-61"/>
      <point x="77.4804" y="-60.2338"/>
      <point x="77.4804" y="-58.3572" type="curve" smooth="yes"/>
      <point x="77.4804" y="-52.671"/>
      <point x="87.2384" y="-38.6794"/>
      <point x="87.2384" y="-18.2619" type="curve" smooth="yes"/>
      <point x="87.2384" y="-8.2986"/>
      <point x="84.9148" y="3.19481"/>
      <point x="78" y="16" type="curve" smooth="yes"/>
      <point x="76" y="20"/>
      <point x="74" y="27"/>
      <point x="74" y="32" type="curve" smooth="yes"/>
      <point x="74" y="50"/>
      <point x="88" y="64"/>
      <point x="106" y="64" type="curve" smooth="yes"/>
      <point x="127.209" y="64"/>
      <point x="138.524" y="46.1292"/>
    </contour>
  </outline>
</glyph>
<glyph name="period" format="1">
  <advance width="216" height="216"/>
  <unicode hex="002E"/>
  <outline>
    <contour>
      <point x="74" y="33" type="curve" smooth="yes"/>
      <point x="74" y="52"/>
      <point x="89" y="68"/>
      <point x="108" y="68" type="curve" smooth="yes"/>
      <point x="127" y="68"/>
      <point x="142" y="52"/>
      <point x="142" y="33" type="curve" smooth="yes"/>
      <point x="142" y="14"/>
      <point x="127" y="-1"/>
      <point x="108" y="-1" type="curve" smooth="yes"/>
      <point x="89" y="-1"/>
      <point x="74" y="14"/>
    </contour>
  </outline>
</glyph>
<glyph name="slash" format="1">
  <advance width="328" height="328"/>
  <unicode hex="002F"/>
  <outline>
    <contour>
      <point x="59" y="20" type="curve" smooth="yes"/>
      <point x="122" y="220"/>
      <point x="157" y="333"/>
      <point x="221" y="536" type="curve" smooth="yes"/>
      <point x="233.315" y="574.997"/>
      <point x="289.097" y="561.29"/>
      <point x="275" y="519" type="curve" smooth="yes"/>
      <point x="212" y="316"/>
      <point x="176.229" y="205.243"/>
      <point x="113" y="3" type="curve" smooth="yes"/>
      <point x="100.807" y="-36"/>
      <point x="45.8393" y="-22.1141"/>
    </contour>
  </outline>
</glyph>
<glyph name="zero" format="1">
  <advance width="449" height="449"/>
  <unicode hex="0030"/>
  <outline>
    <contour>
      <point x="218" y="388" type="curve" smooth="yes"/>
      <point x="129" y="388"/>
      <point x="90.9502" y="311.995"/>
      <point x="92" y="206" type="curve" smooth="yes"/>
      <point x="93.0791" y="97"/>
      <point x="131" y="44"/>
      <point x="218" y="44" type="curve" smooth="yes"/>
      <point x="300.006" y="44"/>
      <point x="337.652" y="98"/>
      <point x="340" y="206" type="curve" smooth="yes"/>
      <point x="342.239" y="309"/>
      <point x="307.006" y="388"/>
    </contour>
    <contour>
      <point x="218" y="436" type="curve" smooth="yes"/>
      <point x="328" y="436"/>
      <point x="390.771" y="348"/>
      <point x="388" y="206" type="curve" smooth="yes"/>
      <point x="385.697" y="88"/>
      <point x="343.274" y="-4"/>
      <point x="218" y="-4" type="curve" smooth="yes"/>
      <point x="97" y="-4"/>
      <point x="43.1045" y="87"/>
      <point x="44" y="206" type="curve" smooth="yes"/>
      <point x="45.0684" y="348"/>
      <point x="104" y="436"/>
    </contour>
  </outline>
</glyph>
<glyph name="one" format="1">
  <advance width="369" height="369"/>
  <unicode hex="0031"/>
  <outline>
    <contour>
      <point x="183" y="428" type="curve" smooth="yes"/>
      <point x="158" y="411"/>
      <point x="148" y="405"/>
      <point x="117" y="383" type="curve" smooth="yes"/>
      <point x="103" y="373.064"/>
      <point x="100.613" y="356.074"/>
      <point x="109" y="345" type="curve" smooth="yes"/>
      <point x="115.815" y="336"/>
      <point x="129" y="334.937"/>
      <point x="140" y="342" type="curve" smooth="yes"/>
      <point x="167.777" y="359.838"/>
      <point x="172.223" y="363.405"/>
      <point x="190" y="375" type="curve"/>
      <point x="190" y="0" type="line"/>
      <point x="212.994" y="0"/>
      <point x="211.4" y="0"/>
      <point x="238" y="0" type="curve"/>
      <point x="238" y="392" type="line" smooth="yes"/>
      <point x="238" y="436"/>
      <point x="216" y="450.439"/>
    </contour>
  </outline>
</glyph>
<glyph name="two" format="1">
  <advance width="505" height="505"/>
  <unicode hex="0032"/>
  <outline>
    <contour>
      <point x="414" y="0" type="curve" smooth="yes"/>
      <point x="316" y="0"/>
      <point x="199.019" y="0"/>
      <point x="100" y="0" type="curve" smooth="yes"/>
      <point x="63.2002" y="0"/>
      <point x="53.8701" y="31.9834"/>
      <point x="72" y="56" type="curve" smooth="yes"/>
      <point x="149" y="158"/>
      <point x="307.876" y="196.341"/>
      <point x="322" y="280" type="curve" smooth="yes"/>
      <point x="335.355" y="359.105"/>
      <point x="270" y="398"/>
      <point x="211" y="398" type="curve" smooth="yes"/>
      <point x="164.31" y="398"/>
      <point x="125" y="373"/>
      <point x="100" y="341" type="curve" smooth="yes"/>
      <point x="88.9014" y="326.794"/>
      <point x="75.6416" y="317.776"/>
      <point x="63" y="325" type="curve" smooth="yes"/>
      <point x="49" y="333"/>
      <point x="45.2617" y="349.383"/>
      <point x="58" y="368" type="curve" smooth="yes"/>
      <point x="84" y="406"/>
      <point x="137.226" y="446"/>
      <point x="209" y="446" type="curve" smooth="yes"/>
      <point x="308" y="446"/>
      <point x="380" y="380"/>
      <point x="370" y="276" type="curve" smooth="yes"/>
      <point x="358.986" y="161.459"/>
      <point x="167" y="113"/>
      <point x="133" y="48" type="curve"/>
      <point x="238.726" y="46.3477"/>
      <point x="308" y="48"/>
      <point x="414" y="48" type="curve" smooth="yes"/>
      <point x="429" y="48"/>
      <point x="438.927" y="39"/>
      <point x="438.927" y="24" type="curve" smooth="yes"/>
      <point x="438.927" y="8"/>
      <point x="428" y="0"/>
    </contour>
  </outline>
</glyph>
<glyph name="three" format="1">
  <advance width="453" height="453"/>
  <unicode hex="0033"/>
  <outline>
    <contour>
      <point x="163" y="104" type="curve" smooth="yes"/>
      <point x="168.986" y="103.601"/>
      <point x="213" y="102"/>
      <point x="225" y="102" type="curve" smooth="yes"/>
      <point x="310" y="102"/>
      <point x="351.125" y="32.8535"/>
      <point x="346" y="-43" type="curve" smooth="yes"/>
      <point x="341" y="-117"/>
      <point x="289" y="-167"/>
      <point x="217" y="-167" type="curve" smooth="yes"/>
      <point x="154.968" y="-167"/>
      <point x="114" y="-135"/>
      <point x="88" y="-108" type="curve" smooth="yes"/>
      <point x="72.5928" y="-92"/>
      <point x="59" y="-91"/>
      <point x="49" y="-100" type="curve" smooth="yes"/>
      <point x="39.2666" y="-108.76"/>
      <point x="36.7109" y="-126"/>
      <point x="48" y="-139" type="curve" smooth="yes"/>
      <point x="81" y="-177"/>
      <point x="141" y="-216"/>
      <point x="217" y="-216" type="curve" smooth="yes"/>
      <point x="330.159" y="-216"/>
      <point x="393.282" y="-137.182"/>
      <point x="397" y="-43" type="curve" smooth="yes"/>
      <point x="399.526" y="21"/>
      <point x="379" y="93"/>
      <point x="325" y="128" type="curve"/>
      <point x="355" y="149"/>
      <point x="376.388" y="201.718"/>
      <point x="374" y="257" type="curve" smooth="yes"/>
      <point x="370.255" y="343.707"/>
      <point x="304.678" y="393"/>
      <point x="224" y="393" type="curve" smooth="yes"/>
      <point x="136" y="393"/>
      <point x="78" y="346"/>
      <point x="66" y="286" type="curve" smooth="yes"/>
      <point x="61.7285" y="264.644"/>
      <point x="70.9824" y="254.73"/>
      <point x="86" y="252" type="curve" smooth="yes"/>
      <point x="97" y="250"/>
      <point x="107.631" y="259.246"/>
      <point x="111" y="269" type="curve" smooth="yes"/>
      <point x="130" y="324"/>
      <point x="174.72" y="343"/>
      <point x="224" y="343" type="curve" smooth="yes"/>
      <point x="276.362" y="343"/>
      <point x="320.233" y="311.477"/>
      <point x="325" y="260" type="curve" smooth="yes"/>
      <point x="330" y="206"/>
      <point x="296.897" y="154"/>
      <point x="228" y="154" type="curve" smooth="yes"/>
      <point x="213" y="154"/>
      <point x="168.982" y="152.46"/>
      <point x="163" y="152" type="curve" smooth="yes"/>
      <point x="150" y="151"/>
      <point x="135.958" y="139.324"/>
      <point x="136.222" y="127" type="curve" smooth="yes"/>
      <point x="136.471" y="115.343"/>
      <point x="148" y="105"/>
    </contour>
  </outline>
</glyph>
<glyph name="four" format="1">
  <advance width="470" height="470"/>
  <unicode hex="0034"/>
  <outline>
    <contour>
      <point x="343" y="341" type="curve" smooth="yes"/>
      <point x="344" y="225"/>
      <point x="343" y="48"/>
      <point x="343" y="48" type="curve"/>
      <point x="343" y="48"/>
      <point x="401" y="48"/>
      <point x="417" y="48" type="curve" smooth="yes"/>
      <point x="430" y="48"/>
      <point x="436.786" y="34.6396"/>
      <point x="436.786" y="22" type="curve" smooth="yes"/>
      <point x="436.786" y="11"/>
      <point x="429" y="0"/>
      <point x="417" y="0" type="curve" smooth="yes"/>
      <point x="403" y="0"/>
      <point x="343" y="0"/>
      <point x="343" y="0" type="curve"/>
      <point x="343" y="0"/>
      <point x="343" y="-109"/>
      <point x="343" y="-193" type="curve" smooth="yes"/>
      <point x="343" y="-208.476"/>
      <point x="330.324" y="-217.082"/>
      <point x="318" y="-216.818" type="curve" smooth="yes"/>
      <point x="306.343" y="-216.569"/>
      <point x="295" y="-207.964"/>
      <point x="295" y="-193" type="curve" smooth="yes"/>
      <point x="295" y="-109"/>
      <point x="295" y="0"/>
      <point x="295" y="0" type="curve"/>
      <point x="207.916" y="0"/>
      <point x="148" y="0"/>
      <point x="87" y="0" type="curve" smooth="yes"/>
      <point x="34" y="0"/>
      <point x="23.3652" y="39"/>
      <point x="44" y="68" type="curve" smooth="yes"/>
      <point x="81" y="120"/>
      <point x="161" y="235"/>
      <point x="254" y="362" type="curve" smooth="yes"/>
      <point x="289.882" y="411"/>
      <point x="342.448" y="405"/>
    </contour>
    <contour>
      <point x="295" y="48" type="line"/>
      <point x="295" y="333" type="line"/>
      <point x="89" y="48" type="line"/>
    </contour>
  </outline>
</glyph>
<glyph name="five" format="1">
  <advance width="457" height="457"/>
  <unicode hex="0035"/>
  <outline>
    <contour>
      <point x="147" y="103.715" type="curve" smooth="yes"/>
      <point x="296.058" y="132.895"/>
      <point x="353" y="64"/>
      <point x="350" y="-40" type="curve" smooth="yes"/>
      <point x="347.944" y="-111.279"/>
      <point x="291" y="-167"/>
      <point x="218" y="-167" type="curve" smooth="yes"/>
      <point x="172" y="-167"/>
      <point x="118.999" y="-152.001"/>
      <point x="83" y="-108" type="curve" smooth="yes"/>
      <point x="71.5459" y="-94"/>
      <point x="56" y="-90"/>
      <point x="43" y="-101" type="curve" smooth="yes"/>
      <point x="33.0469" y="-109.422"/>
      <point x="33.1982" y="-127.332"/>
      <point x="41" y="-136" type="curve" smooth="yes"/>
      <point x="95" y="-196"/>
      <point x="146.938" y="-216"/>
      <point x="218" y="-216" type="curve" smooth="yes"/>
      <point x="309" y="-216"/>
      <point x="397.994" y="-139.201"/>
      <point x="401" y="-40" type="curve" smooth="yes"/>
      <point x="407" y="158"/>
      <point x="235" y="169"/>
      <point x="140" y="151" type="curve"/>
      <point x="205" y="347" type="line"/>
      <point x="205" y="347"/>
      <point x="311" y="347"/>
      <point x="402" y="347" type="curve" smooth="yes"/>
      <point x="418.504" y="347"/>
      <point x="426.818" y="358.919"/>
      <point x="426.944" y="370" type="curve" smooth="yes"/>
      <point x="427.074" y="381.414"/>
      <point x="418.759" y="395"/>
      <point x="402" y="395" type="curve" smooth="yes"/>
      <point x="204" y="395" type="line" smooth="yes"/>
      <point x="178" y="395"/>
      <point x="164.906" y="384.698"/>
      <point x="156" y="356" type="curve" smooth="yes"/>
      <point x="138" y="298"/>
      <point x="117" y="232"/>
      <point x="92.3496" y="158" type="curve" smooth="yes"/>
      <point x="75.9766" y="108.85"/>
      <point x="109" y="96.2754"/>
    </contour>
  </outline>
</glyph>
<glyph name="six" format="1">
  <advance width="465" height="465"/>
  <unicode hex="0036"/>
  <outline>
    <contour>
      <point x="412" y="169" type="curve" smooth="yes"/>
      <point x="413.96" y="70"/>
      <point x="345" y="-5"/>
      <point x="232" y="-5" type="curve" smooth="yes"/>
      <point x="115" y="-5"/>
      <point x="49" y="81.9961"/>
      <point x="49" y="200" type="curve" smooth="yes"/>
      <point x="49" y="387"/>
      <point x="179.713" y="587.041"/>
      <point x="375" y="644" type="curve" smooth="yes"/>
      <point x="390" y="648.375"/>
      <point x="404" y="645"/>
      <point x="408" y="633" type="curve" smooth="yes"/>
      <point x="411.64" y="622.081"/>
      <point x="409.354" y="606.252"/>
      <point x="392" y="601" type="curve" smooth="yes"/>
      <point x="240" y="555"/>
      <point x="137" y="424"/>
      <point x="108" y="290" type="curve"/>
      <point x="130" y="322"/>
      <point x="184" y="341"/>
      <point x="234" y="341" type="curve" smooth="yes"/>
      <point x="327" y="341"/>
      <point x="409.743" y="282.978"/>
    </contour>
    <contour>
      <point x="103" y="171" type="curve" smooth="yes"/>
      <point x="103" y="100"/>
      <point x="155" y="43"/>
      <point x="232" y="43" type="curve" smooth="yes"/>
      <point x="317" y="43"/>
      <point x="363" y="95"/>
      <point x="363" y="171" type="curve" smooth="yes"/>
      <point x="363" y="236"/>
      <point x="310" y="293"/>
      <point x="232" y="293" type="curve" smooth="yes"/>
      <point x="151" y="293"/>
      <point x="103" y="236.038"/>
    </contour>
  </outline>
</glyph>
<glyph name="seven" format="1">
  <advance width="505" height="505"/>
  <unicode hex="0037"/>
  <outline>
    <contour>
      <point x="119" y="-193" type="curve" smooth="yes"/>
      <point x="107.114" y="-212.813"/>
      <point x="92.7266" y="-216.424"/>
      <point x="80" y="-209" type="curve" smooth="yes"/>
      <point x="68" y="-202"/>
      <point x="67.6338" y="-186.277"/>
      <point x="75" y="-174" type="curve" smooth="yes"/>
      <point x="141" y="-64"/>
      <point x="324" y="237"/>
      <point x="391" y="346" type="curve"/>
      <point x="391" y="346"/>
      <point x="154" y="346"/>
      <point x="78" y="346" type="curve" smooth="yes"/>
      <point x="66" y="346"/>
      <point x="52.9443" y="355"/>
      <point x="52.9443" y="370" type="curve" smooth="yes"/>
      <point x="52.9443" y="385.494"/>
      <point x="65" y="396"/>
      <point x="77" y="396" type="curve" smooth="yes"/>
      <point x="395" y="396" type="line" smooth="yes"/>
      <point x="436" y="396"/>
      <point x="453.786" y="360.311"/>
      <point x="432" y="324" type="curve" smooth="yes"/>
      <point x="375" y="229"/>
      <point x="174.87" y="-99.8662"/>
    </contour>
  </outline>
</glyph>
<glyph name="eight" format="1">
  <advance width="481" height="481"/>
  <unicode hex="0038"/>
  <outline>
    <contour>
      <point x="238" y="323" type="curve"/>
      <point x="128" y="296"/>
      <point x="103.719" y="227.13"/>
      <point x="99" y="180" type="curve" smooth="yes"/>
      <point x="90.9521" y="99.6211"/>
      <point x="145" y="38"/>
      <point x="237" y="38" type="curve" smooth="yes"/>
      <point x="319.006" y="38"/>
      <point x="382.413" y="98.2314"/>
      <point x="376" y="180" type="curve" smooth="yes"/>
      <point x="372" y="231"/>
      <point x="344" y="297.964"/>
    </contour>
    <contour>
      <point x="237" y="606" type="curve" smooth="yes"/>
      <point x="170.841" y="606"/>
      <point x="121" y="560"/>
      <point x="128.841" y="493" type="curve" smooth="yes"/>
      <point x="134.926" y="441"/>
      <point x="180" y="390"/>
      <point x="238" y="381" type="curve"/>
      <point x="300" y="394"/>
      <point x="338.326" y="442"/>
      <point x="345.841" y="493" type="curve" smooth="yes"/>
      <point x="356.008" y="562"/>
      <point x="305.841" y="606"/>
    </contour>
    <contour>
      <point x="237" y="654" type="curve" smooth="yes"/>
      <point x="360" y="654"/>
      <point x="402.133" y="561"/>
      <point x="394.841" y="494" type="curve" smooth="yes"/>
      <point x="390.052" y="450"/>
      <point x="374" y="394"/>
      <point x="294.444" y="353.996" type="curve"/>
      <point x="390" y="312"/>
      <point x="418.826" y="258"/>
      <point x="424" y="184" type="curve" smooth="yes"/>
      <point x="430.255" y="94.5371"/>
      <point x="373.235" y="-10"/>
      <point x="237" y="-10" type="curve" smooth="yes"/>
      <point x="105" y="-10"/>
      <point x="41.7764" y="87"/>
      <point x="51" y="184" type="curve" smooth="yes"/>
      <point x="57.4795" y="252.146"/>
      <point x="86" y="310"/>
      <point x="181.841" y="353.785" type="curve"/>
      <point x="108" y="385"/>
      <point x="85.1172" y="447"/>
      <point x="79.8408" y="492" type="curve" smooth="yes"/>
      <point x="72.4551" y="555"/>
      <point x="117" y="654"/>
    </contour>
  </outline>
</glyph>
<glyph name="nine" format="1">
  <advance width="493" height="493"/>
  <unicode hex="0039"/>
  <outline>
    <contour>
      <point x="69" y="263" type="curve" smooth="yes"/>
      <point x="67.04" y="362"/>
      <point x="136" y="437"/>
      <point x="249" y="437" type="curve" smooth="yes"/>
      <point x="366" y="437"/>
      <point x="432" y="350.004"/>
      <point x="432" y="232" type="curve" smooth="yes"/>
      <point x="432" y="45"/>
      <point x="301.287" y="-155.041"/>
      <point x="106" y="-212" type="curve" smooth="yes"/>
      <point x="91" y="-216.375"/>
      <point x="77" y="-213"/>
      <point x="73" y="-201" type="curve" smooth="yes"/>
      <point x="69.3604" y="-190.081"/>
      <point x="71.6455" y="-174.252"/>
      <point x="89" y="-169" type="curve" smooth="yes"/>
      <point x="241" y="-123"/>
      <point x="344" y="8"/>
      <point x="373" y="142" type="curve"/>
      <point x="351" y="110"/>
      <point x="297" y="91"/>
      <point x="247" y="91" type="curve" smooth="yes"/>
      <point x="154" y="91"/>
      <point x="71.2568" y="149.022"/>
    </contour>
    <contour>
      <point x="378" y="261" type="curve" smooth="yes"/>
      <point x="378" y="332"/>
      <point x="326" y="389"/>
      <point x="249" y="389" type="curve" smooth="yes"/>
      <point x="164" y="389"/>
      <point x="118" y="337"/>
      <point x="118" y="261" type="curve" smooth="yes"/>
      <point x="118" y="196"/>
      <point x="171" y="139"/>
      <point x="249" y="139" type="curve" smooth="yes"/>
      <point x="330" y="139"/>
      <point x="378" y="195.962"/>
    </contour>
  </outline>
</glyph>
<glyph name="less" format="1">
  <advance width="599" height="599"/>
  <unicode hex="003C"/>
  <outline>
    <contour>
      <point x="449.481" y="107.821" type="curve" smooth="yes"/>
      <point x="106" y="242" type="line" smooth="yes"/>
      <point x="74" y="255"/>
      <point x="74" y="298.168"/>
      <point x="107" y="311" type="curve" smooth="yes"/>
      <point x="107" y="311"/>
      <point x="330" y="398"/>
      <point x="449.481" y="444.179" type="curve" smooth="yes"/>
      <point x="462" y="449.017"/>
      <point x="481.877" y="446"/>
      <point x="488" y="430" type="curve" smooth="yes"/>
      <point x="494.506" y="413"/>
      <point x="483" y="396.05"/>
      <point x="470" y="391" type="curve" smooth="yes"/>
      <point x="349" y="344"/>
      <point x="175.225" y="276.368"/>
      <point x="175.225" y="276.368" type="curve"/>
      <point x="470" y="161" type="line" smooth="yes"/>
      <point x="487" y="154.396"/>
      <point x="494.506" y="139"/>
      <point x="488" y="122" type="curve" smooth="yes"/>
      <point x="481.877" y="106"/>
      <point x="466" y="101.438"/>
    </contour>
  </outline>
</glyph>
<glyph name="equal" format="1">
  <advance width="592" height="592"/>
  <unicode hex="003D"/>
  <outline>
    <contour>
      <point x="158" y="212" type="curve" smooth="yes"/>
      <point x="440" y="212" type="line" smooth="yes"/>
      <point x="457" y="212"/>
      <point x="470" y="198"/>
      <point x="470" y="182" type="curve" smooth="yes"/>
      <point x="470" y="166"/>
      <point x="456" y="152"/>
      <point x="440" y="152" type="curve" smooth="yes"/>
      <point x="158" y="152" type="line" smooth="yes"/>
      <point x="142" y="152"/>
      <point x="128" y="166"/>
      <point x="128" y="182" type="curve" smooth="yes"/>
      <point x="128" y="198"/>
      <point x="141" y="212"/>
    </contour>
    <contour>
      <point x="158" y="382" type="curve" smooth="yes"/>
      <point x="440" y="382" type="line" smooth="yes"/>
      <point x="457" y="382"/>
      <point x="470" y="368"/>
      <point x="470" y="352" type="curve" smooth="yes"/>
      <point x="470" y="336"/>
      <point x="456" y="322"/>
      <point x="440" y="322" type="curve" smooth="yes"/>
      <point x="158" y="322" type="line" smooth="yes"/>
      <point x="142" y="322"/>
      <point x="128" y="336"/>
      <point x="128" y="352" type="curve" smooth="yes"/>
      <point x="128" y="368"/>
      <point x="141" y="382"/>
    </contour>
  </outline>
</glyph>
<glyph name="greater" format="1">
  <advance width="598" height="598"/>
  <unicode hex="003E"/>
  <outline>
    <contour>
      <point x="138.519" y="107.821" type="curve" smooth="yes"/>
      <point x="482" y="242" type="line" smooth="yes"/>
      <point x="514" y="255"/>
      <point x="514" y="298.168"/>
      <point x="481" y="311" type="curve" smooth="yes"/>
      <point x="481" y="311"/>
      <point x="258" y="398"/>
      <point x="138.519" y="444.179" type="curve" smooth="yes"/>
      <point x="126" y="449.017"/>
      <point x="106.123" y="446"/>
      <point x="100" y="430" type="curve" smooth="yes"/>
      <point x="93.4941" y="413"/>
      <point x="105" y="396.05"/>
      <point x="118" y="391" type="curve" smooth="yes"/>
      <point x="239" y="344"/>
      <point x="412.775" y="276.368"/>
      <point x="412.775" y="276.368" type="curve"/>
      <point x="118" y="161" type="line" smooth="yes"/>
      <point x="101" y="154.396"/>
      <point x="93.4941" y="139"/>
      <point x="100" y="122" type="curve" smooth="yes"/>
      <point x="106.123" y="106"/>
      <point x="122" y="101.438"/>
    </contour>
  </outline>
</glyph>
<glyph name="question" format="1">
  <advance width="613" height="613"/>
  <unicode hex="003F"/>
  <outline>
    <contour>
      <point x="114.088" y="542.073" type="curve" smooth="yes"/>
      <point x="88.8179" y="542.073"/>
      <point x="82.3221" y="568.702"/>
      <point x="88" y="590" type="curve" smooth="yes"/>
      <point x="112" y="671"/>
      <point x="178" y="748"/>
      <point x="308" y="748" type="curve" smooth="yes"/>
      <point x="426.773" y="748"/>
      <point x="512.168" y="664.236"/>
      <point x="512.851" y="556.052" type="curve" smooth="yes"/>
      <point x="514.038" y="368"/>
      <point x="298" y="329.004"/>
      <point x="298" y="183" type="curve" smooth="yes"/>
      <point x="298" y="156"/>
      <point x="287" y="142"/>
      <point x="268" y="142" type="curve" smooth="yes"/>
      <point x="248" y="142"/>
      <point x="235.83" y="156.999"/>
      <point x="236" y="183" type="curve" smooth="yes"/>
      <point x="237.131" y="356.063"/>
      <point x="451.954" y="398"/>
      <point x="449.661" y="548.399" type="curve" smooth="yes"/>
      <point x="448.532" y="622.452"/>
      <point x="393.275" y="689"/>
      <point x="309" y="689" type="curve" smooth="yes"/>
      <point x="212" y="689"/>
      <point x="167" y="636"/>
      <point x="146" y="568" type="curve" smooth="yes"/>
      <point x="141.13" y="553.39"/>
      <point x="128.354" y="542.073"/>
    </contour>
    <component base="period" xOffset="163" yOffset="-1"/>
  </outline>
</glyph>
<glyph name="bracketleft" format="1">
  <advance width="340" height="340"/>
  <unicode hex="005B"/>
  <outline>
    <contour>
      <point x="87" y="-290" type="line"/>
      <point x="87" y="-310"/>
      <point x="99" y="-320"/>
      <point x="118" y="-320" type="curve" smooth="yes"/>
      <point x="118" y="-320"/>
      <point x="183" y="-320"/>
      <point x="219" y="-320" type="curve" smooth="yes"/>
      <point x="232" y="-320"/>
      <point x="244" y="-308"/>
      <point x="244" y="-292" type="curve" smooth="yes"/>
      <point x="244" y="-276"/>
      <point x="234" y="-265"/>
      <point x="219" y="-265" type="curve" smooth="yes"/>
      <point x="190" y="-265"/>
      <point x="144" y="-265"/>
      <point x="144" y="-265" type="curve"/>
      <point x="144" y="805" type="line"/>
      <point x="144" y="805"/>
      <point x="190" y="805"/>
      <point x="219" y="805" type="curve" smooth="yes"/>
      <point x="234" y="805"/>
      <point x="244" y="816"/>
      <point x="244" y="832" type="curve" smooth="yes"/>
      <point x="244" y="848"/>
      <point x="232" y="860"/>
      <point x="219" y="860" type="curve" smooth="yes"/>
      <point x="183" y="860"/>
      <point x="118" y="860"/>
      <point x="118" y="860" type="curve" smooth="yes"/>
      <point x="99" y="860"/>
      <point x="87" y="850"/>
      <point x="87" y="830" type="curve" smooth="yes"/>
    </contour>
  </outline>
</glyph>
<glyph name="backslash" format="1">
  <advance width="352" height="352"/>
  <unicode hex="005C"/>
  <outline>
    <contour>
      <point x="217" y="2" type="curve" smooth="yes"/>
      <point x="157" y="203"/>
      <point x="124" y="316"/>
      <point x="63" y="520" type="curve" smooth="yes"/>
      <point x="50.4208" y="559.834"/>
      <point x="104.58" y="580.469"/>
      <point x="117" y="537" type="curve" smooth="yes"/>
      <point x="178" y="334"/>
      <point x="212" y="222"/>
      <point x="272" y="18" type="curve" smooth="yes"/>
      <point x="283.503" y="-18.8095"/>
      <point x="229.637" y="-38.4374"/>
    </contour>
  </outline>
</glyph>
<glyph name="bracketright" format="1">
  <advance width="338" height="338"/>
  <unicode hex="005D"/>
  <outline>
    <contour>
      <point x="245" y="-290" type="line"/>
      <point x="245" y="-310"/>
      <point x="233" y="-320"/>
      <point x="214" y="-320" type="curve" smooth="yes"/>
      <point x="214" y="-320"/>
      <point x="149" y="-320"/>
      <point x="113" y="-320" type="curve" smooth="yes"/>
      <point x="100" y="-320"/>
      <point x="88" y="-308"/>
      <point x="88" y="-292" type="curve" smooth="yes"/>
      <point x="88" y="-276"/>
      <point x="98" y="-265"/>
      <point x="113" y="-265" type="curve" smooth="yes"/>
      <point x="142" y="-265"/>
      <point x="188" y="-265"/>
      <point x="188" y="-265" type="curve"/>
      <point x="188" y="805" type="line"/>
      <point x="188" y="805"/>
      <point x="142" y="805"/>
      <point x="113" y="805" type="curve" smooth="yes"/>
      <point x="98" y="805"/>
      <point x="88" y="816"/>
      <point x="88" y="832" type="curve" smooth="yes"/>
      <point x="88" y="848"/>
      <point x="100" y="860"/>
      <point x="113" y="860" type="curve" smooth="yes"/>
      <point x="149" y="860"/>
      <point x="214" y="860"/>
      <point x="214" y="860" type="curve" smooth="yes"/>
      <point x="233" y="860"/>
      <point x="245" y="850"/>
      <point x="245" y="830" type="curve" smooth="yes"/>
    </contour>
  </outline>
</glyph>
<glyph name="asciicircum" format="1">
  <advance width="509" height="509"/>
  <unicode hex="005E"/>
  <outline>
    <contour>
      <point x="375" y="711" type="curve"/>
      <point x="254" y="875" type="line"/>
      <point x="254" y="875"/>
      <point x="178" y="772"/>
      <point x="133" y="711" type="curve" smooth="yes"/>
      <point x="123" y="698"/>
      <point x="105" y="691"/>
      <point x="91" y="701" type="curve" smooth="yes"/>
      <point x="78" y="710"/>
      <point x="78" y="730"/>
      <point x="86" y="741" type="curve" smooth="yes"/>
      <point x="138" y="810"/>
      <point x="221" y="923"/>
      <point x="221" y="923" type="curve" smooth="yes"/>
      <point x="231" y="937"/>
      <point x="243" y="943"/>
      <point x="254" y="943" type="curve" smooth="yes"/>
      <point x="265" y="943"/>
      <point x="276" y="936"/>
      <point x="286" y="924" type="curve" smooth="yes"/>
      <point x="422" y="741" type="line" smooth="yes"/>
      <point x="430" y="730"/>
      <point x="430" y="710"/>
      <point x="417" y="701" type="curve" smooth="yes"/>
      <point x="403" y="691"/>
      <point x="385" y="698"/>
    </contour>
  </outline>
</glyph>
<glyph name="underscore" format="1">
  <advance width="580" height="580"/>
  <unicode hex="005F"/>
  <outline>
    <contour>
      <point x="61" y="60" type="curve" smooth="yes"/>
      <point x="61" y="60"/>
      <point x="418" y="60"/>
      <point x="523" y="60" type="curve" smooth="yes"/>
      <point x="539.996" y="60"/>
      <point x="553" y="46"/>
      <point x="553" y="30" type="curve" smooth="yes"/>
      <point x="553" y="14"/>
      <point x="539" y="0"/>
      <point x="523" y="0" type="curve" smooth="yes"/>
      <point x="415" y="0"/>
      <point x="61" y="0"/>
      <point x="61" y="0" type="curve" smooth="yes"/>
      <point x="45" y="0"/>
      <point x="31" y="14"/>
      <point x="31" y="30" type="curve" smooth="yes"/>
      <point x="31" y="46"/>
      <point x="44.0039" y="60"/>
    </contour>
  </outline>
</glyph>
<glyph name="braceleft" format="1">
  <advance width="415" height="415"/>
  <unicode hex="007B"/>
  <outline>
    <contour>
      <point x="157" y="-290" type="line" smooth="yes"/>
      <point x="157" y="-310"/>
      <point x="169" y="-320"/>
      <point x="188" y="-320" type="curve" smooth="yes"/>
      <point x="188" y="-320"/>
      <point x="253" y="-320"/>
      <point x="289" y="-320" type="curve" smooth="yes"/>
      <point x="302" y="-320"/>
      <point x="314" y="-308"/>
      <point x="314" y="-292" type="curve" smooth="yes"/>
      <point x="314" y="-276"/>
      <point x="304" y="-265"/>
      <point x="289" y="-265" type="curve" smooth="yes"/>
      <point x="260" y="-265"/>
      <point x="214" y="-265"/>
      <point x="214" y="-265" type="curve"/>
      <point x="214" y="805" type="line"/>
      <point x="214" y="805"/>
      <point x="260" y="805"/>
      <point x="289" y="805" type="curve" smooth="yes"/>
      <point x="304" y="805"/>
      <point x="314" y="816"/>
      <point x="314" y="832" type="curve" smooth="yes"/>
      <point x="314" y="848"/>
      <point x="302" y="860"/>
      <point x="289" y="860" type="curve" smooth="yes"/>
      <point x="253" y="860"/>
      <point x="188" y="860"/>
      <point x="188" y="860" type="curve" smooth="yes"/>
      <point x="169" y="860"/>
      <point x="157" y="850"/>
      <point x="157" y="830" type="curve" smooth="yes"/>
      <point x="157" y="300" type="line"/>
      <point x="157" y="300"/>
      <point x="123" y="300"/>
      <point x="102" y="300" type="curve" smooth="yes"/>
      <point x="82" y="300"/>
      <point x="72" y="285"/>
      <point x="72" y="269" type="curve" smooth="yes"/>
      <point x="72" y="253"/>
      <point x="82" y="239"/>
      <point x="102" y="239" type="curve" smooth="yes"/>
      <point x="122" y="239"/>
      <point x="157" y="239"/>
      <point x="157" y="239" type="curve"/>
    </contour>
  </outline>
</glyph>
<glyph name="bar" format="1">
  <advance width="286" height="286"/>
  <unicode hex="007C"/>
  <outline>
    <contour>
      <point x="109" y="37" type="curve" smooth="yes"/>
      <point x="109" y="719" type="line" smooth="yes"/>
      <point x="109" y="735.996"/>
      <point x="123" y="749"/>
      <point x="139" y="749" type="curve" smooth="yes"/>
      <point x="155" y="749"/>
      <point x="169" y="735"/>
      <point x="169" y="719" type="curve" smooth="yes"/>
      <point x="169" y="37" type="line" smooth="yes"/>
      <point x="169" y="21"/>
      <point x="155" y="7"/>
      <point x="139" y="7" type="curve" smooth="yes"/>
      <point x="123" y="7"/>
      <point x="109" y="20"/>
    </contour>
  </outline>
</glyph>
<glyph name="braceright" format="1">
  <advance width="413" height="413"/>
  <unicode hex="007D"/>
  <outline>
    <contour>
      <point x="253" y="-290" type="line" smooth="yes"/>
      <point x="253" y="-310"/>
      <point x="241" y="-320"/>
      <point x="222" y="-320" type="curve" smooth="yes"/>
      <point x="222" y="-320"/>
      <point x="157" y="-320"/>
      <point x="121" y="-320" type="curve" smooth="yes"/>
      <point x="108" y="-320"/>
      <point x="96" y="-308"/>
      <point x="96" y="-292" type="curve" smooth="yes"/>
      <point x="96" y="-276"/>
      <point x="106" y="-265"/>
      <point x="121" y="-265" type="curve" smooth="yes"/>
      <point x="150" y="-265"/>
      <point x="196" y="-265"/>
      <point x="196" y="-265" type="curve"/>
      <point x="196" y="805" type="line"/>
      <point x="196" y="805"/>
      <point x="150" y="805"/>
      <point x="121" y="805" type="curve" smooth="yes"/>
      <point x="106" y="805"/>
      <point x="96" y="816"/>
      <point x="96" y="832" type="curve" smooth="yes"/>
      <point x="96" y="848"/>
      <point x="108" y="860"/>
      <point x="121" y="860" type="curve" smooth="yes"/>
      <point x="157" y="860"/>
      <point x="222" y="860"/>
      <point x="222" y="860" type="curve" smooth="yes"/>
      <point x="241" y="860"/>
      <point x="253" y="850"/>
      <point x="253" y="830" type="curve" smooth="yes"/>
      <point x="253" y="300" type="line"/>
      <point x="253" y="300"/>
      <point x="287" y="300"/>
      <point x="308" y="300" type="curve" smooth="yes"/>
      <point x="328" y="300"/>
      <point x="338" y="285"/>
      <point x="338" y="269" type="curve" smooth="yes"/>
      <point x="338" y="253"/>
      <point x="328" y="239"/>
      <point x="308" y="239" type="curve" smooth="yes"/>
      <point x="288" y="239"/>
      <point x="253" y="239"/>
      <point x="253" y="239" type="curve"/>
    </contour>
  </outline>
</glyph>
<glyph name="asciitilde" format="1">
  <advance width="900" height="900"/>
  <unicode hex="007E"/>
  <outline>
    <contour>
      <point x="466" y="324" type="curve"/>
      <point x="416" y="364"/>
      <point x="375.259" y="408"/>
      <point x="270" y="408" type="curve" smooth="yes"/>
      <point x="179" y="408"/>
      <point x="115" y="362"/>
      <point x="73" y="324" type="curve" smooth="yes"/>
      <point x="60.6191" y="312.798"/>
      <point x="55" y="295"/>
      <point x="65" y="281" type="curve" smooth="yes"/>
      <point x="75" y="267"/>
      <point x="96" y="267.737"/>
      <point x="108" y="277" type="curve" smooth="yes"/>
      <point x="165" y="321"/>
      <point x="198" y="348"/>
      <point x="270" y="348" type="curve" smooth="yes"/>
      <point x="341.28" y="348"/>
      <point x="389" y="312"/>
      <point x="432" y="278" type="curve"/>
      <point x="482" y="238"/>
      <point x="522.741" y="194"/>
      <point x="628" y="194" type="curve" smooth="yes"/>
      <point x="719" y="194"/>
      <point x="783" y="240"/>
      <point x="825" y="278" type="curve" smooth="yes"/>
      <point x="837.381" y="289.202"/>
      <point x="843" y="307"/>
      <point x="833" y="321" type="curve" smooth="yes"/>
      <point x="823" y="335"/>
      <point x="802" y="334.263"/>
      <point x="790" y="325" type="curve" smooth="yes"/>
      <point x="733" y="281"/>
      <point x="700" y="254"/>
      <point x="628" y="254" type="curve" smooth="yes"/>
      <point x="556.72" y="254"/>
      <point x="509" y="290"/>
    </contour>
  </outline>
</glyph>
<glyph name="anusvara" format="1">
  <advance width="480" height="480"/>
  <unicode hex="0D82"/>
  <outline>
    <contour>
      <point x="417" y="176" type="curve" smooth="yes"/>
      <point x="417" y="77"/>
      <point x="337" y="-3"/>
      <point x="238" y="-3" type="curve" smooth="yes"/>
      <point x="141" y="-3"/>
      <point x="61" y="77"/>
      <point x="61" y="176" type="curve" smooth="yes"/>
      <point x="61" y="273"/>
      <point x="141" y="353"/>
      <point x="238" y="353" type="curve" smooth="yes"/>
      <point x="337" y="353"/>
      <point x="417" y="273"/>
    </contour>
    <contour>
      <point x="115" y="176" type="curve" smooth="yes"/>
      <point x="115" y="105"/>
      <point x="171" y="51"/>
      <point x="238" y="51" type="curve" smooth="yes"/>
      <point x="307" y="51"/>
      <point x="363" y="105"/>
      <point x="363" y="176" type="curve" smooth="yes"/>
      <point x="363" y="243"/>
      <point x="307" y="300"/>
      <point x="238" y="300" type="curve" smooth="yes"/>
      <point x="171" y="300"/>
      <point x="115" y="243"/>
    </contour>
  </outline>
</glyph>
<glyph name="visarga" format="1">
  <advance width="342" height="342"/>
  <unicode hex="0D83"/>
  <outline>
    <contour>
      <point x="279" y="108" type="curve" smooth="yes"/>
      <point x="279" y="49"/>
      <point x="230" y="0"/>
      <point x="169" y="0" type="curve" smooth="yes"/>
      <point x="110" y="0"/>
      <point x="61" y="49"/>
      <point x="61" y="108" type="curve" smooth="yes"/>
      <point x="61" y="169"/>
      <point x="110" y="218"/>
      <point x="169" y="218" type="curve" smooth="yes"/>
      <point x="230" y="218"/>
      <point x="279" y="169"/>
    </contour>
    <contour>
      <point x="113" y="108" type="curve" smooth="yes"/>
      <point x="113" y="75"/>
      <point x="138" y="51"/>
      <point x="169" y="51" type="curve" smooth="yes"/>
      <point x="202" y="51"/>
      <point x="227" y="75"/>
      <point x="227" y="108" type="curve" smooth="yes"/>
      <point x="227" y="141"/>
      <point x="202" y="166"/>
      <point x="169" y="166" type="curve" smooth="yes"/>
      <point x="138" y="166"/>
      <point x="113" y="141"/>
    </contour>
    <contour>
      <point x="279" y="385" type="curve" smooth="yes"/>
      <point x="279" y="326"/>
      <point x="230" y="277"/>
      <point x="169" y="277" type="curve" smooth="yes"/>
      <point x="110" y="277"/>
      <point x="61" y="326"/>
      <point x="61" y="385" type="curve" smooth="yes"/>
      <point x="61" y="446"/>
      <point x="110" y="495"/>
      <point x="169" y="495" type="curve" smooth="yes"/>
      <point x="230" y="495"/>
      <point x="279" y="446"/>
    </contour>
    <contour>
      <point x="113" y="385" type="curve" smooth="yes"/>
      <point x="113" y="352"/>
      <point x="138" y="328"/>
      <point x="169" y="328" type="curve" smooth="yes"/>
      <point x="202" y="328"/>
      <point x="227" y="352"/>
      <point x="227" y="385" type="curve" smooth="yes"/>
      <point x="227" y="418"/>
      <point x="202" y="443"/>
      <point x="169" y="443" type="curve" smooth="yes"/>
      <point x="138" y="443"/>
      <point x="113" y="418"/>
    </contour>
  </outline>
</glyph>
<glyph name="sinA" format="1">
  <advance width="908" height="908"/>
  <unicode hex="0D85"/>
  <outline>
    <contour>
      <point x="486" y="382" type="curve" smooth="yes"/>
      <point x="386" y="382"/>
      <point x="363" y="431"/>
      <point x="256" y="431" type="curve" smooth="yes"/>
      <point x="194" y="431"/>
      <point x="112" y="381"/>
      <point x="112" y="255" type="curve" smooth="yes"/>
      <point x="112" y="236"/>
      <point x="114" y="214"/>
      <point x="118" y="191" type="curve" smooth="yes"/>
      <point x="138" y="85"/>
      <point x="228" y="-1"/>
      <point x="375" y="-1" type="curve" smooth="yes"/>
      <point x="479" y="-1"/>
      <point x="542" y="52"/>
      <point x="579" y="95" type="curve"/>
      <point x="579" y="160"/>
      <point x="580" y="214"/>
      <point x="580" y="259" type="curve" smooth="yes"/>
      <point x="580" y="323"/>
      <point x="579" y="372"/>
      <point x="578" y="416" type="curve"/>
      <point x="562" y="399"/>
      <point x="534" y="382"/>
    </contour>
    <contour>
      <point x="596.985" y="540.379" type="curve" smooth="yes"/>
      <point x="618.629" y="540.379"/>
      <point x="627" y="520.307"/>
      <point x="627" y="494" type="curve"/>
      <point x="635" y="488"/>
      <point x="643" y="486"/>
      <point x="653" y="486" type="curve" smooth="yes"/>
      <point x="694" y="486"/>
      <point x="714" y="510"/>
      <point x="751" y="510" type="curve" smooth="yes"/>
      <point x="787" y="510"/>
      <point x="831" y="482"/>
      <point x="831" y="419" type="curve" smooth="yes"/>
      <point x="831" y="341"/>
      <point x="778" y="278"/>
      <point x="706" y="278" type="curve" smooth="yes"/>
      <point x="671" y="278"/>
      <point x="645" y="290"/>
      <point x="624" y="305" type="curve"/>
      <point x="624" y="211" type="line" smooth="yes"/>
      <point x="624" y="32"/>
      <point x="640" y="-110"/>
      <point x="640" y="-289" type="curve" smooth="yes"/>
      <point x="640" y="-303"/>
      <point x="631" y="-324"/>
      <point x="611" y="-324" type="curve" smooth="yes"/>
      <point x="596" y="-324"/>
      <point x="584" y="-305"/>
      <point x="584" y="-290" type="curve" smooth="yes"/>
      <point x="581" y="-168"/>
      <point x="582" y="-94"/>
      <point x="581" y="27" type="curve"/>
      <point x="557" y="-2"/>
      <point x="495" y="-51"/>
      <point x="382" y="-51" type="curve" smooth="yes"/>
      <point x="200" y="-51"/>
      <point x="99" y="43"/>
      <point x="69" y="178" type="curve" smooth="yes"/>
      <point x="62" y="207"/>
      <point x="59" y="235"/>
      <point x="59" y="260" type="curve" smooth="yes"/>
      <point x="59" y="415"/>
      <point x="174" y="483"/>
      <point x="268" y="483" type="curve" smooth="yes"/>
      <point x="295" y="483"/>
      <point x="336" y="471"/>
      <point x="360" y="456" type="curve"/>
      <point x="352" y="467"/>
      <point x="346" y="490"/>
      <point x="346" y="502" type="curve" smooth="yes"/>
      <point x="346" y="533"/>
      <point x="369" y="549"/>
      <point x="400" y="549" type="curve" smooth="yes"/>
      <point x="434" y="549"/>
      <point x="458" y="528"/>
      <point x="505" y="528" type="curve" smooth="yes"/>
      <point x="522.883" y="528"/>
      <point x="532.376" y="514.428"/>
      <point x="532.376" y="500.768" type="curve" smooth="yes"/>
      <point x="532.376" y="486.929"/>
      <point x="522.633" y="473"/>
      <point x="502" y="473" type="curve" smooth="yes"/>
      <point x="469" y="473"/>
      <point x="444" y="495"/>
      <point x="419" y="495" type="curve" smooth="yes"/>
      <point x="406.731" y="495"/>
      <point x="402.4" y="489.855"/>
      <point x="402.4" y="483.003" type="curve" smooth="yes"/>
      <point x="402.4" y="471.983"/>
      <point x="413.601" y="456.549"/>
      <point x="421" y="451" type="curve" smooth="yes"/>
      <point x="439" y="438"/>
      <point x="466" y="430"/>
      <point x="493" y="430" type="curve" smooth="yes"/>
      <point x="520" y="430"/>
      <point x="547" y="438"/>
      <point x="564" y="461" type="curve" smooth="yes"/>
      <point x="583.471" y="487.343"/>
      <point x="560.836" y="540.379"/>
    </contour>
    <contour>
      <point x="737" y="462" type="curve" smooth="yes"/>
      <point x="704.79" y="462"/>
      <point x="689.296" y="441.562"/>
      <point x="657.219" y="441.562" type="curve" smooth="yes"/>
      <point x="642.875" y="441.562"/>
      <point x="632.75" y="445.5"/>
      <point x="626" y="450" type="curve"/>
      <point x="625" y="419"/>
      <point x="625" y="387"/>
      <point x="625" y="355" type="curve"/>
      <point x="640" y="340"/>
      <point x="665" y="324"/>
      <point x="700" y="324" type="curve" smooth="yes"/>
      <point x="750" y="324"/>
      <point x="780" y="362"/>
      <point x="780" y="412" type="curve" smooth="yes"/>
      <point x="780" y="451"/>
      <point x="759" y="462"/>
    </contour>
  </outline>
</glyph>
<glyph name="sinAa" format="1">
  <advance width="1293" height="1293"/>
  <unicode hex="0D86"/>
  <outline>
    <contour>
      <point x="1041" y="23" type="curve" smooth="yes"/>
      <point x="1151" y="23"/>
      <point x="1186" y="138.393"/>
      <point x="1186" y="237" type="curve" smooth="yes"/>
      <point x="1186" y="328.35"/>
      <point x="1160" y="419.7"/>
      <point x="1082" y="447" type="curve" smooth="yes"/>
      <point x="1068" y="452"/>
      <point x="1055" y="454"/>
      <point x="1041" y="454" type="curve" smooth="yes"/>
      <point x="999" y="454"/>
      <point x="957" y="434"/>
      <point x="932" y="403" type="curve" smooth="yes"/>
      <point x="921" y="389"/>
      <point x="911" y="385"/>
      <point x="904" y="385" type="curve" smooth="yes"/>
      <point x="900" y="385"/>
      <point x="895" y="386"/>
      <point x="893" y="388" type="curve" smooth="yes"/>
      <point x="887" y="392"/>
      <point x="884" y="398"/>
      <point x="884" y="406" type="curve" smooth="yes"/>
      <point x="884" y="413"/>
      <point x="886" y="421"/>
      <point x="892" y="430" type="curve" smooth="yes"/>
      <point x="922" y="476"/>
      <point x="977" y="501"/>
      <point x="1037" y="501" type="curve" smooth="yes"/>
      <point x="1054" y="501"/>
      <point x="1072" y="499"/>
      <point x="1089" y="495" type="curve" smooth="yes"/>
      <point x="1183" y="472.113"/>
      <point x="1233" y="384.726"/>
      <point x="1233" y="237" type="curve" smooth="yes"/>
      <point x="1233" y="90.2451"/>
      <point x="1183" y="4.89844"/>
      <point x="1089" y="-18" type="curve" smooth="yes"/>
      <point x="1072" y="-22"/>
      <point x="1054" y="-24"/>
      <point x="1037" y="-24" type="curve" smooth="yes"/>
      <point x="977" y="-24"/>
      <point x="922" y="1"/>
      <point x="892" y="47" type="curve" smooth="yes"/>
      <point x="886" y="56"/>
      <point x="884" y="64"/>
      <point x="884" y="71" type="curve" smooth="yes"/>
      <point x="884" y="82"/>
      <point x="892" y="92"/>
      <point x="904" y="92" type="curve" smooth="yes"/>
      <point x="911" y="92"/>
      <point x="921" y="88"/>
      <point x="932" y="74" type="curve" smooth="yes"/>
      <point x="957" y="43"/>
      <point x="999" y="23"/>
    </contour>
    <component base="sinA"/>
  </outline>
</glyph>
<glyph name="sinI" format="1">
  <advance width="779" height="779"/>
  <unicode hex="0D89"/>
  <outline>
    <contour>
      <point x="259.761" y="-93.6084" type="curve" smooth="yes"/>
      <point x="279.065" y="-93.6084"/>
      <point x="298" y="-96"/>
      <point x="317" y="-96" type="curve" smooth="yes"/>
      <point x="524" y="-96"/>
      <point x="670" y="51"/>
      <point x="670" y="242" type="curve" smooth="yes"/>
      <point x="670" y="403"/>
      <point x="565" y="523"/>
      <point x="376" y="523" type="curve" smooth="yes"/>
      <point x="247" y="523"/>
      <point x="112" y="441"/>
      <point x="112" y="273" type="curve" smooth="yes"/>
      <point x="112" y="157"/>
      <point x="185" y="50"/>
      <point x="317" y="50" type="curve" smooth="yes"/>
      <point x="417" y="50"/>
      <point x="477" y="121"/>
      <point x="477" y="190" type="curve" smooth="yes"/>
      <point x="477" y="276"/>
      <point x="429" y="318"/>
      <point x="366" y="318" type="curve" smooth="yes"/>
      <point x="353" y="318"/>
      <point x="341" y="313"/>
      <point x="332" y="302" type="curve"/>
      <point x="348" y="301"/>
      <point x="357" y="285"/>
      <point x="357" y="269" type="curve" smooth="yes"/>
      <point x="357" y="251"/>
      <point x="345" y="232"/>
      <point x="317" y="232" type="curve" smooth="yes"/>
      <point x="289" y="232"/>
      <point x="271" y="257"/>
      <point x="271" y="285" type="curve" smooth="yes"/>
      <point x="271" y="335"/>
      <point x="321" y="366"/>
      <point x="366" y="366" type="curve" smooth="yes"/>
      <point x="481" y="366"/>
      <point x="531" y="285"/>
      <point x="531" y="190" type="curve" smooth="yes"/>
      <point x="531" y="100"/>
      <point x="459" y="-1"/>
      <point x="320" y="-1" type="curve" smooth="yes"/>
      <point x="155" y="-1"/>
      <point x="60" y="125"/>
      <point x="60" y="275" type="curve" smooth="yes"/>
      <point x="60" y="465"/>
      <point x="203" y="573"/>
      <point x="376" y="573" type="curve" smooth="yes"/>
      <point x="597" y="573"/>
      <point x="719" y="424"/>
      <point x="719" y="243" type="curve" smooth="yes"/>
      <point x="719" y="82"/>
      <point x="638" y="-99"/>
      <point x="403" y="-141" type="curve"/>
      <point x="467" y="-176"/>
      <point x="479" y="-224"/>
      <point x="479" y="-296" type="curve" smooth="yes"/>
      <point x="479" y="-313"/>
      <point x="464" y="-324"/>
      <point x="451" y="-324" type="curve" smooth="yes"/>
      <point x="442" y="-324"/>
      <point x="426" y="-315"/>
      <point x="426" y="-294" type="curve" smooth="yes"/>
      <point x="426" y="-222"/>
      <point x="396" y="-160"/>
      <point x="262" y="-143" type="curve" smooth="yes"/>
      <point x="248" y="-141"/>
      <point x="236" y="-130"/>
      <point x="236" y="-117" type="curve" smooth="yes"/>
      <point x="236" y="-103"/>
      <point x="247.348" y="-93.6084"/>
    </contour>
  </outline>
</glyph>
<glyph name="sinIi" format="1">
  <advance width="698" height="698"/>
  <unicode hex="0D8A"/>
  <outline>
    <contour>
      <point x="640" y="682" type="curve" smooth="yes"/>
      <point x="640" y="623"/>
      <point x="591" y="574"/>
      <point x="530" y="574" type="curve" smooth="yes"/>
      <point x="471" y="574"/>
      <point x="422" y="623"/>
      <point x="422" y="682" type="curve" smooth="yes"/>
      <point x="422" y="743"/>
      <point x="471" y="792"/>
      <point x="530" y="792" type="curve" smooth="yes"/>
      <point x="591" y="792"/>
      <point x="640" y="743"/>
    </contour>
    <contour>
      <point x="474" y="682" type="curve" smooth="yes"/>
      <point x="474" y="649"/>
      <point x="499" y="624"/>
      <point x="530" y="624" type="curve" smooth="yes"/>
      <point x="563" y="624"/>
      <point x="588" y="649"/>
      <point x="588" y="682" type="curve" smooth="yes"/>
      <point x="588" y="715"/>
      <point x="563" y="740"/>
      <point x="530" y="740" type="curve" smooth="yes"/>
      <point x="499" y="740"/>
      <point x="474" y="715"/>
    </contour>
    <contour>
      <point x="294" y="812" type="curve" smooth="yes"/>
      <point x="294" y="753"/>
      <point x="245" y="704"/>
      <point x="184" y="704" type="curve" smooth="yes"/>
      <point x="125" y="704"/>
      <point x="76" y="753"/>
      <point x="76" y="812" type="curve" smooth="yes"/>
      <point x="76" y="873"/>
      <point x="125" y="922"/>
      <point x="184" y="922" type="curve" smooth="yes"/>
      <point x="245" y="922"/>
      <point x="294" y="873"/>
    </contour>
    <contour>
      <point x="128" y="812" type="curve" smooth="yes"/>
      <point x="128" y="779"/>
      <point x="153" y="755"/>
      <point x="184" y="755" type="curve" smooth="yes"/>
      <point x="217" y="755"/>
      <point x="242" y="779"/>
      <point x="242" y="812" type="curve" smooth="yes"/>
      <point x="242" y="845"/>
      <point x="217" y="870"/>
      <point x="184" y="870" type="curve" smooth="yes"/>
      <point x="153" y="870"/>
      <point x="128" y="845"/>
    </contour>
    <contour>
      <point x="346" y="-12" type="curve" smooth="yes"/>
      <point x="506.513" y="-12"/>
      <point x="634.056" y="118.991"/>
      <point x="634.056" y="282.248" type="curve" smooth="yes"/>
      <point x="634.056" y="447.016"/>
      <point x="516.848" y="566"/>
      <point x="346" y="566" type="curve" smooth="yes"/>
      <point x="267" y="566"/>
      <point x="222" y="540"/>
      <point x="193" y="510" type="curve"/>
      <point x="252" y="600"/>
      <point x="394" y="773"/>
      <point x="577" y="930" type="curve" smooth="yes"/>
      <point x="584.77" y="936.66"/>
      <point x="586.228" y="942.477"/>
      <point x="586.228" y="950.372" type="curve" smooth="yes"/>
      <point x="586.228" y="964.139"/>
      <point x="575.203" y="972.574"/>
      <point x="562.486" y="972.574" type="curve" smooth="yes"/>
      <point x="554.698" y="972.574"/>
      <point x="546.594" y="969.495"/>
      <point x="540" y="964" type="curve" smooth="yes"/>
      <point x="366" y="810"/>
      <point x="222" y="646"/>
      <point x="148" y="536" type="curve" smooth="yes"/>
      <point x="90" y="449"/>
      <point x="56" y="380"/>
      <point x="56" y="276" type="curve" smooth="yes"/>
      <point x="56" y="117"/>
      <point x="185" y="-12"/>
    </contour>
    <contour>
      <point x="346" y="40" type="curve" smooth="yes"/>
      <point x="213.584" y="40"/>
      <point x="108.993" y="143.598"/>
      <point x="108.993" y="277.917" type="curve" smooth="yes"/>
      <point x="108.993" y="406.088"/>
      <point x="208.684" y="515"/>
      <point x="346" y="515" type="curve" smooth="yes"/>
      <point x="479.71" y="515"/>
      <point x="582.029" y="415.921"/>
      <point x="582.029" y="279.946" type="curve" smooth="yes"/>
      <point x="582.029" y="145.253"/>
      <point x="479.87" y="40"/>
    </contour>
  </outline>
</glyph>
<glyph name="sinU" format="1">
  <advance width="733" height="733"/>
  <unicode hex="0D8B"/>
  <outline>
    <contour>
      <point x="347" y="466" type="curve" smooth="yes"/>
      <point x="204" y="466"/>
      <point x="113.902" y="326.362"/>
      <point x="113" y="146" type="curve" smooth="yes"/>
      <point x="112.04" y="-46"/>
      <point x="256" y="-192"/>
      <point x="467" y="-192" type="curve" smooth="yes"/>
      <point x="529" y="-192"/>
      <point x="577.624" y="-180.813"/>
      <point x="617" y="-169" type="curve" smooth="yes"/>
      <point x="637" y="-163"/>
      <point x="655" y="-172"/>
      <point x="655" y="-192" type="curve" smooth="yes"/>
      <point x="655" y="-205"/>
      <point x="644.132" y="-215.415"/>
      <point x="629" y="-220" type="curve" smooth="yes"/>
      <point x="596" y="-230"/>
      <point x="519" y="-242"/>
      <point x="455" y="-242" type="curve" smooth="yes"/>
      <point x="202" y="-242"/>
      <point x="62.0335" y="-59.9995"/>
      <point x="60" y="142" type="curve" smooth="yes"/>
      <point x="57.9413" y="346.507"/>
      <point x="178" y="515"/>
      <point x="339" y="515" type="curve" smooth="yes"/>
      <point x="397.377" y="515"/>
      <point x="462.799" y="497.231"/>
      <point x="494" y="482" type="curve"/>
      <point x="490.4" y="491.227"/>
      <point x="488" y="500.455"/>
      <point x="488" y="511" type="curve" smooth="yes"/>
      <point x="488" y="533"/>
      <point x="502" y="554"/>
      <point x="535" y="554" type="curve" smooth="yes"/>
      <point x="567.522" y="554"/>
      <point x="597.257" y="533"/>
      <point x="640" y="533" type="curve" smooth="yes"/>
      <point x="673" y="533"/>
      <point x="673" y="478"/>
      <point x="637" y="478" type="curve" smooth="yes"/>
      <point x="603.364" y="478"/>
      <point x="582.455" y="500"/>
      <point x="557" y="500" type="curve" smooth="yes"/>
      <point x="548" y="500"/>
      <point x="540.942" y="492.995"/>
      <point x="542" y="482" type="curve" smooth="yes"/>
      <point x="543.828" y="463"/>
      <point x="586.719" y="438.918"/>
      <point x="627" y="437" type="curve" smooth="yes"/>
      <point x="648" y="436"/>
      <point x="652.604" y="418.813"/>
      <point x="648" y="405" type="curve" smooth="yes"/>
      <point x="644" y="393"/>
      <point x="633" y="387"/>
      <point x="616" y="387" type="curve" smooth="yes"/>
      <point x="587.583" y="387"/>
      <point x="547.203" y="409.49"/>
      <point x="517" y="425" type="curve" smooth="yes"/>
      <point x="480" y="444"/>
      <point x="408.361" y="466"/>
    </contour>
  </outline>
</glyph>
<glyph name="sinvocalicRr" format="1">
  <advance width="1703" height="1703"/>
  <unicode hex="0D8E"/>
  <outline>
    <contour>
      <point x="439.52" y="103.24" type="curve"/>
      <point x="458" y="38.5596"/>
      <point x="538.52" y="-5"/>
      <point x="617.72" y="-5" type="curve" smooth="yes"/>
      <point x="725.96" y="-5"/>
      <point x="821" y="67.5996"/>
      <point x="821" y="206.2" type="curve" smooth="yes"/>
      <point x="821" y="308.781"/>
      <point x="760" y="417.52"/>
      <point x="654.68" y="417.52" type="curve" smooth="yes"/>
      <point x="642.8" y="417.52" type="line"/>
      <point x="654.68" y="429.4"/>
      <point x="659.96" y="447.88"/>
      <point x="659.96" y="466.36" type="curve" smooth="yes"/>
      <point x="659.96" y="482.2"/>
      <point x="657.32" y="498.04"/>
      <point x="650.72" y="511.24" type="curve" smooth="yes"/>
      <point x="646.76" y="519.16"/>
      <point x="642.8" y="525.76"/>
      <point x="626.96" y="525.76" type="curve" smooth="yes"/>
      <point x="613.76" y="525.76"/>
      <point x="604.52" y="516.52"/>
      <point x="604.52" y="505.96" type="curve" smooth="yes"/>
      <point x="604.52" y="503.32"/>
      <point x="604.744" y="502.101"/>
      <point x="605.84" y="499.36" type="curve" smooth="yes"/>
      <point x="611.12" y="486.16"/>
      <point x="612.44" y="475.6"/>
      <point x="612.44" y="466.36" type="curve" smooth="yes"/>
      <point x="612.44" y="447.88"/>
      <point x="603.199" y="436.001"/>
      <point x="592.64" y="429.4" type="curve" smooth="yes"/>
      <point x="582.08" y="422.8"/>
      <point x="562.098" y="417.072"/>
      <point x="541.16" y="412.24" type="curve" smooth="yes"/>
      <point x="520.643" y="407.505"/>
      <point x="512.826" y="396.514"/>
      <point x="516.08" y="380.24" type="curve" smooth="yes"/>
      <point x="518.728" y="367"/>
      <point x="530.735" y="361.94"/>
      <point x="546.44" y="364.08" type="curve" smooth="yes"/>
      <point x="575.48" y="368.04"/>
      <point x="586.04" y="376.6"/>
      <point x="626.96" y="376.6" type="curve" smooth="yes"/>
      <point x="716.72" y="376.6"/>
      <point x="773.48" y="301.627"/>
      <point x="773.48" y="206.2" type="curve" smooth="yes"/>
      <point x="773.48" y="101.92"/>
      <point x="700.88" y="42.5195"/>
      <point x="617.72" y="42.5195" type="curve" smooth="yes"/>
      <point x="518.72" y="42.5195"/>
      <point x="463.28" y="109.219"/>
      <point x="463.28" y="206.12" type="curve" smooth="yes"/>
      <point x="463.28" y="222.235"/>
      <point x="459.32" y="236.56"/>
      <point x="439.52" y="236.56" type="curve" smooth="yes"/>
      <point x="421.04" y="236.56"/>
      <point x="415.76" y="222.235"/>
      <point x="415.76" y="206.12" type="curve" smooth="yes"/>
      <point x="415.76" y="109.219"/>
      <point x="360.32" y="42.5195"/>
      <point x="261.32" y="42.5195" type="curve" smooth="yes"/>
      <point x="178.16" y="42.5195"/>
      <point x="105.56" y="101.92"/>
      <point x="105.56" y="206.2" type="curve" smooth="yes"/>
      <point x="105.56" y="301.627"/>
      <point x="163.64" y="374.6"/>
      <point x="252.08" y="374.6" type="curve" smooth="yes"/>
      <point x="287" y="374.6"/>
      <point x="310" y="371"/>
      <point x="332.6" y="363.08" type="curve" smooth="yes"/>
      <point x="345.08" y="358.706"/>
      <point x="356.673" y="365.884"/>
      <point x="361" y="378" type="curve" smooth="yes"/>
      <point x="366" y="392"/>
      <point x="356.42" y="403.342"/>
      <point x="337.88" y="410.24" type="curve" smooth="yes"/>
      <point x="281.12" y="431.36"/>
      <point x="261.32" y="443.24"/>
      <point x="261.32" y="468.32" type="curve" smooth="yes"/>
      <point x="261.32" y="484.16"/>
      <point x="277.16" y="494.72"/>
      <point x="294.32" y="494.72" type="curve" smooth="yes"/>
      <point x="296.96" y="494.72"/>
      <point x="300.971" y="493.918"/>
      <point x="303.56" y="493.4" type="curve" smooth="yes"/>
      <point x="336.56" y="486.8"/>
      <point x="351" y="462.48"/>
      <point x="391.32" y="462.48" type="curve" smooth="yes"/>
      <point x="404.52" y="462.48"/>
      <point x="413.12" y="473.04"/>
      <point x="413.12" y="484.92" type="curve" smooth="yes"/>
      <point x="413.12" y="497.48"/>
      <point x="403.2" y="507.36"/>
      <point x="391.32" y="507.36" type="curve" smooth="yes"/>
      <point x="358.32" y="507.36"/>
      <point x="343.16" y="538.28"/>
      <point x="291.68" y="538.28" type="curve" smooth="yes"/>
      <point x="241.52" y="538.28"/>
      <point x="215.12" y="506.6"/>
      <point x="215.12" y="473.6" type="curve" smooth="yes"/>
      <point x="215.12" y="447.2"/>
      <point x="228.32" y="427.4"/>
      <point x="242.84" y="415.52" type="curve"/>
      <point x="229.64" y="415.52" type="line" smooth="yes"/>
      <point x="126.68" y="415.52"/>
      <point x="58.04" y="321.256"/>
      <point x="58.04" y="206.2" type="curve" smooth="yes"/>
      <point x="58.04" y="67.5996"/>
      <point x="153.08" y="-5"/>
      <point x="261.32" y="-5" type="curve" smooth="yes"/>
      <point x="347.12" y="-5"/>
      <point x="417.08" y="39.8799"/>
    </contour>
    <component base="sinMatraRr" xOffset="804"/>
  </outline>
</glyph>
<glyph name="sinvocalicL" format="1">
  <advance width="948" height="948"/>
  <unicode hex="0D8F"/>
  <outline>
    <contour>
      <point x="351" y="490" type="curve" smooth="yes"/>
      <point x="383" y="490"/>
      <point x="392" y="467"/>
      <point x="430" y="467" type="curve" smooth="yes"/>
      <point x="443" y="467"/>
      <point x="450" y="478"/>
      <point x="450" y="490" type="curve" smooth="yes"/>
      <point x="450" y="501"/>
      <point x="443" y="512"/>
      <point x="430" y="512" type="curve" smooth="yes"/>
      <point x="402" y="512"/>
      <point x="386" y="532"/>
      <point x="337" y="537" type="curve" smooth="yes"/>
      <point x="176" y="553"/>
      <point x="75" y="451"/>
      <point x="59" y="288" type="curve" smooth="yes"/>
      <point x="39" y="86"/>
      <point x="129" y="0"/>
      <point x="192" y="0" type="curve" smooth="yes"/>
      <point x="205" y="0"/>
      <point x="213" y="7"/>
      <point x="214" y="17" type="curve" smooth="yes"/>
      <point x="215" y="27"/>
      <point x="211" y="34"/>
      <point x="193" y="38" type="curve" smooth="yes"/>
      <point x="134" y="52"/>
      <point x="91" y="138"/>
      <point x="99" y="268" type="curve" smooth="yes"/>
      <point x="109" y="430"/>
      <point x="211" y="503"/>
      <point x="283" y="496" type="curve"/>
      <point x="272" y="488"/>
      <point x="269" y="477"/>
      <point x="268" y="466" type="curve" smooth="yes"/>
      <point x="266" y="438"/>
      <point x="291" y="420"/>
      <point x="302" y="412" type="curve"/>
      <point x="301" y="412" type="line" smooth="yes"/>
      <point x="211" y="412"/>
      <point x="161" y="323"/>
      <point x="161" y="232" type="curve" smooth="yes"/>
      <point x="161" y="79"/>
      <point x="296" y="-12"/>
      <point x="472" y="-12" type="curve" smooth="yes"/>
      <point x="648" y="-12"/>
      <point x="783" y="79"/>
      <point x="783" y="232" type="curve" smooth="yes"/>
      <point x="783" y="326"/>
      <point x="732" y="418"/>
      <point x="644" y="418" type="curve"/>
      <point x="654" y="428"/>
      <point x="667" y="460"/>
      <point x="650" y="490" type="curve"/>
      <point x="752" y="506"/>
      <point x="832" y="406"/>
      <point x="845" y="273" type="curve" smooth="yes"/>
      <point x="857" y="158"/>
      <point x="816" y="64"/>
      <point x="752" y="38" type="curve" smooth="yes"/>
      <point x="741" y="33"/>
      <point x="732" y="26"/>
      <point x="733" y="16" type="curve" smooth="yes"/>
      <point x="734" y="6"/>
      <point x="740" y="-1"/>
      <point x="753" y="0" type="curve" smooth="yes"/>
      <point x="810" y="3"/>
      <point x="899" y="82"/>
      <point x="886" y="277" type="curve" smooth="yes"/>
      <point x="874" y="466"/>
      <point x="742" y="553"/>
      <point x="619" y="527" type="curve" smooth="yes"/>
      <point x="607" y="524"/>
      <point x="598" y="519"/>
      <point x="597" y="506" type="curve" smooth="yes"/>
      <point x="596" y="488"/>
      <point x="613" y="480"/>
      <point x="612" y="465" type="curve" smooth="yes"/>
      <point x="610" y="429"/>
      <point x="578" y="423"/>
      <point x="554" y="413" type="curve" smooth="yes"/>
      <point x="547" y="410"/>
      <point x="540" y="399"/>
      <point x="540" y="390" type="curve" smooth="yes"/>
      <point x="540" y="376"/>
      <point x="553" y="366"/>
      <point x="564" y="366" type="curve" smooth="yes"/>
      <point x="585" y="366"/>
      <point x="605" y="376"/>
      <point x="627" y="376" type="curve" smooth="yes"/>
      <point x="633" y="376" type="line" smooth="yes"/>
      <point x="699" y="376"/>
      <point x="735" y="311"/>
      <point x="735" y="232" type="curve" smooth="yes"/>
      <point x="735" y="105"/>
      <point x="620" y="36"/>
      <point x="472" y="36" type="curve" smooth="yes"/>
      <point x="324" y="36"/>
      <point x="208" y="105"/>
      <point x="208" y="232" type="curve" smooth="yes"/>
      <point x="208" y="307"/>
      <point x="244" y="370"/>
      <point x="311" y="370" type="curve" smooth="yes"/>
      <point x="317" y="370" type="line" smooth="yes"/>
      <point x="351" y="370"/>
      <point x="400" y="353"/>
      <point x="404" y="382" type="curve" smooth="yes"/>
      <point x="406" y="398"/>
      <point x="398" y="407"/>
      <point x="376" y="413" type="curve" smooth="yes"/>
      <point x="338" y="424"/>
      <point x="319" y="439"/>
      <point x="319" y="463" type="curve" smooth="yes"/>
      <point x="319" y="479"/>
      <point x="334" y="490"/>
    </contour>
  </outline>
</glyph>
<glyph name="sinE" format="1">
  <advance width="745" height="745"/>
  <unicode hex="0D91"/>
  <outline>
    <contour>
      <point x="133" y="419" type="curve" smooth="yes"/>
      <point x="169" y="419"/>
      <point x="205" y="413"/>
      <point x="233" y="400" type="curve"/>
      <point x="221" y="415"/>
      <point x="216" y="430"/>
      <point x="216" y="445" type="curve" smooth="yes"/>
      <point x="216" y="476.403"/>
      <point x="239.636" y="504"/>
      <point x="281" y="504" type="curve" smooth="yes"/>
      <point x="331" y="504"/>
      <point x="349" y="469"/>
      <point x="372" y="469" type="curve" smooth="yes"/>
      <point x="384" y="469"/>
      <point x="392" y="457"/>
      <point x="391" y="447" type="curve" smooth="yes"/>
      <point x="389.706" y="434.065"/>
      <point x="382" y="427"/>
      <point x="366" y="427" type="curve" smooth="yes"/>
      <point x="332" y="427"/>
      <point x="322" y="459"/>
      <point x="293" y="459" type="curve" smooth="yes"/>
      <point x="275.581" y="459"/>
      <point x="263" y="451.08"/>
      <point x="263" y="437" type="curve" smooth="yes"/>
      <point x="263" y="415"/>
      <point x="287" y="399"/>
      <point x="327" y="384" type="curve" smooth="yes"/>
      <point x="340.92" y="378.78"/>
      <point x="348" y="371"/>
      <point x="348" y="359" type="curve" smooth="yes"/>
      <point x="348" y="343"/>
      <point x="337" y="339"/>
      <point x="324" y="339" type="curve" smooth="yes"/>
      <point x="301" y="339"/>
      <point x="283" y="346"/>
      <point x="262" y="346" type="curve" smooth="yes"/>
      <point x="255" y="346" type="line" smooth="yes"/>
      <point x="193.929" y="346"/>
      <point x="152" y="278.679"/>
      <point x="152" y="201" type="curve" smooth="yes"/>
      <point x="152" y="101.047"/>
      <point x="243" y="37"/>
      <point x="391" y="37" type="curve" smooth="yes"/>
      <point x="542" y="37"/>
      <point x="638" y="143.56"/>
      <point x="638" y="279" type="curve" smooth="yes"/>
      <point x="638" y="385"/>
      <point x="568.774" y="506.832"/>
      <point x="527" y="553" type="curve"/>
      <point x="502" y="527.164"/>
      <point x="457" y="504"/>
      <point x="404" y="504" type="curve" smooth="yes"/>
      <point x="344.073" y="504"/>
      <point x="287" y="542.95"/>
      <point x="287" y="618" type="curve" smooth="yes"/>
      <point x="287" y="646"/>
      <point x="294.258" y="676"/>
      <point x="312" y="705" type="curve" smooth="yes"/>
      <point x="328.387" y="731.785"/>
      <point x="341" y="742"/>
      <point x="359" y="761" type="curve"/>
      <point x="355.135" y="766.412"/>
      <point x="334.564" y="785.804"/>
      <point x="354" y="802" type="curve" smooth="yes"/>
      <point x="362.759" y="809.299"/>
      <point x="377.255" y="808.22"/>
      <point x="385" y="799" type="curve" smooth="yes"/>
      <point x="469" y="699"/>
      <point x="685" y="468"/>
      <point x="685" y="279" type="curve" smooth="yes"/>
      <point x="685" y="107.589"/>
      <point x="579" y="-12"/>
      <point x="391" y="-12" type="curve" smooth="yes"/>
      <point x="215" y="-12"/>
      <point x="104" y="67.1422"/>
      <point x="104" y="201" type="curve" smooth="yes"/>
      <point x="104" y="318.413"/>
      <point x="167.204" y="368.88"/>
      <point x="197" y="373" type="curve"/>
      <point x="184" y="376"/>
      <point x="173" y="375"/>
      <point x="162" y="375" type="curve" smooth="yes"/>
      <point x="128" y="375"/>
      <point x="108" y="368"/>
      <point x="88" y="363" type="curve" smooth="yes"/>
      <point x="84" y="362"/>
      <point x="81" y="362"/>
      <point x="78" y="362" type="curve" smooth="yes"/>
      <point x="61" y="362"/>
      <point x="52" y="375"/>
      <point x="52" y="388" type="curve" smooth="yes"/>
      <point x="52" y="417.638"/>
      <point x="100.403" y="419"/>
    </contour>
    <contour>
      <point x="331" y="618" type="curve" smooth="yes"/>
      <point x="331" y="568.101"/>
      <point x="366.15" y="545"/>
      <point x="405" y="545" type="curve" smooth="yes"/>
      <point x="445.554" y="545"/>
      <point x="485.775" y="570.407"/>
      <point x="496" y="594" type="curve"/>
      <point x="478" y="621"/>
      <point x="423" y="692"/>
      <point x="392" y="724" type="curve"/>
      <point x="363.776" y="706"/>
      <point x="331" y="666"/>
    </contour>
  </outline>
</glyph>
<glyph name="sinEe" format="1">
  <advance width="744" height="744"/>
  <unicode hex="0D92"/>
  <outline>
    <contour>
      <point x="475.87" y="936" type="curve" smooth="yes"/>
      <point x="475.87" y="955.08"/>
      <point x="481.186" y="971.38"/>
      <point x="500.984" y="971.38" type="curve" smooth="yes"/>
      <point x="517.302" y="971.38"/>
      <point x="525" y="958.232"/>
      <point x="525" y="941" type="curve"/>
      <point x="533" y="935"/>
      <point x="541" y="933"/>
      <point x="551" y="933" type="curve" smooth="yes"/>
      <point x="592" y="933"/>
      <point x="612" y="957"/>
      <point x="649" y="957" type="curve" smooth="yes"/>
      <point x="685" y="957"/>
      <point x="729" y="929"/>
      <point x="729" y="866" type="curve" smooth="yes"/>
      <point x="729" y="788"/>
      <point x="676" y="725"/>
      <point x="604" y="725" type="curve" smooth="yes"/>
      <point x="569" y="725"/>
      <point x="543" y="737"/>
      <point x="522" y="752" type="curve"/>
      <point x="522" y="752"/>
      <point x="522" y="730.036"/>
      <point x="522" y="716" type="curve" smooth="yes"/>
      <point x="522" y="635.898"/>
      <point x="541.581" y="620.277"/>
      <point x="561" y="577" type="curve" smooth="yes"/>
      <point x="573.115" y="550"/>
      <point x="489.121" y="607"/>
      <point x="484" y="622" type="curve" smooth="yes"/>
      <point x="480.632" y="631.866"/>
      <point x="476" y="727.835"/>
      <point x="476" y="796" type="curve" smooth="yes"/>
      <point x="476" y="823.312"/>
      <point x="476" y="844.223"/>
      <point x="476" y="863" type="curve"/>
      <point x="475.935" y="888.623"/>
      <point x="475.87" y="910"/>
    </contour>
    <contour>
      <point x="635" y="909" type="curve" smooth="yes"/>
      <point x="602.79" y="909"/>
      <point x="587.296" y="888.562"/>
      <point x="555.219" y="888.562" type="curve" smooth="yes"/>
      <point x="540.875" y="888.562"/>
      <point x="530.75" y="892.5"/>
      <point x="524" y="897" type="curve"/>
      <point x="523" y="866"/>
      <point x="523" y="834"/>
      <point x="523" y="802" type="curve"/>
      <point x="538" y="787"/>
      <point x="563" y="771"/>
      <point x="598" y="771" type="curve" smooth="yes"/>
      <point x="648" y="771"/>
      <point x="678" y="809"/>
      <point x="678" y="859" type="curve" smooth="yes"/>
      <point x="678" y="898"/>
      <point x="657" y="909"/>
    </contour>
    <component base="sinE"/>
  </outline>
</glyph>
<glyph name="sinO" format="1">
  <advance width="801" height="801"/>
  <unicode hex="0D94"/>
  <outline>
    <contour>
      <point x="253" y="389" type="curve" smooth="yes"/>
      <point x="253" y="351"/>
      <point x="285" y="321"/>
      <point x="323" y="321" type="curve" smooth="yes"/>
      <point x="360" y="321"/>
      <point x="392" y="351"/>
      <point x="392" y="389" type="curve" smooth="yes"/>
      <point x="392" y="427"/>
      <point x="360" y="459"/>
      <point x="323" y="459" type="curve" smooth="yes"/>
      <point x="285" y="459"/>
      <point x="253" y="427"/>
    </contour>
    <contour>
      <point x="400" y="102" type="curve"/>
      <point x="382" y="39"/>
      <point x="325" y="-6"/>
      <point x="256" y="-6" type="curve" smooth="yes"/>
      <point x="128" y="-6"/>
      <point x="42" y="97"/>
      <point x="56" y="279" type="curve" smooth="yes"/>
      <point x="67" y="437"/>
      <point x="170" y="522"/>
      <point x="277" y="522" type="curve" smooth="yes"/>
      <point x="342" y="522"/>
      <point x="415" y="489"/>
      <point x="438" y="417" type="curve" smooth="yes"/>
      <point x="441" y="409"/>
      <point x="442" y="399"/>
      <point x="442" y="390" type="curve" smooth="yes"/>
      <point x="442" y="326"/>
      <point x="388" y="273"/>
      <point x="323" y="273" type="curve" smooth="yes"/>
      <point x="258" y="273"/>
      <point x="206" y="326"/>
      <point x="206" y="389" type="curve" smooth="yes"/>
      <point x="206" y="425"/>
      <point x="223" y="454"/>
      <point x="248" y="474" type="curve"/>
      <point x="174" y="459"/>
      <point x="112" y="380"/>
      <point x="104" y="279" type="curve" smooth="yes"/>
      <point x="90" y="131"/>
      <point x="147" y="42"/>
      <point x="256" y="42" type="curve" smooth="yes"/>
      <point x="316" y="42"/>
      <point x="377" y="102"/>
      <point x="377" y="186" type="curve" smooth="yes"/>
      <point x="377" y="219" type="line" smooth="yes"/>
      <point x="377" y="232"/>
      <point x="388" y="236"/>
      <point x="399" y="236" type="curve" smooth="yes"/>
      <point x="407" y="236"/>
      <point x="415" y="231"/>
      <point x="420" y="224" type="curve" smooth="yes"/>
      <point x="438" y="199"/>
      <point x="423" y="166"/>
      <point x="437" y="126" type="curve" smooth="yes"/>
      <point x="454" y="77"/>
      <point x="503" y="39"/>
      <point x="559" y="42" type="curve" smooth="yes"/>
      <point x="653" y="47"/>
      <point x="703" y="132"/>
      <point x="692" y="301" type="curve" smooth="yes"/>
      <point x="675" y="567.619"/>
      <point x="482" y="743"/>
      <point x="255" y="743" type="curve" smooth="yes"/>
      <point x="202" y="743"/>
      <point x="147" y="733"/>
      <point x="94" y="715" type="curve" smooth="yes"/>
      <point x="90" y="714"/>
      <point x="86" y="713"/>
      <point x="82" y="713" type="curve" smooth="yes"/>
      <point x="67" y="713"/>
      <point x="58" y="724"/>
      <point x="58" y="736" type="curve" smooth="yes"/>
      <point x="58" y="747"/>
      <point x="63" y="756"/>
      <point x="78" y="761" type="curve" smooth="yes"/>
      <point x="134" y="782"/>
      <point x="194" y="790"/>
      <point x="252" y="790" type="curve" smooth="yes"/>
      <point x="503" y="790"/>
      <point x="724" y="597.64"/>
      <point x="741" y="301" type="curve" smooth="yes"/>
      <point x="752" y="114"/>
      <point x="685" y="1"/>
      <point x="559" y="-6" type="curve" smooth="yes"/>
      <point x="489" y="-10"/>
      <point x="417" y="37"/>
    </contour>
  </outline>
</glyph>
<glyph name="sinOo" format="1">
  <advance width="770" height="770"/>
  <unicode hex="0D95"/>
  <outline>
    <contour>
      <point x="253" y="390" type="curve" smooth="yes"/>
      <point x="253" y="352"/>
      <point x="285" y="322"/>
      <point x="323" y="322" type="curve" smooth="yes"/>
      <point x="360" y="322"/>
      <point x="392" y="352"/>
      <point x="392" y="390" type="curve" smooth="yes"/>
      <point x="392" y="428"/>
      <point x="360" y="460"/>
      <point x="323" y="460" type="curve" smooth="yes"/>
      <point x="285" y="460"/>
      <point x="253" y="428"/>
    </contour>
    <contour>
      <point x="692.28" y="292" type="curve" smooth="yes"/>
      <point x="684.544" y="563"/>
      <point x="493.05" y="756.52"/>
      <point x="266" y="756.52" type="curve" smooth="yes"/>
      <point x="211.88" y="756.52"/>
      <point x="159.232" y="742.36"/>
      <point x="104.96" y="728.8" type="curve" smooth="yes"/>
      <point x="99.6797" y="727.48"/>
      <point x="95.7197" y="727.48"/>
      <point x="93.0801" y="727.48" type="curve" smooth="yes"/>
      <point x="77.2402" y="727.48"/>
      <point x="68" y="738.04"/>
      <point x="68" y="749.92" type="curve" smooth="yes"/>
      <point x="68" y="760.48"/>
      <point x="75.0836" y="768.642"/>
      <point x="87.7998" y="775" type="curve" smooth="yes"/>
      <point x="130.04" y="796.12"/>
      <point x="143.24" y="813.28"/>
      <point x="143.24" y="850.24" type="curve" smooth="yes"/>
      <point x="143.24" y="879.28"/>
      <point x="123.44" y="903.04"/>
      <point x="90.4404" y="903.04" type="curve" smooth="yes"/>
      <point x="73.2803" y="903.04"/>
      <point x="64.04" y="914.92"/>
      <point x="64.04" y="926.8" type="curve" smooth="yes"/>
      <point x="64.04" y="940"/>
      <point x="75.9199" y="954.52"/>
      <point x="102.32" y="954.52" type="curve" smooth="yes"/>
      <point x="126.08" y="954.52"/>
      <point x="173.6" y="962.44"/>
      <point x="227.72" y="962.44" type="curve" smooth="yes"/>
      <point x="332" y="962.44"/>
      <point x="464" y="929.489"/>
      <point x="524.72" y="729.04" type="curve"/>
      <point x="652.303" y="635.918"/>
      <point x="728.412" y="486.237"/>
      <point x="741" y="292" type="curve" smooth="yes"/>
      <point x="749.594" y="156.965"/>
      <point x="684.976" y="2.19865"/>
      <point x="559" y="-5" type="curve" smooth="yes"/>
      <point x="489" y="-9"/>
      <point x="417" y="38"/>
      <point x="400" y="103" type="curve"/>
      <point x="382" y="40"/>
      <point x="325" y="-5"/>
      <point x="256" y="-5" type="curve" smooth="yes"/>
      <point x="128" y="-5"/>
      <point x="43.3224" y="97.9031"/>
      <point x="56" y="280" type="curve" smooth="yes"/>
      <point x="67" y="438"/>
      <point x="170" y="523"/>
      <point x="277" y="523" type="curve" smooth="yes"/>
      <point x="342" y="523"/>
      <point x="411.461" y="488.772"/>
      <point x="438" y="418" type="curve" smooth="yes"/>
      <point x="441" y="410"/>
      <point x="442" y="400"/>
      <point x="442" y="391" type="curve" smooth="yes"/>
      <point x="442" y="327"/>
      <point x="388" y="274"/>
      <point x="323" y="274" type="curve" smooth="yes"/>
      <point x="258" y="274"/>
      <point x="206" y="327"/>
      <point x="206" y="390" type="curve" smooth="yes"/>
      <point x="206" y="426"/>
      <point x="223" y="455"/>
      <point x="248" y="475" type="curve"/>
      <point x="174" y="460"/>
      <point x="113.541" y="380.866"/>
      <point x="104" y="280" type="curve" smooth="yes"/>
      <point x="90" y="132"/>
      <point x="147" y="43"/>
      <point x="256" y="43" type="curve" smooth="yes"/>
      <point x="316" y="43"/>
      <point x="377" y="103"/>
      <point x="377" y="187" type="curve" smooth="yes"/>
      <point x="377" y="220" type="line" smooth="yes"/>
      <point x="377" y="233"/>
      <point x="388" y="237"/>
      <point x="399" y="237" type="curve" smooth="yes"/>
      <point x="407" y="237"/>
      <point x="414.974" y="231.981"/>
      <point x="420" y="225" type="curve" smooth="yes"/>
      <point x="438" y="200"/>
      <point x="423.109" y="167.038"/>
      <point x="437" y="127" type="curve" smooth="yes"/>
      <point x="454" y="78"/>
      <point x="502.993" y="40.1419"/>
      <point x="559" y="43" type="curve" smooth="yes"/>
      <point x="653.198" y="47.8069"/>
      <point x="695.418" y="182.089"/>
    </contour>
    <contour>
      <point x="264.36" y="804.04" type="curve" smooth="yes"/>
      <point x="335.64" y="804.04"/>
      <point x="405.6" y="789.52"/>
      <point x="470.28" y="764.44" type="curve"/>
      <point x="439.92" y="829.12"/>
      <point x="363.36" y="912.28"/>
      <point x="236.64" y="912.28" type="curve" smooth="yes"/>
      <point x="215.52" y="912.28"/>
      <point x="191.76" y="908.32"/>
      <point x="166.68" y="903.04" type="curve"/>
      <point x="185.16" y="884.56"/>
      <point x="193.08" y="859.48"/>
      <point x="193.08" y="837.04" type="curve" smooth="yes"/>
      <point x="193.08" y="823.84"/>
      <point x="190.44" y="809.32"/>
      <point x="182.52" y="798.76" type="curve"/>
      <point x="210.24" y="802.72"/>
      <point x="237.96" y="804.04"/>
    </contour>
  </outline>
</glyph>
<glyph name="sinAu" format="1">
  <advance width="1221" height="1221"/>
  <unicode hex="0D96"/>
  <outline>
    <contour>
      <point x="384.12" y="376.2" type="move"/>
    </contour>
    <component base="sinO"/>
    <component base="sinMatraL" xOffset="731"/>
  </outline>
</glyph>
<glyph name="sinKa" format="1">
  <advance width="925" height="925"/>
  <unicode hex="0D9A"/>
  <outline>
    <contour>
      <point x="111" y="197" type="curve"/>
      <point x="114" y="95"/>
      <point x="173" y="38"/>
      <point x="219" y="38" type="curve" smooth="yes"/>
      <point x="285" y="38"/>
      <point x="307" y="87"/>
      <point x="307" y="140" type="curve" smooth="yes"/>
      <point x="307" y="157"/>
      <point x="309" y="178"/>
      <point x="331" y="178" type="curve" smooth="yes"/>
      <point x="353" y="178"/>
      <point x="355" y="157"/>
      <point x="355" y="140" type="curve" smooth="yes"/>
      <point x="355" y="97"/>
      <point x="384" y="40"/>
      <point x="454" y="40" type="curve" smooth="yes"/>
      <point x="520" y="40"/>
      <point x="562" y="108"/>
      <point x="558" y="179" type="curve" smooth="yes"/>
      <point x="552" y="304"/>
      <point x="486" y="369"/>
      <point x="391" y="373" type="curve" smooth="yes"/>
      <point x="348" y="375"/>
      <point x="265" y="365"/>
      <point x="217" y="327" type="curve" smooth="yes"/>
      <point x="184" y="300"/>
      <point x="140" y="242"/>
    </contour>
    <contour>
      <point x="607" y="182" type="curve" smooth="yes"/>
      <point x="614" y="70"/>
      <point x="552" y="-8"/>
      <point x="454" y="-8" type="curve" smooth="yes"/>
      <point x="393" y="-8"/>
      <point x="340" y="32"/>
      <point x="331" y="78" type="curve"/>
      <point x="322" y="32"/>
      <point x="281" y="-8"/>
      <point x="219" y="-8" type="curve" smooth="yes"/>
      <point x="152" y="-8"/>
      <point x="78" y="48"/>
      <point x="56" y="197" type="curve"/>
      <point x="90" y="260"/>
      <point x="148" y="330"/>
      <point x="194" y="374" type="curve" smooth="yes"/>
      <point x="228" y="407"/>
      <point x="244" y="426"/>
      <point x="242" y="444" type="curve" smooth="yes"/>
      <point x="238" y="481"/>
      <point x="214" y="494"/>
      <point x="181" y="494" type="curve" smooth="yes"/>
      <point x="140" y="494"/>
      <point x="108" y="463"/>
      <point x="106" y="431" type="curve" smooth="yes"/>
      <point x="105" y="421"/>
      <point x="105" y="410"/>
      <point x="108" y="405" type="curve" smooth="yes"/>
      <point x="111" y="400"/>
      <point x="109" y="386"/>
      <point x="101" y="382" type="curve" smooth="yes"/>
      <point x="64" y="364"/>
      <point x="52" y="413"/>
      <point x="59" y="445" type="curve" smooth="yes"/>
      <point x="73" y="511"/>
      <point x="126" y="538"/>
      <point x="181" y="538" type="curve" smooth="yes"/>
      <point x="243" y="538"/>
      <point x="285" y="509"/>
      <point x="285" y="448" type="curve"/>
      <point x="319" y="478"/>
      <point x="403" y="534"/>
      <point x="551" y="531" type="curve" smooth="yes"/>
      <point x="766" y="527"/>
      <point x="865" y="347"/>
      <point x="865" y="200" type="curve" smooth="yes"/>
      <point x="865" y="72"/>
      <point x="797" y="5"/>
      <point x="714" y="-2" type="curve" smooth="yes"/>
      <point x="654" y="-7"/>
      <point x="630" y="1"/>
      <point x="606" y="15" type="curve" smooth="yes"/>
      <point x="577" y="32"/>
      <point x="602" y="73"/>
      <point x="627" y="57" type="curve" smooth="yes"/>
      <point x="641" y="47"/>
      <point x="667" y="42"/>
      <point x="705" y="45" type="curve" smooth="yes"/>
      <point x="772" y="51"/>
      <point x="819" y="106"/>
      <point x="819" y="200" type="curve" smooth="yes"/>
      <point x="819" y="321"/>
      <point x="737" y="480"/>
      <point x="551" y="483" type="curve" smooth="yes"/>
      <point x="421" y="485"/>
      <point x="350" y="438"/>
      <point x="318" y="412" type="curve"/>
      <point x="342" y="416"/>
      <point x="377" y="422"/>
      <point x="407" y="418" type="curve" smooth="yes"/>
      <point x="521" y="404"/>
      <point x="599" y="323"/>
    </contour>
  </outline>
</glyph>
<glyph name="sinKha" format="1">
  <advance width="835" height="835"/>
  <unicode hex="0D9B"/>
  <outline>
    <contour>
      <point x="412" y="13" type="curve" smooth="yes"/>
      <point x="412" y="46"/>
      <point x="428" y="66"/>
      <point x="445" y="66" type="curve" smooth="yes"/>
      <point x="511" y="66"/>
      <point x="514" y="0"/>
      <point x="595" y="0" type="curve" smooth="yes"/>
      <point x="687" y="0"/>
      <point x="773" y="81"/>
      <point x="773" y="296" type="curve" smooth="yes"/>
      <point x="773" y="589"/>
      <point x="554" y="793"/>
      <point x="279" y="793" type="curve" smooth="yes"/>
      <point x="214" y="793"/>
      <point x="149" y="783"/>
      <point x="80" y="759" type="curve" smooth="yes"/>
      <point x="65" y="754"/>
      <point x="60" y="743"/>
      <point x="60" y="734" type="curve" smooth="yes"/>
      <point x="60" y="722"/>
      <point x="69" y="710"/>
      <point x="84" y="710" type="curve" smooth="yes"/>
      <point x="88" y="710"/>
      <point x="92" y="712"/>
      <point x="96" y="713" type="curve" smooth="yes"/>
      <point x="161" y="734"/>
      <point x="223" y="744"/>
      <point x="282" y="744" type="curve" smooth="yes"/>
      <point x="533" y="744"/>
      <point x="724" y="560"/>
      <point x="724" y="296" type="curve" smooth="yes"/>
      <point x="724" y="139"/>
      <point x="669" y="48"/>
      <point x="595" y="48" type="curve" smooth="yes"/>
      <point x="540" y="48"/>
      <point x="515" y="107"/>
      <point x="457" y="107" type="curve" smooth="yes"/>
      <point x="449" y="107"/>
      <point x="440" y="106"/>
      <point x="431" y="103" type="curve"/>
      <point x="443" y="169"/>
      <point x="494" y="214"/>
      <point x="494" y="326" type="curve" smooth="yes"/>
      <point x="494" y="425"/>
      <point x="403" y="496"/>
      <point x="300" y="496" type="curve" smooth="yes"/>
      <point x="169" y="496"/>
      <point x="73" y="386"/>
      <point x="73" y="226" type="curve" smooth="yes"/>
      <point x="73" y="152"/>
      <point x="83" y="0"/>
      <point x="224" y="0" type="curve" smooth="yes"/>
      <point x="299" y="0"/>
      <point x="329" y="57"/>
      <point x="329" y="119" type="curve" smooth="yes"/>
      <point x="329" y="190"/>
      <point x="279" y="242"/>
      <point x="224" y="242" type="curve" smooth="yes"/>
      <point x="175" y="242"/>
      <point x="131" y="203"/>
      <point x="119" y="182" type="curve"/>
      <point x="116" y="195"/>
      <point x="115" y="210"/>
      <point x="115" y="227" type="curve" smooth="yes"/>
      <point x="115" y="319"/>
      <point x="160" y="449"/>
      <point x="300" y="449" type="curve" smooth="yes"/>
      <point x="377" y="449"/>
      <point x="447" y="400"/>
      <point x="447" y="326" type="curve" smooth="yes"/>
      <point x="447" y="190"/>
      <point x="364" y="173"/>
      <point x="364" y="16" type="curve" smooth="yes"/>
      <point x="364" y="-2"/>
      <point x="377" y="-13"/>
      <point x="390" y="-13" type="curve" smooth="yes"/>
      <point x="402" y="-13"/>
      <point x="412" y="-5"/>
    </contour>
    <contour>
      <point x="145" y="119" type="curve" smooth="yes"/>
      <point x="145" y="159"/>
      <point x="176" y="189"/>
      <point x="214" y="189" type="curve" smooth="yes"/>
      <point x="252" y="189"/>
      <point x="284" y="159"/>
      <point x="284" y="119" type="curve" smooth="yes"/>
      <point x="284" y="81"/>
      <point x="252" y="49"/>
      <point x="214" y="49" type="curve" smooth="yes"/>
      <point x="176" y="49"/>
      <point x="145" y="81"/>
    </contour>
  </outline>
</glyph>
<glyph name="sinGa" format="1">
  <advance width="870" height="870"/>
  <unicode hex="0D9C"/>
  <outline>
    <contour>
      <point x="492" y="40" type="curve" smooth="yes"/>
      <point x="492" y="3.01465"/>
      <point x="573.561" y="-5"/>
      <point x="605" y="-5" type="curve" smooth="yes"/>
      <point x="723" y="-5"/>
      <point x="811" y="108"/>
      <point x="811" y="264" type="curve" smooth="yes"/>
      <point x="811" y="455"/>
      <point x="691" y="532"/>
      <point x="586" y="532" type="curve" smooth="yes"/>
      <point x="459" y="532"/>
      <point x="349" y="435"/>
      <point x="347" y="256" type="curve" smooth="yes"/>
      <point x="347" y="245"/>
      <point x="351" y="239"/>
      <point x="364" y="239" type="curve" smooth="yes"/>
      <point x="375" y="239"/>
      <point x="387" y="241"/>
      <point x="396" y="241" type="curve" smooth="yes"/>
      <point x="438" y="241"/>
      <point x="455" y="211"/>
      <point x="455" y="169" type="curve" smooth="yes"/>
      <point x="455" y="114"/>
      <point x="403" y="43"/>
      <point x="303" y="43" type="curve" smooth="yes"/>
      <point x="197" y="43"/>
      <point x="104" y="114"/>
      <point x="104" y="268" type="curve" smooth="yes"/>
      <point x="104" y="407"/>
      <point x="196" y="484"/>
      <point x="286" y="484" type="curve" smooth="yes"/>
      <point x="310" y="484"/>
      <point x="341" y="478"/>
      <point x="357" y="468" type="curve" smooth="yes"/>
      <point x="388.324" y="448.724"/>
      <point x="410.138" y="494.197"/>
      <point x="383" y="509" type="curve" smooth="yes"/>
      <point x="350" y="527"/>
      <point x="319" y="532"/>
      <point x="286" y="532" type="curve" smooth="yes"/>
      <point x="165" y="532"/>
      <point x="56" y="422"/>
      <point x="56" y="268" type="curve" smooth="yes"/>
      <point x="56" y="74"/>
      <point x="178" y="-5"/>
      <point x="303" y="-5" type="curve" smooth="yes"/>
      <point x="446" y="-5"/>
      <point x="503" y="94"/>
      <point x="503" y="173" type="curve" smooth="yes"/>
      <point x="503" y="235"/>
      <point x="471" y="285"/>
      <point x="412" y="285" type="curve" smooth="yes"/>
      <point x="407" y="285"/>
      <point x="401" y="284"/>
      <point x="394" y="284" type="curve"/>
      <point x="405" y="394"/>
      <point x="476" y="484"/>
      <point x="586" y="484" type="curve" smooth="yes"/>
      <point x="668" y="484"/>
      <point x="763" y="416"/>
      <point x="763" y="264" type="curve" smooth="yes"/>
      <point x="763" y="123"/>
      <point x="690" y="43"/>
      <point x="605" y="43" type="curve" smooth="yes"/>
      <point x="579" y="43"/>
      <point x="552" y="48"/>
      <point x="529" y="57" type="curve" smooth="yes"/>
      <point x="513" y="64"/>
      <point x="492" y="60"/>
    </contour>
  </outline>
</glyph>
<glyph name="sinGha" format="1">
  <advance width="887" height="887"/>
  <unicode hex="0D9D"/>
  <outline>
    <contour>
      <point x="137" y="450" type="curve" smooth="yes"/>
      <point x="104" y="450"/>
      <point x="56" y="449"/>
      <point x="56" y="419" type="curve" smooth="yes"/>
      <point x="56" y="406"/>
      <point x="65" y="394"/>
      <point x="82" y="394" type="curve" smooth="yes"/>
      <point x="92" y="394" type="line"/>
      <point x="112" y="399"/>
      <point x="132" y="406"/>
      <point x="166" y="406" type="curve" smooth="yes"/>
      <point x="177" y="406"/>
      <point x="188" y="406"/>
      <point x="201" y="405" type="curve"/>
      <point x="153" y="405"/>
      <point x="63" y="336"/>
      <point x="63" y="207" type="curve" smooth="yes"/>
      <point x="63" y="68"/>
      <point x="159" y="-4"/>
      <point x="267" y="-4" type="curve" smooth="yes"/>
      <point x="366" y="-4"/>
      <point x="401" y="41"/>
      <point x="401" y="70" type="curve" smooth="yes"/>
      <point x="401" y="107"/>
      <point x="375" y="116"/>
      <point x="375" y="162" type="curve" smooth="yes"/>
      <point x="375" y="200"/>
      <point x="404" y="230"/>
      <point x="445" y="230" type="curve" smooth="yes"/>
      <point x="486" y="230"/>
      <point x="515" y="200"/>
      <point x="515" y="162" type="curve" smooth="yes"/>
      <point x="515" y="116"/>
      <point x="490" y="107"/>
      <point x="490" y="70" type="curve" smooth="yes"/>
      <point x="490" y="41"/>
      <point x="525" y="-4"/>
      <point x="624" y="-4" type="curve" smooth="yes"/>
      <point x="732" y="-4"/>
      <point x="827" y="68"/>
      <point x="827" y="207" type="curve" smooth="yes"/>
      <point x="827" y="305"/>
      <point x="764" y="417"/>
      <point x="661" y="417" type="curve" smooth="yes"/>
      <point x="649" y="417" type="line"/>
      <point x="661" y="429"/>
      <point x="666" y="447"/>
      <point x="666" y="465" type="curve" smooth="yes"/>
      <point x="666" y="490"/>
      <point x="661" y="525"/>
      <point x="633" y="525" type="curve" smooth="yes"/>
      <point x="620" y="525"/>
      <point x="610" y="516"/>
      <point x="610" y="505" type="curve" smooth="yes"/>
      <point x="610" y="502"/>
      <point x="611" y="501"/>
      <point x="612" y="498" type="curve" smooth="yes"/>
      <point x="617" y="485"/>
      <point x="618" y="474"/>
      <point x="618" y="465" type="curve" smooth="yes"/>
      <point x="618" y="426"/>
      <point x="583" y="418"/>
      <point x="547" y="411" type="curve" smooth="yes"/>
      <point x="530" y="407"/>
      <point x="521" y="397"/>
      <point x="521" y="385" type="curve" smooth="yes"/>
      <point x="521" y="378" type="line"/>
      <point x="525" y="365"/>
      <point x="532" y="360"/>
      <point x="544" y="360" type="curve" smooth="yes"/>
      <point x="577" y="360"/>
      <point x="589" y="376"/>
      <point x="633" y="376" type="curve" smooth="yes"/>
      <point x="721" y="376"/>
      <point x="779" y="297"/>
      <point x="779" y="207" type="curve" smooth="yes"/>
      <point x="779" y="103"/>
      <point x="707" y="44"/>
      <point x="624" y="44" type="curve" smooth="yes"/>
      <point x="583" y="44"/>
      <point x="538" y="55"/>
      <point x="538" y="77" type="curve" smooth="yes"/>
      <point x="538" y="98"/>
      <point x="556" y="114"/>
      <point x="556" y="162" type="curve" smooth="yes"/>
      <point x="556" y="220"/>
      <point x="504" y="272"/>
      <point x="445" y="272" type="curve" smooth="yes"/>
      <point x="386" y="272"/>
      <point x="333" y="220"/>
      <point x="333" y="162" type="curve" smooth="yes"/>
      <point x="333" y="114"/>
      <point x="353" y="98"/>
      <point x="353" y="77" type="curve" smooth="yes"/>
      <point x="353" y="55"/>
      <point x="308" y="44"/>
      <point x="267" y="44" type="curve" smooth="yes"/>
      <point x="184" y="44"/>
      <point x="110" y="103"/>
      <point x="110" y="207" type="curve" smooth="yes"/>
      <point x="110" y="297"/>
      <point x="168" y="376"/>
      <point x="258" y="376" type="curve" smooth="yes"/>
      <point x="303" y="376"/>
      <point x="312" y="360"/>
      <point x="346" y="360" type="curve" smooth="yes"/>
      <point x="359" y="360"/>
      <point x="370" y="369"/>
      <point x="370" y="385" type="curve" smooth="yes"/>
      <point x="370" y="396"/>
      <point x="361" y="404"/>
      <point x="344" y="411" type="curve" smooth="yes"/>
      <point x="287" y="432"/>
      <point x="267" y="444"/>
      <point x="267" y="469" type="curve" smooth="yes"/>
      <point x="267" y="485"/>
      <point x="282" y="496"/>
      <point x="300" y="496" type="curve" smooth="yes"/>
      <point x="303" y="496"/>
      <point x="305" y="494"/>
      <point x="308" y="494" type="curve" smooth="yes"/>
      <point x="341" y="487"/>
      <point x="354" y="453"/>
      <point x="399" y="453" type="curve" smooth="yes"/>
      <point x="412" y="453"/>
      <point x="418" y="464"/>
      <point x="418" y="476" type="curve" smooth="yes"/>
      <point x="418" y="487"/>
      <point x="411" y="498"/>
      <point x="399" y="498" type="curve" smooth="yes"/>
      <point x="366" y="498"/>
      <point x="349" y="539"/>
      <point x="298" y="539" type="curve" smooth="yes"/>
      <point x="248" y="539"/>
      <point x="221" y="508"/>
      <point x="221" y="475" type="curve" smooth="yes"/>
      <point x="221" y="459"/>
      <point x="226" y="444"/>
      <point x="237" y="431" type="curve"/>
      <point x="209" y="444"/>
      <point x="173" y="450"/>
    </contour>
  </outline>
</glyph>
<glyph name="sinNga" format="1">
  <advance width="866" height="866"/>
  <unicode hex="0D9E"/>
  <outline>
    <contour>
      <point x="298" y="357" type="curve" smooth="yes"/>
      <point x="275.344" y="357"/>
      <point x="255.002" y="367"/>
      <point x="233" y="367" type="curve" smooth="yes"/>
      <point x="226" y="367" type="line"/>
      <point x="156" y="363"/>
      <point x="108" y="303"/>
      <point x="108" y="227" type="curve" smooth="yes"/>
      <point x="108" y="109"/>
      <point x="175" y="42"/>
      <point x="251" y="42" type="curve" smooth="yes"/>
      <point x="342" y="42"/>
      <point x="393" y="115"/>
      <point x="393" y="221" type="curve" smooth="yes"/>
      <point x="393" y="233"/>
      <point x="397" y="244"/>
      <point x="418" y="244" type="curve" smooth="yes"/>
      <point x="437" y="244"/>
      <point x="442" y="233"/>
      <point x="442" y="221" type="curve" smooth="yes"/>
      <point x="442" y="115"/>
      <point x="493" y="42"/>
      <point x="583" y="42" type="curve" smooth="yes"/>
      <point x="692" y="42"/>
      <point x="751" y="133"/>
      <point x="751" y="302" type="curve" smooth="yes"/>
      <point x="751" y="574"/>
      <point x="516" y="755"/>
      <point x="263" y="755" type="curve" smooth="yes"/>
      <point x="208" y="755"/>
      <point x="150" y="745"/>
      <point x="95" y="726" type="curve" smooth="yes"/>
      <point x="91" y="725"/>
      <point x="87" y="725"/>
      <point x="83" y="725" type="curve" smooth="yes"/>
      <point x="68" y="725"/>
      <point x="58" y="736"/>
      <point x="58" y="748" type="curve" smooth="yes"/>
      <point x="58" y="759"/>
      <point x="64" y="768"/>
      <point x="79" y="774" type="curve" smooth="yes"/>
      <point x="138" y="795"/>
      <point x="200" y="805"/>
      <point x="261" y="805" type="curve" smooth="yes"/>
      <point x="539" y="805"/>
      <point x="802" y="605"/>
      <point x="802" y="302" type="curve" smooth="yes"/>
      <point x="802" y="112"/>
      <point x="729" y="-8"/>
      <point x="583" y="-8" type="curve" smooth="yes"/>
      <point x="510" y="-8"/>
      <point x="436" y="38"/>
      <point x="418" y="105" type="curve"/>
      <point x="397" y="39"/>
      <point x="331" y="-8"/>
      <point x="251" y="-8" type="curve" smooth="yes"/>
      <point x="149" y="-8"/>
      <point x="58" y="73"/>
      <point x="58" y="227" type="curve" smooth="yes"/>
      <point x="58" y="340"/>
      <point x="144" y="411"/>
      <point x="214" y="411" type="curve" smooth="yes"/>
      <point x="218" y="411" type="line"/>
      <point x="197" y="426"/>
      <point x="189" y="443"/>
      <point x="189" y="464" type="curve" smooth="yes"/>
      <point x="189" y="500"/>
      <point x="218" y="537"/>
      <point x="266" y="537" type="curve" smooth="yes"/>
      <point x="320" y="537"/>
      <point x="338" y="495"/>
      <point x="371" y="495" type="curve" smooth="yes"/>
      <point x="385" y="495"/>
      <point x="391" y="482"/>
      <point x="391" y="470" type="curve" smooth="yes"/>
      <point x="391" y="459"/>
      <point x="385" y="448"/>
      <point x="371" y="448" type="curve" smooth="yes"/>
      <point x="326" y="448"/>
      <point x="311" y="484"/>
      <point x="277" y="491" type="curve" smooth="yes"/>
      <point x="274" y="491"/>
      <point x="272" y="492"/>
      <point x="269" y="492" type="curve" smooth="yes"/>
      <point x="250" y="492"/>
      <point x="234" y="479"/>
      <point x="234" y="464" type="curve" smooth="yes"/>
      <point x="234" y="439"/>
      <point x="254" y="426"/>
      <point x="295" y="411" type="curve" smooth="yes"/>
      <point x="313" y="404"/>
      <point x="324" y="394"/>
      <point x="324" y="382" type="curve" smooth="yes"/>
      <point x="324" y="381"/>
      <point x="323" y="378"/>
      <point x="323" y="375" type="curve" smooth="yes"/>
      <point x="320" y="363"/>
      <point x="310" y="357"/>
    </contour>
  </outline>
</glyph>
<glyph name="sinNnga" format="1">
  <advance width="975" height="975"/>
  <unicode hex="0D9F"/>
  <outline>
    <contour>
      <point x="594" y="36" type="curve" smooth="yes"/>
      <point x="594" y="46"/>
      <point x="604" y="59"/>
      <point x="614" y="59" type="curve" smooth="yes"/>
      <point x="619" y="59"/>
      <point x="623" y="57"/>
      <point x="628" y="56" type="curve" smooth="yes"/>
      <point x="643" y="52"/>
      <point x="665" y="48"/>
      <point x="683" y="48" type="curve" smooth="yes"/>
      <point x="775" y="48"/>
      <point x="860" y="120"/>
      <point x="860" y="261" type="curve" smooth="yes"/>
      <point x="860" y="413"/>
      <point x="774" y="475"/>
      <point x="676" y="475" type="curve" smooth="yes"/>
      <point x="566" y="475"/>
      <point x="501" y="387"/>
      <point x="485" y="281" type="curve"/>
      <point x="490" y="281"/>
      <point x="497" y="282"/>
      <point x="502" y="282" type="curve" smooth="yes"/>
      <point x="561" y="282"/>
      <point x="593" y="230"/>
      <point x="593" y="161" type="curve" smooth="yes"/>
      <point x="593" y="87"/>
      <point x="537" y="0"/>
      <point x="393" y="0" type="curve" smooth="yes"/>
      <point x="276" y="0"/>
      <point x="160" y="71"/>
      <point x="160" y="261" type="curve" smooth="yes"/>
      <point x="160" y="362"/>
      <point x="203" y="442"/>
      <point x="267" y="486" type="curve"/>
      <point x="176" y="463"/>
      <point x="101" y="383"/>
      <point x="101" y="251" type="curve" smooth="yes"/>
      <point x="101" y="140"/>
      <point x="123" y="64"/>
      <point x="188" y="40" type="curve" smooth="yes"/>
      <point x="206.593" y="33.8022"/>
      <point x="214.211" y="-2.76758"/>
      <point x="181" y="0" type="curve" smooth="yes"/>
      <point x="120" y="4"/>
      <point x="53" y="74"/>
      <point x="53" y="251" type="curve" smooth="yes"/>
      <point x="53" y="474"/>
      <point x="223" y="581"/>
      <point x="424" y="519" type="curve" smooth="yes"/>
      <point x="442.674" y="514.998"/>
      <point x="478" y="509.882"/>
      <point x="478" y="486" type="curve" smooth="yes"/>
      <point x="478" y="475"/>
      <point x="467" y="462"/>
      <point x="458" y="462" type="curve" smooth="yes"/>
      <point x="452" y="462"/>
      <point x="446" y="464"/>
      <point x="442" y="466" type="curve" smooth="yes"/>
      <point x="429" y="472"/>
      <point x="405" y="475"/>
      <point x="386" y="475" type="curve" smooth="yes"/>
      <point x="294" y="475"/>
      <point x="209" y="402"/>
      <point x="209" y="261" type="curve" smooth="yes"/>
      <point x="209" y="109"/>
      <point x="295" y="48"/>
      <point x="393" y="48" type="curve" smooth="yes"/>
      <point x="495" y="48"/>
      <point x="546" y="110"/>
      <point x="546" y="161" type="curve" smooth="yes"/>
      <point x="546" y="214"/>
      <point x="527" y="239"/>
      <point x="485" y="239" type="curve" smooth="yes"/>
      <point x="478" y="239"/>
      <point x="470" y="236"/>
      <point x="461" y="236" type="curve" smooth="yes"/>
      <point x="453" y="236" type="line" smooth="yes"/>
      <point x="441" y="236"/>
      <point x="437" y="242"/>
      <point x="437" y="253" type="curve" smooth="yes"/>
      <point x="437" y="258"/>
      <point x="438" y="264"/>
      <point x="439" y="271" type="curve" smooth="yes"/>
      <point x="472" y="437"/>
      <point x="540" y="523"/>
      <point x="676" y="523" type="curve" smooth="yes"/>
      <point x="793" y="523"/>
      <point x="909" y="452"/>
      <point x="909" y="261" type="curve" smooth="yes"/>
      <point x="909" y="107"/>
      <point x="807" y="0"/>
      <point x="683" y="0" type="curve" smooth="yes"/>
      <point x="652.499" y="0"/>
      <point x="594" y="3.09664"/>
    </contour>
  </outline>
</glyph>
<glyph name="sinCa" format="1">
  <advance width="747" height="747"/>
  <unicode hex="0DA0"/>
  <outline>
    <contour>
      <point x="137" y="447" type="curve" smooth="yes"/>
      <point x="173" y="447"/>
      <point x="209" y="441"/>
      <point x="237" y="428" type="curve"/>
      <point x="225" y="443"/>
      <point x="220" y="458"/>
      <point x="220" y="473" type="curve" smooth="yes"/>
      <point x="220" y="506"/>
      <point x="246" y="535"/>
      <point x="294" y="535" type="curve" smooth="yes"/>
      <point x="349" y="535"/>
      <point x="365" y="496"/>
      <point x="398" y="496" type="curve" smooth="yes"/>
      <point x="411" y="496"/>
      <point x="418" y="484"/>
      <point x="418" y="472" type="curve" smooth="yes"/>
      <point x="418" y="461"/>
      <point x="411" y="451"/>
      <point x="398" y="451" type="curve" smooth="yes"/>
      <point x="354" y="451"/>
      <point x="341" y="484"/>
      <point x="308" y="492" type="curve" smooth="yes"/>
      <point x="305" y="492"/>
      <point x="304" y="493"/>
      <point x="301" y="493" type="curve" smooth="yes"/>
      <point x="283" y="493"/>
      <point x="268" y="481"/>
      <point x="268" y="465" type="curve" smooth="yes"/>
      <point x="268" y="443"/>
      <point x="286" y="430"/>
      <point x="326" y="415" type="curve" smooth="yes"/>
      <point x="343" y="408"/>
      <point x="353" y="399"/>
      <point x="353" y="387" type="curve" smooth="yes"/>
      <point x="353" y="386"/>
      <point x="352" y="384"/>
      <point x="352" y="381" type="curve" smooth="yes"/>
      <point x="349" y="369"/>
      <point x="340" y="364"/>
      <point x="328" y="364" type="curve" smooth="yes"/>
      <point x="320" y="364" type="line"/>
      <point x="302" y="368"/>
      <point x="284" y="373"/>
      <point x="266" y="373" type="curve" smooth="yes"/>
      <point x="260" y="373" type="line"/>
      <point x="193" y="369"/>
      <point x="146" y="309"/>
      <point x="146" y="234" type="curve" smooth="yes"/>
      <point x="146" y="115"/>
      <point x="237" y="39"/>
      <point x="385" y="39" type="curve" smooth="yes"/>
      <point x="558" y="39"/>
      <point x="640" y="199"/>
      <point x="640" y="336" type="curve" smooth="yes"/>
      <point x="640" y="595"/>
      <point x="449" y="733"/>
      <point x="244" y="733" type="curve" smooth="yes"/>
      <point x="200" y="733"/>
      <point x="157" y="726"/>
      <point x="113" y="713" type="curve" smooth="yes"/>
      <point x="110" y="713"/>
      <point x="107" y="712"/>
      <point x="103" y="712" type="curve" smooth="yes"/>
      <point x="87" y="712"/>
      <point x="77" y="724"/>
      <point x="77" y="736" type="curve" smooth="yes"/>
      <point x="77" y="745"/>
      <point x="82" y="755"/>
      <point x="97" y="760" type="curve" smooth="yes"/>
      <point x="146" y="777"/>
      <point x="195" y="785"/>
      <point x="244" y="785" type="curve" smooth="yes"/>
      <point x="472" y="785"/>
      <point x="689" y="609"/>
      <point x="689" y="336" type="curve" smooth="yes"/>
      <point x="689" y="163"/>
      <point x="591" y="-10"/>
      <point x="385" y="-10" type="curve" smooth="yes"/>
      <point x="209" y="-10"/>
      <point x="99" y="81"/>
      <point x="99" y="234" type="curve" smooth="yes"/>
      <point x="99" y="348"/>
      <point x="169" y="397"/>
      <point x="202" y="401" type="curve"/>
      <point x="189" y="404"/>
      <point x="177" y="403"/>
      <point x="166" y="403" type="curve" smooth="yes"/>
      <point x="132" y="403"/>
      <point x="112" y="396"/>
      <point x="92" y="391" type="curve" smooth="yes"/>
      <point x="88" y="391"/>
      <point x="86" y="390"/>
      <point x="83" y="390" type="curve" smooth="yes"/>
      <point x="66" y="390"/>
      <point x="56" y="403"/>
      <point x="56" y="416" type="curve" smooth="yes"/>
      <point x="56" y="446"/>
      <point x="104" y="447"/>
    </contour>
  </outline>
</glyph>
<glyph name="sinCha" format="1">
  <advance width="742" height="742"/>
  <unicode hex="0DA1"/>
  <outline>
    <contour>
      <point x="681" y="247" type="curve" smooth="yes"/>
      <point x="681" y="347"/>
      <point x="645" y="401.332"/>
      <point x="606" y="432" type="curve" smooth="yes"/>
      <point x="580" y="453"/>
      <point x="537" y="455"/>
      <point x="514" y="452" type="curve"/>
      <point x="550" y="467"/>
      <point x="566" y="489"/>
      <point x="566" y="510" type="curve" smooth="yes"/>
      <point x="566" y="593"/>
      <point x="389" y="643"/>
      <point x="389" y="721" type="curve" smooth="yes"/>
      <point x="389" y="780"/>
      <point x="459" y="815"/>
      <point x="563" y="815" type="curve" smooth="yes"/>
      <point x="584" y="815"/>
      <point x="594" y="828"/>
      <point x="594" y="843" type="curve" smooth="yes"/>
      <point x="594" y="858"/>
      <point x="583" y="869"/>
      <point x="563" y="869" type="curve" smooth="yes"/>
      <point x="428" y="869"/>
      <point x="339" y="817"/>
      <point x="339" y="722" type="curve" smooth="yes"/>
      <point x="339" y="620"/>
      <point x="520" y="565"/>
      <point x="520" y="510" type="curve" smooth="yes"/>
      <point x="520" y="489"/>
      <point x="493" y="472"/>
      <point x="459" y="461" type="curve" smooth="yes"/>
      <point x="411" y="445"/>
      <point x="367" y="419"/>
      <point x="367" y="352" type="curve" smooth="yes"/>
      <point x="367" y="289"/>
      <point x="417" y="249"/>
      <point x="480" y="249" type="curve" smooth="yes"/>
      <point x="541" y="249"/>
      <point x="584" y="290"/>
      <point x="584" y="347" type="curve" smooth="yes"/>
      <point x="584" y="369"/>
      <point x="577" y="395"/>
      <point x="553" y="411" type="curve"/>
      <point x="603" y="393.217"/>
      <point x="634" y="342"/>
      <point x="634" y="247" type="curve" smooth="yes"/>
      <point x="634" y="119"/>
      <point x="517" y="39"/>
      <point x="369" y="39" type="curve" smooth="yes"/>
      <point x="218" y="39"/>
      <point x="100" y="118"/>
      <point x="100" y="245" type="curve" smooth="yes"/>
      <point x="100" y="331"/>
      <point x="135" y="393"/>
      <point x="202" y="393" type="curve" smooth="yes"/>
      <point x="209" y="393" type="line" smooth="yes"/>
      <point x="227" y="393"/>
      <point x="246" y="393"/>
      <point x="263" y="385" type="curve" smooth="yes"/>
      <point x="266" y="384"/>
      <point x="268" y="383"/>
      <point x="271" y="383" type="curve" smooth="yes"/>
      <point x="284" y="383"/>
      <point x="295" y="390"/>
      <point x="297" y="402" type="curve" smooth="yes"/>
      <point x="299" y="416"/>
      <point x="292" y="427"/>
      <point x="268" y="435" type="curve" smooth="yes"/>
      <point x="228" y="450"/>
      <point x="210" y="462"/>
      <point x="210" y="486" type="curve" smooth="yes"/>
      <point x="210" y="502"/>
      <point x="225" y="513"/>
      <point x="243" y="513" type="curve" smooth="yes"/>
      <point x="246" y="513"/>
      <point x="248" y="512"/>
      <point x="251" y="511" type="curve" smooth="yes"/>
      <point x="284" y="504"/>
      <point x="287" y="480"/>
      <point x="331" y="480" type="curve" smooth="yes"/>
      <point x="346" y="480"/>
      <point x="351" y="491"/>
      <point x="351" y="503" type="curve" smooth="yes"/>
      <point x="351" y="514"/>
      <point x="344" y="525"/>
      <point x="331" y="525" type="curve" smooth="yes"/>
      <point x="299" y="525"/>
      <point x="291" y="556"/>
      <point x="240" y="556" type="curve" smooth="yes"/>
      <point x="194" y="556"/>
      <point x="167" y="520"/>
      <point x="167" y="486" type="curve" smooth="yes"/>
      <point x="167" y="466"/>
      <point x="174" y="450"/>
      <point x="194" y="435" type="curve"/>
      <point x="192" y="435" type="line" smooth="yes"/>
      <point x="102" y="435"/>
      <point x="52" y="346"/>
      <point x="52" y="245" type="curve" smooth="yes"/>
      <point x="52" y="92"/>
      <point x="190" y="-9"/>
      <point x="369" y="-9" type="curve" smooth="yes"/>
      <point x="545" y="-9"/>
      <point x="681" y="93"/>
    </contour>
    <contour>
      <point x="408" y="353" type="curve" smooth="yes"/>
      <point x="408" y="393"/>
      <point x="438" y="411"/>
      <point x="476" y="411" type="curve" smooth="yes"/>
      <point x="514" y="411"/>
      <point x="546" y="383"/>
      <point x="546" y="347" type="curve" smooth="yes"/>
      <point x="546" y="310"/>
      <point x="516" y="289"/>
      <point x="480" y="289" type="curve" smooth="yes"/>
      <point x="440" y="289"/>
      <point x="408" y="315"/>
    </contour>
  </outline>
</glyph>
<glyph name="sinJa" format="1">
  <advance width="738" height="738"/>
  <unicode hex="0DA2"/>
  <outline>
    <contour>
      <point x="677" y="234" type="curve" smooth="yes"/>
      <point x="681" y="335"/>
      <point x="631" y="420"/>
      <point x="539" y="434" type="curve"/>
      <point x="557" y="449"/>
      <point x="565" y="469"/>
      <point x="565" y="489" type="curve" smooth="yes"/>
      <point x="565" y="579"/>
      <point x="388" y="634"/>
      <point x="388" y="720" type="curve" smooth="yes"/>
      <point x="388" y="779"/>
      <point x="458" y="814"/>
      <point x="562" y="814" type="curve" smooth="yes"/>
      <point x="583" y="814"/>
      <point x="593" y="827"/>
      <point x="593" y="842" type="curve" smooth="yes"/>
      <point x="593" y="857"/>
      <point x="582" y="868"/>
      <point x="562" y="868" type="curve" smooth="yes"/>
      <point x="427" y="868"/>
      <point x="338" y="816"/>
      <point x="338" y="721" type="curve" smooth="yes"/>
      <point x="338" y="609"/>
      <point x="519" y="549"/>
      <point x="519" y="489" type="curve" smooth="yes"/>
      <point x="519" y="465"/>
      <point x="509" y="449"/>
      <point x="463" y="434" type="curve" smooth="yes"/>
      <point x="446" y="429"/>
      <point x="437" y="419"/>
      <point x="437" y="406" type="curve" smooth="yes"/>
      <point x="437" y="390"/>
      <point x="448" y="382"/>
      <point x="461" y="382" type="curve" smooth="yes"/>
      <point x="484" y="382"/>
      <point x="503" y="397"/>
      <point x="529" y="392" type="curve" smooth="yes"/>
      <point x="599" y="378"/>
      <point x="634" y="320"/>
      <point x="630" y="234" type="curve" smooth="yes"/>
      <point x="624" y="110"/>
      <point x="515" y="38"/>
      <point x="368" y="38" type="curve" smooth="yes"/>
      <point x="220" y="38"/>
      <point x="106" y="107"/>
      <point x="106" y="234" type="curve" smooth="yes"/>
      <point x="106" y="322"/>
      <point x="142" y="381"/>
      <point x="214" y="392" type="curve" smooth="yes"/>
      <point x="235" y="395"/>
      <point x="255" y="382"/>
      <point x="276" y="382" type="curve" smooth="yes"/>
      <point x="288" y="382"/>
      <point x="297" y="389"/>
      <point x="300" y="401" type="curve" smooth="yes"/>
      <point x="300" y="418"/>
      <point x="295" y="425"/>
      <point x="273" y="434" type="curve" smooth="yes"/>
      <point x="233" y="449"/>
      <point x="215" y="461"/>
      <point x="215" y="485" type="curve" smooth="yes"/>
      <point x="215" y="501"/>
      <point x="230" y="512"/>
      <point x="248" y="512" type="curve" smooth="yes"/>
      <point x="285.143" y="512"/>
      <point x="295.357" y="473"/>
      <point x="339" y="473" type="curve" smooth="yes"/>
      <point x="354" y="473"/>
      <point x="359" y="484"/>
      <point x="359" y="496" type="curve" smooth="yes"/>
      <point x="359" y="507"/>
      <point x="352" y="518"/>
      <point x="339" y="518" type="curve" smooth="yes"/>
      <point x="309.218" y="518"/>
      <point x="292.465" y="555"/>
      <point x="245" y="555" type="curve" smooth="yes"/>
      <point x="199" y="555"/>
      <point x="172" y="519"/>
      <point x="172" y="485" type="curve" smooth="yes"/>
      <point x="172" y="465"/>
      <point x="179" y="449"/>
      <point x="199" y="434" type="curve"/>
      <point x="100" y="418"/>
      <point x="58" y="337"/>
      <point x="58" y="234" type="curve" smooth="yes"/>
      <point x="58" y="81"/>
      <point x="192" y="-10"/>
      <point x="368" y="-10" type="curve" smooth="yes"/>
      <point x="543" y="-10"/>
      <point x="671" y="84"/>
    </contour>
  </outline>
</glyph>
<glyph name="sinJha" format="1">
  <advance width="1337" height="1337"/>
  <unicode hex="0DA3"/>
  <outline>
    <contour>
      <point x="333" y="86" type="curve"/>
      <point x="342" y="40"/>
      <point x="395" y="0"/>
      <point x="456" y="0" type="curve" smooth="yes"/>
      <point x="529" y="0"/>
      <point x="572" y="38"/>
      <point x="593" y="96" type="curve"/>
      <point x="627" y="33"/>
      <point x="686" y="0"/>
      <point x="749" y="0" type="curve" smooth="yes"/>
      <point x="826" y="0"/>
      <point x="889" y="45"/>
      <point x="907" y="108" type="curve"/>
      <point x="924" y="43"/>
      <point x="997" y="0"/>
      <point x="1067" y="0" type="curve" smooth="yes"/>
      <point x="1207" y="0"/>
      <point x="1277" y="115"/>
      <point x="1277" y="297" type="curve" smooth="yes"/>
      <point x="1277" y="593"/>
      <point x="1025" y="788"/>
      <point x="758" y="788" type="curve" smooth="yes"/>
      <point x="700" y="788"/>
      <point x="640" y="782"/>
      <point x="583" y="759" type="curve" smooth="yes"/>
      <point x="570" y="754"/>
      <point x="563" y="745"/>
      <point x="563" y="734" type="curve" smooth="yes"/>
      <point x="563" y="722"/>
      <point x="573" y="711"/>
      <point x="588" y="711" type="curve" smooth="yes"/>
      <point x="592" y="711"/>
      <point x="595" y="711"/>
      <point x="600" y="713" type="curve" smooth="yes"/>
      <point x="653" y="731"/>
      <point x="707" y="741"/>
      <point x="761" y="741" type="curve" smooth="yes"/>
      <point x="1004" y="741"/>
      <point x="1228" y="564"/>
      <point x="1228" y="297" type="curve" smooth="yes"/>
      <point x="1228" y="135"/>
      <point x="1171" y="48"/>
      <point x="1067" y="48" type="curve" smooth="yes"/>
      <point x="980" y="48"/>
      <point x="931" y="117"/>
      <point x="931" y="219" type="curve" smooth="yes"/>
      <point x="931" y="231"/>
      <point x="927" y="242"/>
      <point x="907" y="242" type="curve" smooth="yes"/>
      <point x="889" y="242"/>
      <point x="884" y="231"/>
      <point x="884" y="219" type="curve" smooth="yes"/>
      <point x="884" y="117"/>
      <point x="835" y="48"/>
      <point x="749" y="48" type="curve" smooth="yes"/>
      <point x="676" y="48"/>
      <point x="612" y="114"/>
      <point x="612" y="230" type="curve" smooth="yes"/>
      <point x="612" y="333"/>
      <point x="668" y="396"/>
      <point x="745" y="396" type="curve" smooth="yes"/>
      <point x="798" y="396"/>
      <point x="813" y="380"/>
      <point x="828" y="380" type="curve" smooth="yes"/>
      <point x="839" y="380"/>
      <point x="844" y="393"/>
      <point x="844" y="401" type="curve" smooth="yes"/>
      <point x="844" y="405"/>
      <point x="842" y="410"/>
      <point x="840" y="414" type="curve" smooth="yes"/>
      <point x="820" y="452"/>
      <point x="735" y="540"/>
      <point x="559" y="540" type="curve" smooth="yes"/>
      <point x="437" y="540"/>
      <point x="343" y="513"/>
      <point x="287" y="456" type="curve"/>
      <point x="287" y="518"/>
      <point x="235" y="549"/>
      <point x="171" y="544" type="curve" smooth="yes"/>
      <point x="104" y="539"/>
      <point x="60" y="498"/>
      <point x="60" y="445" type="curve" smooth="yes"/>
      <point x="60" y="412.472"/>
      <point x="77.0853" y="367.724"/>
      <point x="109" y="389" type="curve" smooth="yes"/>
      <point x="120" y="396"/>
      <point x="118" y="410"/>
      <point x="114" y="418" type="curve" smooth="yes"/>
      <point x="94.2765" y="462.378"/>
      <point x="117.666" y="497.983"/>
      <point x="178" y="501" type="curve" smooth="yes"/>
      <point x="212" y="503"/>
      <point x="243" y="491"/>
      <point x="243" y="454" type="curve" smooth="yes"/>
      <point x="243" y="438"/>
      <point x="226" y="409"/>
      <point x="210" y="395" type="curve" smooth="yes"/>
      <point x="137" y="331"/>
      <point x="93" y="267"/>
      <point x="57" y="202" type="curve"/>
      <point x="64" y="94"/>
      <point x="149" y="0"/>
      <point x="221" y="0" type="curve" smooth="yes"/>
      <point x="283" y="0"/>
      <point x="324" y="40"/>
    </contour>
    <contour>
      <point x="112" y="202" type="curve"/>
      <point x="135" y="232"/>
      <point x="181" y="300"/>
      <point x="224" y="338" type="curve" smooth="yes"/>
      <point x="265" y="375"/>
      <point x="343" y="382"/>
      <point x="383" y="382" type="curve" smooth="yes"/>
      <point x="493" y="382"/>
      <point x="562" y="319"/>
      <point x="562" y="190" type="curve" smooth="yes"/>
      <point x="562" y="117"/>
      <point x="521" y="46"/>
      <point x="456" y="46" type="curve" smooth="yes"/>
      <point x="386" y="46"/>
      <point x="357" y="95"/>
      <point x="357" y="148" type="curve" smooth="yes"/>
      <point x="357" y="165"/>
      <point x="355" y="186"/>
      <point x="333" y="186" type="curve" smooth="yes"/>
      <point x="311" y="186"/>
      <point x="309" y="165"/>
      <point x="309" y="148" type="curve" smooth="yes"/>
      <point x="309" y="95"/>
      <point x="287" y="46"/>
      <point x="221" y="46" type="curve" smooth="yes"/>
      <point x="170" y="46"/>
      <point x="111" y="120"/>
    </contour>
    <contour>
      <point x="397" y="426" type="curve" smooth="yes"/>
      <point x="367" y="426"/>
      <point x="340" y="424"/>
      <point x="321" y="420" type="curve"/>
      <point x="376" y="477"/>
      <point x="434" y="492"/>
      <point x="559" y="492" type="curve" smooth="yes"/>
      <point x="634" y="492"/>
      <point x="745" y="444"/>
      <point x="745" y="444" type="curve"/>
      <point x="668" y="438"/>
      <point x="602" y="401"/>
      <point x="576" y="319" type="curve"/>
      <point x="539" y="381"/>
      <point x="476" y="426"/>
    </contour>
  </outline>
</glyph>
<glyph name="sinNya" format="1">
  <advance width="1282" height="1282"/>
  <unicode hex="0DA4"/>
  <outline>
    <contour>
      <point x="1052" y="325" type="curve" smooth="yes"/>
      <point x="1070" y="307"/>
      <point x="1092" y="297"/>
      <point x="1114" y="297" type="curve" smooth="yes"/>
      <point x="1146" y="297"/>
      <point x="1173" y="315"/>
      <point x="1173" y="351" type="curve" smooth="yes"/>
      <point x="1173" y="473"/>
      <point x="993" y="515"/>
      <point x="861" y="515" type="curve" smooth="yes"/>
      <point x="765" y="515"/>
      <point x="620" y="505"/>
      <point x="483" y="404" type="curve"/>
      <point x="505" y="412"/>
      <point x="529" y="416"/>
      <point x="550" y="416" type="curve" smooth="yes"/>
      <point x="633" y="416"/>
      <point x="702" y="379"/>
      <point x="739" y="312" type="curve"/>
      <point x="763" y="365"/>
      <point x="814" y="407"/>
      <point x="895" y="407" type="curve" smooth="yes"/>
      <point x="979" y="407"/>
      <point x="1019" y="359"/>
    </contour>
    <contour>
      <point x="271" y="202" type="curve"/>
      <point x="266" y="128"/>
      <point x="303" y="46"/>
      <point x="372" y="46" type="curve" smooth="yes"/>
      <point x="438" y="46"/>
      <point x="467" y="95"/>
      <point x="467" y="148" type="curve" smooth="yes"/>
      <point x="467" y="165"/>
      <point x="469" y="186"/>
      <point x="491" y="186" type="curve" smooth="yes"/>
      <point x="513" y="186"/>
      <point x="514" y="165"/>
      <point x="514" y="148" type="curve" smooth="yes"/>
      <point x="514" y="95"/>
      <point x="543" y="46"/>
      <point x="613" y="46" type="curve" smooth="yes"/>
      <point x="678" y="46"/>
      <point x="719" y="117"/>
      <point x="719" y="190" type="curve" smooth="yes"/>
      <point x="719" y="319"/>
      <point x="648" y="374"/>
      <point x="540" y="374" type="curve" smooth="yes"/>
      <point x="506" y="374"/>
      <point x="436" y="375"/>
      <point x="402" y="354" type="curve" smooth="yes"/>
      <point x="338" y="315"/>
      <point x="271" y="202"/>
    </contour>
    <contour>
      <point x="224" y="432" type="curve" smooth="yes"/>
      <point x="219" y="511"/>
      <point x="277" y="548"/>
      <point x="340" y="547" type="curve" smooth="yes"/>
      <point x="395" y="546"/>
      <point x="456" y="520"/>
      <point x="450" y="432" type="curve"/>
      <point x="575" y="538"/>
      <point x="760" y="560"/>
      <point x="861" y="560" type="curve" smooth="yes"/>
      <point x="1029" y="560"/>
      <point x="1218" y="505"/>
      <point x="1218" y="351" type="curve" smooth="yes"/>
      <point x="1218" y="290"/>
      <point x="1172" y="251"/>
      <point x="1118" y="251" type="curve" smooth="yes"/>
      <point x="1084" y="251"/>
      <point x="1045" y="266"/>
      <point x="1013" y="302" type="curve" smooth="yes"/>
      <point x="987" y="331"/>
      <point x="946" y="359"/>
      <point x="895" y="359" type="curve" smooth="yes"/>
      <point x="804" y="359"/>
      <point x="771" y="284"/>
      <point x="771" y="236" type="curve" smooth="yes"/>
      <point x="771" y="120"/>
      <point x="845" y="48"/>
      <point x="980" y="48" type="curve" smooth="yes"/>
      <point x="1090" y="48"/>
      <point x="1138" y="96"/>
      <point x="1170" y="133" type="curve" smooth="yes"/>
      <point x="1178" y="142"/>
      <point x="1193" y="143"/>
      <point x="1201" y="139" type="curve" smooth="yes"/>
      <point x="1212" y="134"/>
      <point x="1216" y="122"/>
      <point x="1210" y="100" type="curve" smooth="yes"/>
      <point x="1182" y="2"/>
      <point x="1150" y="-80"/>
      <point x="1145" y="-134" type="curve" smooth="yes"/>
      <point x="1138" y="-209"/>
      <point x="1162" y="-245"/>
      <point x="1205" y="-264" type="curve" smooth="yes"/>
      <point x="1216" y="-269"/>
      <point x="1222" y="-278"/>
      <point x="1222" y="-289" type="curve" smooth="yes"/>
      <point x="1222" y="-304"/>
      <point x="1214" y="-318"/>
      <point x="1201" y="-318" type="curve" smooth="yes"/>
      <point x="1197" y="-318" type="line"/>
      <point x="1116" y="-280"/>
      <point x="1090" y="-229"/>
      <point x="1096" y="-134" type="curve" smooth="yes"/>
      <point x="1099" y="-85"/>
      <point x="1115" y="-26"/>
      <point x="1159" y="63" type="curve"/>
      <point x="1135" y="42"/>
      <point x="1062" y="0"/>
      <point x="980" y="0" type="curve" smooth="yes"/>
      <point x="869" y="0"/>
      <point x="795" y="41"/>
      <point x="755" y="107" type="curve"/>
      <point x="737" y="44"/>
      <point x="690" y="0"/>
      <point x="613" y="0" type="curve" smooth="yes"/>
      <point x="552" y="0"/>
      <point x="500" y="40"/>
      <point x="491" y="86" type="curve"/>
      <point x="482" y="40"/>
      <point x="434" y="0"/>
      <point x="372" y="0" type="curve" smooth="yes"/>
      <point x="283" y="0"/>
      <point x="216" y="88"/>
      <point x="216" y="202" type="curve"/>
      <point x="216" y="202"/>
      <point x="244" y="252"/>
      <point x="279" y="300" type="curve"/>
      <point x="264" y="301"/>
      <point x="248" y="303"/>
      <point x="231" y="309" type="curve" smooth="yes"/>
      <point x="186" y="324"/>
      <point x="160" y="382"/>
      <point x="160" y="439" type="curve"/>
      <point x="128" y="381"/>
      <point x="106" y="301"/>
      <point x="106" y="216" type="curve" smooth="yes"/>
      <point x="106" y="130"/>
      <point x="129" y="66"/>
      <point x="176" y="49" type="curve" smooth="yes"/>
      <point x="197" y="41"/>
      <point x="203" y="32"/>
      <point x="201" y="20" type="curve" smooth="yes"/>
      <point x="198" y="5"/>
      <point x="184" y="1"/>
      <point x="173" y="3" type="curve" smooth="yes"/>
      <point x="113" y="13"/>
      <point x="57" y="64"/>
      <point x="58" y="216" type="curve" smooth="yes"/>
      <point x="59" y="358"/>
      <point x="111" y="465"/>
      <point x="172" y="516" type="curve" smooth="yes"/>
      <point x="178" y="521"/>
      <point x="189" y="527"/>
      <point x="197" y="522" type="curve" smooth="yes"/>
      <point x="221.302" y="508.914"/>
      <point x="201" y="482.793"/>
      <point x="201" y="466" type="curve" smooth="yes"/>
      <point x="197" y="406"/>
      <point x="217" y="360"/>
      <point x="244" y="348" type="curve" smooth="yes"/>
      <point x="275" y="334"/>
      <point x="303" y="338"/>
      <point x="316" y="346" type="curve"/>
      <point x="315" y="346"/>
      <point x="314" y="346"/>
      <point x="313" y="346" type="curve" smooth="yes"/>
      <point x="275" y="346"/>
      <point x="228" y="378"/>
    </contour>
    <contour>
      <point x="363" y="387" type="curve"/>
      <point x="382" y="402"/>
      <point x="401" y="420"/>
      <point x="401" y="448" type="curve" smooth="yes"/>
      <point x="401" y="478"/>
      <point x="382" y="504"/>
      <point x="330" y="502" type="curve" smooth="yes"/>
      <point x="259.063" y="500.133"/>
      <point x="245.507" y="398.439"/>
      <point x="317" y="387" type="curve" smooth="yes"/>
      <point x="338" y="383"/>
      <point x="352" y="384"/>
    </contour>
  </outline>
</glyph>
<glyph name="sinJnya" format="1">
  <advance width="1122" height="1122"/>
  <unicode hex="0DA5"/>
  <outline>
    <contour>
      <point x="516" y="414" type="curve" smooth="yes"/>
      <point x="588" y="502"/>
      <point x="644" y="529"/>
      <point x="775" y="529" type="curve" smooth="yes"/>
      <point x="948" y="529"/>
      <point x="1057" y="432"/>
      <point x="1057" y="317" type="curve" smooth="yes"/>
      <point x="1057" y="263"/>
      <point x="1030" y="222"/>
      <point x="971" y="221" type="curve" smooth="yes"/>
      <point x="912" y="220"/>
      <point x="881" y="259"/>
      <point x="852" y="292" type="curve" smooth="yes"/>
      <point x="827" y="321"/>
      <point x="800" y="348"/>
      <point x="734" y="348" type="curve" smooth="yes"/>
      <point x="643" y="348"/>
      <point x="610" y="274"/>
      <point x="610" y="225" type="curve" smooth="yes"/>
      <point x="610" y="110"/>
      <point x="684" y="38"/>
      <point x="819" y="38" type="curve" smooth="yes"/>
      <point x="929" y="38"/>
      <point x="972" y="86"/>
      <point x="1006" y="119" type="curve" smooth="yes"/>
      <point x="1014" y="127"/>
      <point x="1031" y="130"/>
      <point x="1041" y="124" type="curve" smooth="yes"/>
      <point x="1051" y="118"/>
      <point x="1052" y="106"/>
      <point x="1049" y="90" type="curve" smooth="yes"/>
      <point x="1027" y="-22"/>
      <point x="986" y="-84"/>
      <point x="978" y="-154" type="curve" smooth="yes"/>
      <point x="971" y="-214"/>
      <point x="1003" y="-253"/>
      <point x="1028" y="-263" type="curve" smooth="yes"/>
      <point x="1039" y="-267"/>
      <point x="1045" y="-277"/>
      <point x="1045" y="-289" type="curve" smooth="yes"/>
      <point x="1045" y="-304"/>
      <point x="1036" y="-317"/>
      <point x="1023" y="-317" type="curve" smooth="yes"/>
      <point x="1019" y="-317" type="line"/>
      <point x="978" y="-306"/>
      <point x="919" y="-245"/>
      <point x="929" y="-154" type="curve" smooth="yes"/>
      <point x="937" y="-78"/>
      <point x="961" y="-38"/>
      <point x="998" y="52" type="curve"/>
      <point x="974" y="32"/>
      <point x="901" y="-10"/>
      <point x="819" y="-10" type="curve" smooth="yes"/>
      <point x="709" y="-10"/>
      <point x="635" y="29"/>
      <point x="595" y="94" type="curve"/>
      <point x="569" y="44"/>
      <point x="512" y="2"/>
      <point x="412" y="2" type="curve" smooth="yes"/>
      <point x="295" y="2"/>
      <point x="179" y="75"/>
      <point x="179" y="265" type="curve" smooth="yes"/>
      <point x="179" y="353"/>
      <point x="203" y="427"/>
      <point x="276" y="481" type="curve"/>
      <point x="155" y="478"/>
      <point x="106" y="353"/>
      <point x="106" y="243" type="curve" smooth="yes"/>
      <point x="106" y="139"/>
      <point x="134" y="64"/>
      <point x="185" y="46" type="curve" smooth="yes"/>
      <point x="203" y="40"/>
      <point x="210" y="33"/>
      <point x="209" y="22" type="curve" smooth="yes"/>
      <point x="208" y="6"/>
      <point x="202" y="0"/>
      <point x="182" y="2" type="curve" smooth="yes"/>
      <point x="123" y="8"/>
      <point x="59" y="66"/>
      <point x="58" y="243" type="curve" smooth="yes"/>
      <point x="57" y="431"/>
      <point x="183" y="535"/>
      <point x="304" y="535" type="curve" smooth="yes"/>
      <point x="425" y="535"/>
      <point x="471" y="516"/>
      <point x="501" y="501" type="curve" smooth="yes"/>
      <point x="507" y="498"/>
      <point x="520" y="483"/>
      <point x="511" y="468" type="curve" smooth="yes"/>
      <point x="504" y="457"/>
      <point x="496" y="454"/>
      <point x="480" y="461" type="curve" smooth="yes"/>
      <point x="452" y="473"/>
      <point x="427" y="480"/>
      <point x="399" y="480" type="curve" smooth="yes"/>
      <point x="310" y="480"/>
      <point x="228" y="405"/>
      <point x="228" y="265" type="curve" smooth="yes"/>
      <point x="228" y="113"/>
      <point x="314" y="50"/>
      <point x="412" y="50" type="curve" smooth="yes"/>
      <point x="514" y="50"/>
      <point x="565" y="112"/>
      <point x="565" y="163" type="curve" smooth="yes"/>
      <point x="565" y="216"/>
      <point x="546" y="241"/>
      <point x="504" y="241" type="curve" smooth="yes"/>
      <point x="497" y="241"/>
      <point x="489" y="238"/>
      <point x="480" y="238" type="curve" smooth="yes"/>
      <point x="472" y="238" type="line" smooth="yes"/>
      <point x="460" y="238"/>
      <point x="455" y="244"/>
      <point x="455" y="255" type="curve" smooth="yes"/>
      <point x="455" y="259"/>
      <point x="457" y="266"/>
      <point x="458" y="273" type="curve" smooth="yes"/>
      <point x="469" y="330"/>
      <point x="478" y="368"/>
    </contour>
    <contour>
      <point x="891" y="314" type="curve" smooth="yes"/>
      <point x="915" y="287"/>
      <point x="929" y="269"/>
      <point x="973" y="269" type="curve" smooth="yes"/>
      <point x="1002" y="269"/>
      <point x="1012" y="285"/>
      <point x="1012" y="317" type="curve" smooth="yes"/>
      <point x="1012" y="409"/>
      <point x="918" y="484"/>
      <point x="775" y="484" type="curve" smooth="yes"/>
      <point x="619" y="484"/>
      <point x="532" y="407"/>
      <point x="504" y="283" type="curve"/>
      <point x="509" y="283"/>
      <point x="516" y="284"/>
      <point x="521" y="284" type="curve" smooth="yes"/>
      <point x="538" y="284"/>
      <point x="554" y="279"/>
      <point x="567" y="270" type="curve"/>
      <point x="584" y="337"/>
      <point x="639" y="395"/>
      <point x="734" y="395" type="curve" smooth="yes"/>
      <point x="832" y="395"/>
      <point x="859" y="350"/>
    </contour>
  </outline>
</glyph>
<glyph name="sinNdja" format="1">
  <advance width="866" height="866"/>
  <unicode hex="0DA6"/>
  <outline>
    <contour>
      <point x="803.64" y="235.32" type="curve" smooth="yes"/>
      <point x="803.64" y="329.952"/>
      <point x="753.48" y="421.84"/>
      <point x="665.04" y="421.84" type="curve" smooth="yes"/>
      <point x="662.4" y="421.84" type="line"/>
      <point x="682.2" y="436.36"/>
      <point x="690.12" y="457.48"/>
      <point x="690.12" y="477.28" type="curve" smooth="yes"/>
      <point x="690.12" y="576.084"/>
      <point x="513.24" y="627.449"/>
      <point x="513.24" y="721.12" type="curve" smooth="yes"/>
      <point x="513.24" y="780.52"/>
      <point x="583.2" y="814.84"/>
      <point x="687.48" y="814.84" type="curve" smooth="yes"/>
      <point x="708.6" y="814.84"/>
      <point x="716.52" y="828.04"/>
      <point x="716.52" y="842.56" type="curve" smooth="yes"/>
      <point x="716.52" y="857.08"/>
      <point x="707.28" y="868.96"/>
      <point x="686.16" y="868.96" type="curve" smooth="yes"/>
      <point x="552.84" y="868.96"/>
      <point x="463.08" y="817.48"/>
      <point x="463.08" y="722.44" type="curve" smooth="yes"/>
      <point x="463.08" y="600.521"/>
      <point x="643.92" y="542.731"/>
      <point x="643.92" y="477.28" type="curve" smooth="yes"/>
      <point x="643.92" y="453.52"/>
      <point x="634.767" y="436.082"/>
      <point x="588.48" y="421.84" type="curve" smooth="yes"/>
      <point x="571.32" y="416.56"/>
      <point x="560.76" y="407.32"/>
      <point x="560.76" y="394.12" type="curve" smooth="yes"/>
      <point x="560.76" y="392.8"/>
      <point x="561.794" y="390.129"/>
      <point x="562.08" y="388.84" type="curve" smooth="yes"/>
      <point x="564.72" y="376.96"/>
      <point x="573.96" y="370.36"/>
      <point x="585.84" y="370.36" type="curve" smooth="yes"/>
      <point x="587.16" y="370.36"/>
      <point x="590.843" y="371.23"/>
      <point x="593.76" y="371.68" type="curve" smooth="yes"/>
      <point x="610.92" y="374.32"/>
      <point x="629.4" y="379.6"/>
      <point x="647.88" y="379.6" type="curve" smooth="yes"/>
      <point x="654.48" y="379.6" type="line" smooth="yes"/>
      <point x="721.8" y="379.6"/>
      <point x="756.12" y="314.396"/>
      <point x="756.12" y="235.32" type="curve" smooth="yes"/>
      <point x="756.12" y="108.6"/>
      <point x="641.28" y="38.6396"/>
      <point x="493.44" y="38.6396" type="curve" smooth="yes"/>
      <point x="345.6" y="38.6396"/>
      <point x="229.44" y="108.6"/>
      <point x="229.44" y="235.32" type="curve" smooth="yes"/>
      <point x="229.44" y="310.56"/>
      <point x="265.08" y="372.6"/>
      <point x="332.4" y="372.6" type="curve" smooth="yes"/>
      <point x="337.68" y="372.6" type="line" smooth="yes"/>
      <point x="357.48" y="372.6"/>
      <point x="376.422" y="373.025"/>
      <point x="393.12" y="364.68" type="curve" smooth="yes"/>
      <point x="395.76" y="363.36"/>
      <point x="398.4" y="363.36"/>
      <point x="401.04" y="363.36" type="curve" smooth="yes"/>
      <point x="412.92" y="363.36"/>
      <point x="424.8" y="369.96"/>
      <point x="424.8" y="381.84" type="curve" smooth="yes"/>
      <point x="424.8" y="387.12" type="line" smooth="yes"/>
      <point x="424.8" y="399"/>
      <point x="415.427" y="407.881"/>
      <point x="397.08" y="414.84" type="curve" smooth="yes"/>
      <point x="358.8" y="429.36"/>
      <point x="340.32" y="442.56"/>
      <point x="340.32" y="466.32" type="curve" smooth="yes"/>
      <point x="340.32" y="482.16"/>
      <point x="354.84" y="492.72"/>
      <point x="372" y="492.72" type="curve" smooth="yes"/>
      <point x="375.96" y="492.72"/>
      <point x="378.651" y="491.918"/>
      <point x="381.24" y="491.4" type="curve" smooth="yes"/>
      <point x="414.24" y="484.8"/>
      <point x="421.44" y="454.48"/>
      <point x="465" y="454.48" type="curve" smooth="yes"/>
      <point x="478.2" y="454.48"/>
      <point x="484.8" y="465.04"/>
      <point x="484.8" y="476.92" type="curve" smooth="yes"/>
      <point x="484.8" y="487.48"/>
      <point x="478.2" y="499.36"/>
      <point x="465" y="499.36" type="curve" smooth="yes"/>
      <point x="427.748" y="499.36"/>
      <point x="430.98" y="542.375"/>
      <point x="313" y="540" type="curve" smooth="yes"/>
      <point x="164" y="537"/>
      <point x="62" y="439"/>
      <point x="58.04" y="263.8" type="curve" smooth="yes"/>
      <point x="54.043" y="86.9648"/>
      <point x="122.72" y="3"/>
      <point x="182.12" y="3" type="curve" smooth="yes"/>
      <point x="207" y="3"/>
      <point x="210.143" y="15"/>
      <point x="211" y="21" type="curve" smooth="yes"/>
      <point x="211.714" y="26"/>
      <point x="210" y="42.6924"/>
      <point x="195" y="45" type="curve" smooth="yes"/>
      <point x="182" y="47"/>
      <point x="174" y="49"/>
      <point x="164.96" y="54.4805" type="curve"/>
      <point x="129.32" y="72.96"/>
      <point x="100.683" y="159.634"/>
      <point x="105.56" y="263.8" type="curve" smooth="yes"/>
      <point x="111" y="380"/>
      <point x="164" y="481"/>
      <point x="301" y="497" type="curve"/>
      <point x="293" y="490"/>
      <point x="289" y="481.038"/>
      <point x="289" y="468" type="curve" smooth="yes"/>
      <point x="289" y="442"/>
      <point x="312.6" y="422.76"/>
      <point x="323.16" y="414.84" type="curve"/>
      <point x="321.84" y="414.84" type="line" smooth="yes"/>
      <point x="232.08" y="414.84"/>
      <point x="181.92" y="326.4"/>
      <point x="181.92" y="235.32" type="curve" smooth="yes"/>
      <point x="181.92" y="82.2002"/>
      <point x="317.88" y="-8.87988"/>
      <point x="493.44" y="-8.87988" type="curve" smooth="yes"/>
      <point x="669" y="-8.87988"/>
      <point x="803.64" y="82.2002"/>
    </contour>
  </outline>
</glyph>
<glyph name="sinTta" format="1">
  <advance width="730" height="730"/>
  <unicode hex="0DA7"/>
  <outline>
    <contour>
      <point x="669" y="337" type="curve" smooth="yes"/>
      <point x="674" y="610"/>
      <point x="452" y="786"/>
      <point x="224" y="786" type="curve" smooth="yes"/>
      <point x="175" y="786"/>
      <point x="125" y="778"/>
      <point x="78" y="761" type="curve" smooth="yes"/>
      <point x="63" y="756"/>
      <point x="58" y="746"/>
      <point x="58" y="737" type="curve" smooth="yes"/>
      <point x="58" y="725"/>
      <point x="67" y="713"/>
      <point x="83" y="713" type="curve" smooth="yes"/>
      <point x="87" y="713"/>
      <point x="90" y="713"/>
      <point x="94" y="714" type="curve" smooth="yes"/>
      <point x="138" y="727"/>
      <point x="180" y="734"/>
      <point x="224" y="734" type="curve" smooth="yes"/>
      <point x="427" y="734"/>
      <point x="620" y="596"/>
      <point x="620" y="337" type="curve" smooth="yes"/>
      <point x="620" y="200"/>
      <point x="536" y="40"/>
      <point x="356" y="40" type="curve" smooth="yes"/>
      <point x="197" y="40"/>
      <point x="122" y="146"/>
      <point x="121" y="233" type="curve" smooth="yes"/>
      <point x="120" y="334"/>
      <point x="172" y="386"/>
      <point x="239" y="398" type="curve" smooth="yes"/>
      <point x="285" y="406"/>
      <point x="317" y="391"/>
      <point x="333" y="387" type="curve" smooth="yes"/>
      <point x="350" y="383"/>
      <point x="357" y="393"/>
      <point x="360" y="402" type="curve" smooth="yes"/>
      <point x="365" y="416"/>
      <point x="358" y="427"/>
      <point x="344" y="433" type="curve" smooth="yes"/>
      <point x="329" y="439"/>
      <point x="293" y="451"/>
      <point x="242" y="446" type="curve" smooth="yes"/>
      <point x="154" y="438"/>
      <point x="75" y="373"/>
      <point x="74" y="233" type="curve" smooth="yes"/>
      <point x="74" y="123"/>
      <point x="164" y="-12"/>
      <point x="356" y="-9" type="curve" smooth="yes"/>
      <point x="566" y="-6"/>
      <point x="666" y="169"/>
    </contour>
  </outline>
</glyph>
<glyph name="sinTtha" format="1">
  <advance width="803" height="803"/>
  <unicode hex="0DA8"/>
  <outline>
    <contour>
      <point x="399" y="112" type="curve"/>
      <point x="415" y="42"/>
      <point x="485" y="-5"/>
      <point x="552" y="-5" type="curve" smooth="yes"/>
      <point x="682.667" y="-5"/>
      <point x="748" y="103"/>
      <point x="748" y="270" type="curve" smooth="yes"/>
      <point x="748" y="495"/>
      <point x="571.657" y="689"/>
      <point x="470" y="810" type="curve" smooth="yes"/>
      <point x="453" y="832"/>
      <point x="443" y="845"/>
      <point x="424" y="865" type="curve" smooth="yes"/>
      <point x="405" y="885"/>
      <point x="368" y="851"/>
      <point x="389" y="826" type="curve" smooth="yes"/>
      <point x="389" y="825"/>
      <point x="398" y="817"/>
      <point x="398" y="816" type="curve" smooth="yes"/>
      <point x="383" y="798"/>
      <point x="380" y="793"/>
      <point x="353" y="763" type="curve" smooth="yes"/>
      <point x="311" y="717"/>
      <point x="289" y="674"/>
      <point x="289" y="621" type="curve" smooth="yes"/>
      <point x="289" y="535"/>
      <point x="353" y="492"/>
      <point x="421" y="492" type="curve" smooth="yes"/>
      <point x="482" y="492"/>
      <point x="544" y="524"/>
      <point x="581" y="592" type="curve"/>
      <point x="621.558" y="537"/>
      <point x="695" y="430"/>
      <point x="695" y="270" type="curve" smooth="yes"/>
      <point x="695" y="123"/>
      <point x="645.541" y="46"/>
      <point x="552" y="46" type="curve" smooth="yes"/>
      <point x="471" y="46"/>
      <point x="425" y="122"/>
      <point x="425" y="232" type="curve" smooth="yes"/>
      <point x="425" y="245"/>
      <point x="420" y="256"/>
      <point x="399" y="256" type="curve" smooth="yes"/>
      <point x="379" y="256"/>
      <point x="373" y="245"/>
      <point x="373" y="232" type="curve" smooth="yes"/>
      <point x="373" y="122"/>
      <point x="326.2" y="46"/>
      <point x="243" y="46" type="curve" smooth="yes"/>
      <point x="177.297" y="46"/>
      <point x="100" y="110"/>
      <point x="100" y="223" type="curve" smooth="yes"/>
      <point x="100" y="351"/>
      <point x="169" y="430"/>
      <point x="248" y="430" type="curve" smooth="yes"/>
      <point x="305" y="430"/>
      <point x="322" y="413"/>
      <point x="338" y="413" type="curve" smooth="yes"/>
      <point x="349" y="413"/>
      <point x="355" y="427"/>
      <point x="355" y="436" type="curve" smooth="yes"/>
      <point x="355" y="462"/>
      <point x="315" y="481"/>
      <point x="248" y="481" type="curve" smooth="yes"/>
      <point x="147" y="481"/>
      <point x="48" y="392"/>
      <point x="48" y="223" type="curve" smooth="yes"/>
      <point x="48" y="74"/>
      <point x="145.5" y="-5"/>
      <point x="243" y="-5" type="curve" smooth="yes"/>
      <point x="318.417" y="-5"/>
      <point x="379.371" y="44"/>
    </contour>
    <contour>
      <point x="334" y="621" type="curve" smooth="yes"/>
      <point x="334" y="678"/>
      <point x="391" y="735"/>
      <point x="435" y="779" type="curve"/>
      <point x="465" y="744"/>
      <point x="518" y="684"/>
      <point x="547" y="635" type="curve"/>
      <point x="530" y="572"/>
      <point x="476" y="537"/>
      <point x="423" y="537" type="curve" smooth="yes"/>
      <point x="377" y="537"/>
      <point x="334" y="563"/>
    </contour>
  </outline>
</glyph>
<glyph name="sinDda" format="1">
  <advance width="802" height="802"/>
  <unicode hex="0DA9"/>
  <outline>
    <contour>
      <point x="137" y="439" type="curve" smooth="yes"/>
      <point x="102.884" y="439"/>
      <point x="56" y="438.527"/>
      <point x="56" y="408" type="curve" smooth="yes"/>
      <point x="56" y="395"/>
      <point x="65" y="383"/>
      <point x="82" y="383" type="curve" smooth="yes"/>
      <point x="92" y="383" type="line"/>
      <point x="112" y="388"/>
      <point x="132" y="395"/>
      <point x="166" y="395" type="curve" smooth="yes"/>
      <point x="177" y="395"/>
      <point x="188" y="395"/>
      <point x="201" y="394" type="curve"/>
      <point x="153" y="394"/>
      <point x="63" y="335"/>
      <point x="63" y="206" type="curve" smooth="yes"/>
      <point x="63" y="67"/>
      <point x="149" y="-5"/>
      <point x="247" y="-5" type="curve" smooth="yes"/>
      <point x="323" y="-5"/>
      <point x="384" y="40"/>
      <point x="403" y="103" type="curve"/>
      <point x="419" y="38"/>
      <point x="486" y="-5"/>
      <point x="553" y="-5" type="curve" smooth="yes"/>
      <point x="680" y="-5"/>
      <point x="741" y="111"/>
      <point x="741" y="292" type="curve" smooth="yes"/>
      <point x="741" y="588"/>
      <point x="506" y="783"/>
      <point x="258" y="783" type="curve" smooth="yes"/>
      <point x="199" y="783"/>
      <point x="140" y="774"/>
      <point x="82" y="754" type="curve" smooth="yes"/>
      <point x="69" y="749"/>
      <point x="63" y="740"/>
      <point x="63" y="729" type="curve" smooth="yes"/>
      <point x="63" y="717"/>
      <point x="72" y="706"/>
      <point x="88" y="706" type="curve" smooth="yes"/>
      <point x="91" y="706"/>
      <point x="94" y="707"/>
      <point x="98" y="708" type="curve" smooth="yes"/>
      <point x="152" y="726"/>
      <point x="207" y="736"/>
      <point x="261" y="736" type="curve" smooth="yes"/>
      <point x="485" y="736"/>
      <point x="694" y="559"/>
      <point x="694" y="292" type="curve" smooth="yes"/>
      <point x="694" y="130"/>
      <point x="644" y="43"/>
      <point x="553" y="43" type="curve" smooth="yes"/>
      <point x="472" y="43"/>
      <point x="427" y="112"/>
      <point x="427" y="214" type="curve" smooth="yes"/>
      <point x="427" y="226"/>
      <point x="421" y="237"/>
      <point x="403" y="237" type="curve" smooth="yes"/>
      <point x="385" y="237"/>
      <point x="379" y="226"/>
      <point x="379" y="214" type="curve" smooth="yes"/>
      <point x="379" y="112"/>
      <point x="332" y="43"/>
      <point x="247" y="43" type="curve" smooth="yes"/>
      <point x="174" y="43"/>
      <point x="110" y="102"/>
      <point x="110" y="206" type="curve" smooth="yes"/>
      <point x="110" y="296"/>
      <point x="168" y="365"/>
      <point x="258" y="365" type="curve" smooth="yes"/>
      <point x="303.013" y="365"/>
      <point x="311.509" y="349"/>
      <point x="346" y="349" type="curve" smooth="yes"/>
      <point x="359.632" y="349"/>
      <point x="370" y="357.133"/>
      <point x="370" y="374" type="curve" smooth="yes"/>
      <point x="370" y="385"/>
      <point x="361" y="393"/>
      <point x="344" y="400" type="curve" smooth="yes"/>
      <point x="287" y="421"/>
      <point x="267" y="433"/>
      <point x="267" y="458" type="curve" smooth="yes"/>
      <point x="267" y="474"/>
      <point x="282" y="485"/>
      <point x="300" y="485" type="curve" smooth="yes"/>
      <point x="303" y="485"/>
      <point x="305" y="483"/>
      <point x="308" y="483" type="curve" smooth="yes"/>
      <point x="341" y="476"/>
      <point x="354" y="442"/>
      <point x="399" y="442" type="curve" smooth="yes"/>
      <point x="412" y="442"/>
      <point x="418" y="453"/>
      <point x="418" y="465" type="curve" smooth="yes"/>
      <point x="418" y="476"/>
      <point x="411" y="487"/>
      <point x="399" y="487" type="curve" smooth="yes"/>
      <point x="366" y="487"/>
      <point x="349" y="528"/>
      <point x="298" y="528" type="curve" smooth="yes"/>
      <point x="248" y="528"/>
      <point x="221" y="497"/>
      <point x="221" y="464" type="curve" smooth="yes"/>
      <point x="221" y="448"/>
      <point x="226" y="433"/>
      <point x="237" y="420" type="curve"/>
      <point x="209" y="433"/>
      <point x="173" y="439"/>
    </contour>
  </outline>
</glyph>
<glyph name="sinDdha" format="1">
  <advance width="881" height="881"/>
  <unicode hex="0DAA"/>
  <outline>
    <contour>
      <point x="435" y="113" type="curve"/>
      <point x="452.895" y="43"/>
      <point x="524.477" y="-4"/>
      <point x="597" y="-4" type="curve" smooth="yes"/>
      <point x="717.638" y="-4"/>
      <point x="786.539" y="116.045"/>
      <point x="777" y="301" type="curve" smooth="yes"/>
      <point x="766.531" y="504"/>
      <point x="594.135" y="700.473"/>
      <point x="487" y="821" type="curve" smooth="yes"/>
      <point x="471" y="839"/>
      <point x="464.448" y="850.49"/>
      <point x="447" y="866" type="curve" smooth="yes"/>
      <point x="438" y="874"/>
      <point x="421.461" y="880.515"/>
      <point x="412" y="872" type="curve" smooth="yes"/>
      <point x="402" y="863"/>
      <point x="402" y="847"/>
      <point x="409" y="837" type="curve"/>
      <point x="412" y="832"/>
      <point x="415" y="829"/>
      <point x="418" y="824" type="curve"/>
      <point x="388.349" y="792.725"/>
      <point x="339.584" y="739.935"/>
      <point x="333" y="679" type="curve" smooth="yes"/>
      <point x="325.068" y="605.584"/>
      <point x="372" y="546"/>
      <point x="450" y="546" type="curve" smooth="yes"/>
      <point x="504" y="546"/>
      <point x="562" y="569"/>
      <point x="596" y="615" type="curve"/>
      <point x="647.111" y="562"/>
      <point x="713.761" y="454.192"/>
      <point x="726" y="301" type="curve" smooth="yes"/>
      <point x="739.182" y="136"/>
      <point x="688.362" y="53.6445"/>
      <point x="597" y="47" type="curve" smooth="yes"/>
      <point x="494.483" y="39"/>
      <point x="467.598" y="127.012"/>
      <point x="460" y="233" type="curve" smooth="yes"/>
      <point x="459" y="246"/>
      <point x="455" y="257"/>
      <point x="435" y="257" type="curve" smooth="yes"/>
      <point x="415" y="257"/>
      <point x="408.157" y="246.011"/>
      <point x="409" y="233" type="curve" smooth="yes"/>
      <point x="416.511" y="125"/>
      <point x="356.423" y="47"/>
      <point x="262" y="47" type="curve" smooth="yes"/>
      <point x="197.563" y="47"/>
      <point x="140" y="101.96"/>
      <point x="140" y="199" type="curve" smooth="yes"/>
      <point x="140" y="286"/>
      <point x="200" y="353"/>
      <point x="294" y="353" type="curve" smooth="yes"/>
      <point x="338" y="353"/>
      <point x="350.24" y="344.44"/>
      <point x="380" y="337" type="curve" smooth="yes"/>
      <point x="384" y="336"/>
      <point x="386" y="336"/>
      <point x="390" y="336" type="curve" smooth="yes"/>
      <point x="398.878" y="336"/>
      <point x="415" y="348.714"/>
      <point x="415" y="363" type="curve" smooth="yes"/>
      <point x="415" y="374"/>
      <point x="405.946" y="383.856"/>
      <point x="387" y="391" type="curve" smooth="yes"/>
      <point x="326" y="414"/>
      <point x="304" y="427"/>
      <point x="304" y="454" type="curve" smooth="yes"/>
      <point x="304" y="471"/>
      <point x="320" y="483"/>
      <point x="340" y="483" type="curve" smooth="yes"/>
      <point x="343" y="483"/>
      <point x="344.903" y="481.638"/>
      <point x="348" y="481" type="curve" smooth="yes"/>
      <point x="381.244" y="475.815"/>
      <point x="392.978" y="441"/>
      <point x="436" y="441" type="curve" smooth="yes"/>
      <point x="450" y="441"/>
      <point x="457" y="453"/>
      <point x="457" y="464" type="curve" smooth="yes"/>
      <point x="457" y="477"/>
      <point x="449" y="488"/>
      <point x="436" y="488" type="curve" smooth="yes"/>
      <point x="403.653" y="488"/>
      <point x="386.99" y="530"/>
      <point x="337" y="530" type="curve" smooth="yes"/>
      <point x="283" y="530"/>
      <point x="254" y="496"/>
      <point x="254" y="460" type="curve" smooth="yes"/>
      <point x="254" y="443"/>
      <point x="260" y="427"/>
      <point x="271" y="413" type="curve"/>
      <point x="241" y="427"/>
      <point x="201" y="433"/>
      <point x="163" y="433" type="curve" smooth="yes"/>
      <point x="142" y="433"/>
      <point x="121.044" y="431.799"/>
      <point x="103" y="428" type="curve" smooth="yes"/>
      <point x="84" y="424"/>
      <point x="76" y="411"/>
      <point x="76" y="400" type="curve" smooth="yes"/>
      <point x="76" y="386"/>
      <point x="85" y="373"/>
      <point x="104" y="373" type="curve" smooth="yes"/>
      <point x="114" y="373" type="line"/>
      <point x="135" y="379"/>
      <point x="157" y="386"/>
      <point x="194" y="386" type="curve" smooth="yes"/>
      <point x="205" y="386"/>
      <point x="219" y="385"/>
      <point x="233" y="384" type="curve"/>
      <point x="184" y="384"/>
      <point x="88" y="327"/>
      <point x="88" y="199" type="curve" smooth="yes"/>
      <point x="88" y="65.4474"/>
      <point x="170.515" y="-4"/>
      <point x="262" y="-4" type="curve" smooth="yes"/>
      <point x="345.847" y="-4"/>
      <point x="413.773" y="45"/>
    </contour>
    <contour>
      <point x="379" y="671" type="curve" smooth="yes"/>
      <point x="384.629" y="725.04"/>
      <point x="421" y="754"/>
      <point x="453" y="787" type="curve"/>
      <point x="482" y="756"/>
      <point x="533" y="702"/>
      <point x="561" y="658" type="curve"/>
      <point x="546" y="616"/>
      <point x="497" y="591"/>
      <point x="450" y="591" type="curve" smooth="yes"/>
      <point x="414" y="591"/>
      <point x="374" y="623"/>
    </contour>
  </outline>
</glyph>
<glyph name="sinNna" format="1">
  <advance width="1173" height="1173"/>
  <unicode hex="0DAB"/>
  <outline>
    <contour>
      <point x="405" y="-6" type="curve" smooth="yes"/>
      <point x="257" y="-6"/>
      <point x="204" y="66"/>
      <point x="133" y="137" type="curve" smooth="yes"/>
      <point x="94" y="176"/>
      <point x="58" y="152"/>
      <point x="58" y="183" type="curve" smooth="yes"/>
      <point x="58" y="207"/>
      <point x="76" y="207"/>
      <point x="102" y="224" type="curve" smooth="yes"/>
      <point x="137" y="247"/>
      <point x="168" y="312"/>
      <point x="204" y="405" type="curve" smooth="yes"/>
      <point x="253" y="532"/>
      <point x="450" y="796"/>
      <point x="589" y="920" type="curve" smooth="yes"/>
      <point x="599.606" y="929.461"/>
      <point x="610" y="933"/>
      <point x="618" y="933" type="curve" smooth="yes"/>
      <point x="629" y="933"/>
      <point x="635" y="923"/>
      <point x="635" y="912" type="curve" smooth="yes"/>
      <point x="635" y="903"/>
      <point x="631" y="895"/>
      <point x="624" y="889" type="curve" smooth="yes"/>
      <point x="506" y="789"/>
      <point x="396" y="641"/>
      <point x="323" y="522" type="curve"/>
      <point x="350" y="535"/>
      <point x="384" y="545"/>
      <point x="424" y="545" type="curve" smooth="yes"/>
      <point x="507" y="545"/>
      <point x="582" y="507"/>
      <point x="628" y="442" type="curve"/>
      <point x="659" y="500"/>
      <point x="690" y="539"/>
      <point x="759" y="539" type="curve" smooth="yes"/>
      <point x="814" y="539"/>
      <point x="840" y="511"/>
      <point x="859" y="446" type="curve"/>
      <point x="879" y="504"/>
      <point x="919" y="538"/>
      <point x="958" y="538" type="curve" smooth="yes"/>
      <point x="1047" y="538"/>
      <point x="1113" y="464"/>
      <point x="1113" y="292" type="curve" smooth="yes"/>
      <point x="1113" y="116"/>
      <point x="1003" y="-5"/>
      <point x="851" y="-5" type="curve" smooth="yes"/>
      <point x="744" y="-5"/>
      <point x="680" y="56"/>
      <point x="676" y="76" type="curve" smooth="yes"/>
      <point x="672" y="95"/>
      <point x="682" y="105"/>
      <point x="700" y="104" type="curve" smooth="yes"/>
      <point x="717" y="103"/>
      <point x="758" y="43"/>
      <point x="851" y="43" type="curve" smooth="yes"/>
      <point x="953" y="43"/>
      <point x="1065" y="126"/>
      <point x="1065" y="298" type="curve" smooth="yes"/>
      <point x="1065" y="377"/>
      <point x="1042" y="490"/>
      <point x="960" y="490" type="curve" smooth="yes"/>
      <point x="916" y="490"/>
      <point x="888" y="433"/>
      <point x="888" y="376" type="curve" smooth="yes"/>
      <point x="888" y="367"/>
      <point x="889.104" y="356.955"/>
      <point x="890" y="348" type="curve" smooth="yes"/>
      <point x="892.6" y="322"/>
      <point x="876" y="313"/>
      <point x="865" y="313" type="curve" smooth="yes"/>
      <point x="810" y="313"/>
      <point x="851" y="492"/>
      <point x="755" y="492" type="curve" smooth="yes"/>
      <point x="725" y="492"/>
      <point x="668" y="454"/>
      <point x="668" y="399" type="curve" smooth="yes"/>
      <point x="668" y="383"/>
      <point x="669" y="364"/>
      <point x="673" y="341" type="curve"/>
      <point x="672" y="343" type="line"/>
      <point x="676" y="323"/>
      <point x="678" y="303"/>
      <point x="678" y="281" type="curve" smooth="yes"/>
      <point x="678" y="91"/>
      <point x="550" y="-6"/>
    </contour>
    <contour>
      <point x="186" y="153" type="curve" smooth="yes"/>
      <point x="239" y="91"/>
      <point x="288" y="43"/>
      <point x="405" y="43" type="curve" smooth="yes"/>
      <point x="523" y="43"/>
      <point x="630" y="126"/>
      <point x="630" y="281" type="curve" smooth="yes"/>
      <point x="630" y="395"/>
      <point x="541" y="496"/>
      <point x="424" y="496" type="curve" smooth="yes"/>
      <point x="327" y="496"/>
      <point x="256" y="437"/>
      <point x="256" y="345" type="curve" smooth="yes"/>
      <point x="256" y="286"/>
      <point x="292" y="230"/>
      <point x="362" y="230" type="curve" smooth="yes"/>
      <point x="415" y="230"/>
      <point x="436" y="260"/>
      <point x="436" y="294" type="curve" smooth="yes"/>
      <point x="436" y="305"/>
      <point x="430" y="316"/>
      <point x="425" y="317" type="curve"/>
      <point x="424" y="301"/>
      <point x="408" y="292"/>
      <point x="392" y="292" type="curve" smooth="yes"/>
      <point x="373" y="292"/>
      <point x="354" y="304"/>
      <point x="354" y="331" type="curve" smooth="yes"/>
      <point x="354" y="361"/>
      <point x="380" y="378"/>
      <point x="408" y="378" type="curve" smooth="yes"/>
      <point x="456" y="378"/>
      <point x="484" y="333"/>
      <point x="484" y="294" type="curve" smooth="yes"/>
      <point x="484" y="225"/>
      <point x="441" y="181"/>
      <point x="362" y="181" type="curve" smooth="yes"/>
      <point x="274" y="181"/>
      <point x="218" y="253"/>
      <point x="215" y="336" type="curve"/>
      <point x="211" y="329"/>
      <point x="209" y="322"/>
      <point x="207" y="315" type="curve" smooth="yes"/>
      <point x="195" y="268"/>
      <point x="170" y="204"/>
      <point x="140" y="193" type="curve"/>
      <point x="163" y="186"/>
      <point x="164" y="179"/>
    </contour>
  </outline>
</glyph>
<glyph name="sinNndda" format="1">
  <advance width="964" height="964"/>
  <unicode hex="0DAC"/>
  <outline>
    <contour>
      <point x="375" y="422" type="move" smooth="yes"/>
    </contour>
    <contour>
      <point x="214" y="398" type="curve" smooth="yes"/>
      <point x="214" y="386"/>
      <point x="222" y="375"/>
      <point x="237" y="375" type="curve" smooth="yes"/>
      <point x="241" y="375"/>
      <point x="245.118" y="376.611"/>
      <point x="249" y="378" type="curve" smooth="yes"/>
      <point x="268.304" y="384.909"/>
      <point x="286.804" y="397"/>
      <point x="323" y="397" type="curve" smooth="yes"/>
      <point x="343" y="397" type="line"/>
      <point x="274" y="377"/>
      <point x="204" y="320"/>
      <point x="204" y="209" type="curve" smooth="yes"/>
      <point x="204" y="70"/>
      <point x="291" y="-2"/>
      <point x="389" y="-2" type="curve" smooth="yes"/>
      <point x="466" y="-2"/>
      <point x="529" y="43"/>
      <point x="547" y="106" type="curve"/>
      <point x="564.218" y="41"/>
      <point x="636.128" y="-2"/>
      <point x="705" y="-2" type="curve" smooth="yes"/>
      <point x="839.377" y="-2"/>
      <point x="898.677" y="114.126"/>
      <point x="892" y="295" type="curve" smooth="yes"/>
      <point x="881" y="593"/>
      <point x="647.844" y="786"/>
      <point x="388" y="786" type="curve" smooth="yes"/>
      <point x="330" y="786"/>
      <point x="270.368" y="779.065"/>
      <point x="213" y="757" type="curve" smooth="yes"/>
      <point x="200" y="752"/>
      <point x="193" y="743"/>
      <point x="193" y="732" type="curve" smooth="yes"/>
      <point x="193" y="720"/>
      <point x="202" y="709"/>
      <point x="218" y="709" type="curve" smooth="yes"/>
      <point x="222" y="709"/>
      <point x="224.901" y="709.268"/>
      <point x="230" y="711" type="curve" smooth="yes"/>
      <point x="283" y="729"/>
      <point x="337" y="739"/>
      <point x="391" y="739" type="curve" smooth="yes"/>
      <point x="628.74" y="739"/>
      <point x="831.171" y="575.007"/>
      <point x="843" y="295" type="curve" smooth="yes"/>
      <point x="849.837" y="133.149"/>
      <point x="803.44" y="46"/>
      <point x="705" y="46" type="curve" smooth="yes"/>
      <point x="618.712" y="46"/>
      <point x="571" y="115"/>
      <point x="571" y="217" type="curve" smooth="yes"/>
      <point x="571" y="229"/>
      <point x="567" y="240"/>
      <point x="547" y="240" type="curve" smooth="yes"/>
      <point x="529" y="240"/>
      <point x="524" y="229"/>
      <point x="524" y="217" type="curve" smooth="yes"/>
      <point x="524" y="115"/>
      <point x="475" y="46"/>
      <point x="389" y="46" type="curve" smooth="yes"/>
      <point x="316" y="46"/>
      <point x="252" y="105"/>
      <point x="252" y="209" type="curve" smooth="yes"/>
      <point x="252" y="302"/>
      <point x="313" y="373"/>
      <point x="406" y="373" type="curve" smooth="yes"/>
      <point x="443" y="373"/>
      <point x="458" y="365"/>
      <point x="479" y="365" type="curve" smooth="yes"/>
      <point x="483" y="365"/>
      <point x="487" y="365"/>
      <point x="491" y="365" type="curve" smooth="yes"/>
      <point x="498" y="365"/>
      <point x="511" y="375"/>
      <point x="511" y="387" type="curve" smooth="yes"/>
      <point x="511" y="398"/>
      <point x="504.094" y="407.305"/>
      <point x="485" y="413" type="curve" smooth="yes"/>
      <point x="428" y="430"/>
      <point x="407" y="440"/>
      <point x="407" y="461" type="curve" smooth="yes"/>
      <point x="407" y="477"/>
      <point x="423" y="488"/>
      <point x="440" y="488" type="curve" smooth="yes"/>
      <point x="443" y="488"/>
      <point x="447.012" y="486.272"/>
      <point x="450" y="486" type="curve" smooth="yes"/>
      <point x="483" y="483"/>
      <point x="494" y="465"/>
      <point x="539" y="465" type="curve" smooth="yes"/>
      <point x="552" y="465"/>
      <point x="559" y="476"/>
      <point x="559" y="488" type="curve" smooth="yes"/>
      <point x="559" y="499"/>
      <point x="552" y="510"/>
      <point x="539" y="510" type="curve" smooth="yes"/>
      <point x="506" y="510"/>
      <point x="489" y="531"/>
      <point x="438" y="531" type="curve" smooth="yes"/>
      <point x="388" y="531"/>
      <point x="361" y="500"/>
      <point x="361" y="467" type="curve" smooth="yes"/>
      <point x="361" y="451"/>
      <point x="366" y="436"/>
      <point x="375" y="422" type="curve"/>
      <point x="332" y="439"/>
      <point x="214" y="447.692"/>
    </contour>
    <contour>
      <point x="438" y="531" type="line"/>
      <point x="410" y="532"/>
      <point x="336.864" y="534.66"/>
      <point x="277" y="522" type="curve" smooth="yes"/>
      <point x="147.578" y="494"/>
      <point x="80.9375" y="401.639"/>
      <point x="60" y="269" type="curve" smooth="yes"/>
      <point x="34" y="108"/>
      <point x="125" y="-2"/>
      <point x="184" y="-2" type="curve" smooth="yes"/>
      <point x="197" y="-2"/>
      <point x="209" y="4"/>
      <point x="209" y="17" type="curve" smooth="yes"/>
      <point x="209" y="27"/>
      <point x="201.316" y="32.1956"/>
      <point x="194" y="36" type="curve" smooth="yes"/>
      <point x="119" y="75"/>
      <point x="93.6427" y="162.027"/>
      <point x="108" y="269" type="curve" smooth="yes"/>
      <point x="121.23" y="370.476"/>
      <point x="175.613" y="451.004"/>
      <point x="278" y="474" type="curve" smooth="yes"/>
      <point x="333" y="486"/>
      <point x="404" y="491"/>
      <point x="445" y="491" type="curve"/>
    </contour>
  </outline>
</glyph>
<glyph name="sinTa" format="1">
  <advance width="896" height="896"/>
  <unicode hex="0DAD"/>
  <outline>
    <contour>
      <point x="119" y="190" type="curve"/>
      <point x="145" y="247"/>
      <point x="200" y="314"/>
      <point x="238" y="345" type="curve" smooth="yes"/>
      <point x="281" y="380"/>
      <point x="317" y="380"/>
      <point x="363" y="380" type="curve" smooth="yes"/>
      <point x="454" y="380"/>
      <point x="513" y="314"/>
      <point x="513" y="208" type="curve" smooth="yes"/>
      <point x="513" y="109"/>
      <point x="441" y="43"/>
      <point x="343" y="43" type="curve" smooth="yes"/>
      <point x="207" y="43"/>
      <point x="135" y="131"/>
    </contour>
    <contour>
      <point x="559" y="208" type="curve" smooth="yes"/>
      <point x="559" y="335"/>
      <point x="479" y="423"/>
      <point x="375" y="423" type="curve" smooth="yes"/>
      <point x="349" y="423"/>
      <point x="322" y="418"/>
      <point x="296" y="407" type="curve"/>
      <point x="360" y="462"/>
      <point x="449" y="487"/>
      <point x="517" y="487" type="curve" smooth="yes"/>
      <point x="714" y="487"/>
      <point x="792" y="347"/>
      <point x="792" y="226" type="curve" smooth="yes"/>
      <point x="792" y="128"/>
      <point x="732" y="41"/>
      <point x="640" y="41" type="curve" smooth="yes"/>
      <point x="609" y="41"/>
      <point x="578" y="49"/>
      <point x="555" y="62" type="curve" smooth="yes"/>
      <point x="546" y="67"/>
      <point x="533" y="68"/>
      <point x="524" y="55" type="curve" smooth="yes"/>
      <point x="516" y="43"/>
      <point x="521" y="33"/>
      <point x="527" y="28" type="curve" smooth="yes"/>
      <point x="564" y="1"/>
      <point x="598" y="-5"/>
      <point x="640" y="-5" type="curve" smooth="yes"/>
      <point x="763" y="-5"/>
      <point x="838" y="106"/>
      <point x="838" y="226" type="curve" smooth="yes"/>
      <point x="838" y="373"/>
      <point x="743" y="535"/>
      <point x="517" y="535" type="curve" smooth="yes"/>
      <point x="427" y="535"/>
      <point x="336" y="506"/>
      <point x="257" y="437" type="curve"/>
      <point x="255" y="507"/>
      <point x="210" y="535"/>
      <point x="150" y="535" type="curve" smooth="yes"/>
      <point x="95" y="535"/>
      <point x="54" y="488"/>
      <point x="54" y="431" type="curve" smooth="yes"/>
      <point x="54" y="412"/>
      <point x="60" y="397"/>
      <point x="68" y="387" type="curve" smooth="yes"/>
      <point x="79" y="373"/>
      <point x="97" y="370"/>
      <point x="107" y="376" type="curve" smooth="yes"/>
      <point x="119" y="383"/>
      <point x="124" y="397"/>
      <point x="113" y="407" type="curve" smooth="yes"/>
      <point x="105" y="415"/>
      <point x="98" y="422"/>
      <point x="98" y="440" type="curve" smooth="yes"/>
      <point x="98" y="464"/>
      <point x="114" y="490"/>
      <point x="150" y="492" type="curve" smooth="yes"/>
      <point x="207" y="495"/>
      <point x="220" y="457"/>
      <point x="220" y="427" type="curve" smooth="yes"/>
      <point x="220" y="406"/>
      <point x="202" y="386"/>
      <point x="165" y="345" type="curve" smooth="yes"/>
      <point x="123" y="299"/>
      <point x="82" y="240"/>
      <point x="62" y="187" type="curve"/>
      <point x="88" y="121"/>
      <point x="165" y="-5"/>
      <point x="343" y="-5" type="curve" smooth="yes"/>
      <point x="471" y="-5"/>
      <point x="559" y="84"/>
    </contour>
  </outline>
</glyph>
<glyph name="sinTha" format="1">
  <advance width="723" height="723"/>
  <unicode hex="0DAE"/>
  <outline>
    <contour>
      <point x="664" y="298" type="curve" smooth="yes"/>
      <point x="664" y="515"/>
      <point x="507" y="702"/>
      <point x="408" y="818" type="curve" smooth="yes"/>
      <point x="397" y="831"/>
      <point x="385" y="843"/>
      <point x="378" y="852" type="curve"/>
      <point x="364" y="869"/>
      <point x="347" y="873"/>
      <point x="334" y="861" type="curve" smooth="yes"/>
      <point x="326" y="854"/>
      <point x="323" y="838"/>
      <point x="329" y="831" type="curve" smooth="yes"/>
      <point x="334" y="824"/>
      <point x="338" y="821"/>
      <point x="341" y="817" type="curve"/>
      <point x="336" y="810"/>
      <point x="308" y="790"/>
      <point x="286" y="764" type="curve" smooth="yes"/>
      <point x="254" y="726"/>
      <point x="243" y="707"/>
      <point x="240" y="664" type="curve" smooth="yes"/>
      <point x="233" y="573"/>
      <point x="306" y="526"/>
      <point x="376" y="526" type="curve" smooth="yes"/>
      <point x="430" y="526"/>
      <point x="485" y="550"/>
      <point x="519" y="600" type="curve"/>
      <point x="556" y="549"/>
      <point x="613" y="448"/>
      <point x="613" y="298" type="curve" smooth="yes"/>
      <point x="613" y="161"/>
      <point x="523" y="41"/>
      <point x="359" y="41" type="curve" smooth="yes"/>
      <point x="219" y="41"/>
      <point x="110" y="130"/>
      <point x="110" y="251" type="curve" smooth="yes"/>
      <point x="110" y="364"/>
      <point x="177" y="432"/>
      <point x="267" y="432" type="curve" smooth="yes"/>
      <point x="317" y="432"/>
      <point x="332" y="416"/>
      <point x="346" y="416" type="curve" smooth="yes"/>
      <point x="355" y="416"/>
      <point x="361" y="427"/>
      <point x="361" y="436" type="curve" smooth="yes"/>
      <point x="361" y="459"/>
      <point x="325" y="479"/>
      <point x="267" y="479" type="curve" smooth="yes"/>
      <point x="144" y="479"/>
      <point x="58" y="401"/>
      <point x="58" y="251" type="curve" smooth="yes"/>
      <point x="58" y="133"/>
      <point x="155" y="-10"/>
      <point x="359" y="-10" type="curve" smooth="yes"/>
      <point x="554" y="-10"/>
      <point x="664" y="127"/>
    </contour>
    <contour>
      <point x="289" y="656" type="curve" smooth="yes"/>
      <point x="289" y="699"/>
      <point x="329" y="746"/>
      <point x="379" y="776" type="curve"/>
      <point x="407" y="744"/>
      <point x="458" y="688"/>
      <point x="485" y="643" type="curve"/>
      <point x="471" y="597"/>
      <point x="424" y="572"/>
      <point x="378" y="572" type="curve" smooth="yes"/>
      <point x="332" y="572"/>
      <point x="289" y="598"/>
    </contour>
  </outline>
</glyph>
<glyph name="sinDa" format="1">
  <advance width="603" height="603"/>
  <unicode hex="0DAF"/>
  <outline>
    <contour>
      <point x="510" y="-320" type="curve" smooth="yes"/>
      <point x="538.749" y="-337.25"/>
      <point x="565.02" y="-298.015"/>
      <point x="537" y="-277" type="curve" smooth="yes"/>
      <point x="505" y="-253"/>
      <point x="484" y="-236"/>
      <point x="480" y="-167" type="curve" smooth="yes"/>
      <point x="477" y="-118"/>
      <point x="499" y="-54"/>
      <point x="534" y="25" type="curve" smooth="yes"/>
      <point x="537" y="32"/>
      <point x="538" y="39"/>
      <point x="537" y="45" type="curve" smooth="yes"/>
      <point x="536" y="62"/>
      <point x="504" y="73"/>
      <point x="488" y="57" type="curve" smooth="yes"/>
      <point x="461" y="32"/>
      <point x="395" y="10"/>
      <point x="298" y="17" type="curve" smooth="yes"/>
      <point x="181" y="25"/>
      <point x="109" y="100"/>
      <point x="104" y="246" type="curve" smooth="yes"/>
      <point x="101" y="331"/>
      <point x="151" y="468"/>
      <point x="274" y="468" type="curve" smooth="yes"/>
      <point x="358" y="468"/>
      <point x="393" y="397"/>
      <point x="484" y="388" type="curve" smooth="yes"/>
      <point x="510.546" y="385.345"/>
      <point x="541.898" y="392.755"/>
      <point x="533" y="415" type="curve" smooth="yes"/>
      <point x="528" y="430"/>
      <point x="512" y="428"/>
      <point x="495" y="431" type="curve" smooth="yes"/>
      <point x="469.837" y="435.194"/>
      <point x="428.302" y="455.532"/>
      <point x="435" y="484" type="curve" smooth="yes"/>
      <point x="437" y="492"/>
      <point x="444" y="499"/>
      <point x="459" y="495" type="curve" smooth="yes"/>
      <point x="491" y="487"/>
      <point x="500" y="475"/>
      <point x="521" y="475" type="curve" smooth="yes"/>
      <point x="529" y="475"/>
      <point x="542" y="483"/>
      <point x="542" y="496" type="curve" smooth="yes"/>
      <point x="542" y="512"/>
      <point x="535" y="520"/>
      <point x="520" y="526" type="curve" smooth="yes"/>
      <point x="499" y="534"/>
      <point x="471" y="543"/>
      <point x="448" y="543" type="curve" smooth="yes"/>
      <point x="420" y="543"/>
      <point x="396" y="535"/>
      <point x="390" y="514" type="curve" smooth="yes"/>
      <point x="384" y="496"/>
      <point x="386" y="481"/>
      <point x="394" y="468" type="curve"/>
      <point x="383" y="477"/>
      <point x="323" y="513"/>
      <point x="275" y="513" type="curve" smooth="yes"/>
      <point x="121" y="513"/>
      <point x="51" y="376"/>
      <point x="54" y="253" type="curve" smooth="yes"/>
      <point x="58" y="76"/>
      <point x="134" y="-22"/>
      <point x="298" y="-34" type="curve" smooth="yes"/>
      <point x="365" y="-39"/>
      <point x="453" y="-17"/>
      <point x="473" y="0" type="curve"/>
      <point x="452" y="-59"/>
      <point x="429" y="-108"/>
      <point x="432" y="-170" type="curve" smooth="yes"/>
      <point x="436" y="-260"/>
      <point x="468" y="-295"/>
    </contour>
  </outline>
</glyph>
<glyph name="sinDha" format="1">
  <advance width="829" height="829"/>
  <unicode hex="0DB0"/>
  <outline>
    <contour>
      <point x="408" y="108" type="curve"/>
      <point x="425" y="43"/>
      <point x="497" y="0"/>
      <point x="567" y="0" type="curve" smooth="yes"/>
      <point x="689.667" y="0"/>
      <point x="751" y="116"/>
      <point x="751" y="297" type="curve" smooth="yes"/>
      <point x="751" y="593"/>
      <point x="508.711" y="788"/>
      <point x="252" y="788" type="curve" smooth="yes"/>
      <point x="194" y="788"/>
      <point x="135" y="779"/>
      <point x="78" y="759" type="curve" smooth="yes"/>
      <point x="63" y="754"/>
      <point x="58" y="745"/>
      <point x="58" y="734" type="curve" smooth="yes"/>
      <point x="58" y="722"/>
      <point x="67" y="711"/>
      <point x="82" y="711" type="curve" smooth="yes"/>
      <point x="86" y="711"/>
      <point x="89" y="712"/>
      <point x="93" y="713" type="curve" smooth="yes"/>
      <point x="146" y="731"/>
      <point x="201" y="741"/>
      <point x="254" y="741" type="curve" smooth="yes"/>
      <point x="486.615" y="741"/>
      <point x="702" y="564"/>
      <point x="702" y="297" type="curve" smooth="yes"/>
      <point x="702" y="135"/>
      <point x="654.205" y="48"/>
      <point x="567" y="48" type="curve" smooth="yes"/>
      <point x="481" y="48"/>
      <point x="432" y="117"/>
      <point x="432" y="219" type="curve" smooth="yes"/>
      <point x="432" y="231"/>
      <point x="426" y="242"/>
      <point x="408" y="242" type="curve" smooth="yes"/>
      <point x="388" y="242"/>
      <point x="385" y="231"/>
      <point x="385" y="219" type="curve" smooth="yes"/>
      <point x="385" y="117"/>
      <point x="333.838" y="48"/>
      <point x="243" y="48" type="curve" smooth="yes"/>
      <point x="170" y="48"/>
      <point x="105" y="114"/>
      <point x="105" y="230" type="curve" smooth="yes"/>
      <point x="105" y="333"/>
      <point x="162" y="396"/>
      <point x="239" y="396" type="curve" smooth="yes"/>
      <point x="292" y="396"/>
      <point x="309" y="380"/>
      <point x="322" y="380" type="curve" smooth="yes"/>
      <point x="333" y="380"/>
      <point x="338" y="393"/>
      <point x="338" y="401" type="curve" smooth="yes"/>
      <point x="338" y="425"/>
      <point x="301" y="444"/>
      <point x="239" y="444" type="curve" smooth="yes"/>
      <point x="136" y="444"/>
      <point x="58" y="370"/>
      <point x="58" y="230" type="curve" smooth="yes"/>
      <point x="58" y="80"/>
      <point x="145" y="0"/>
      <point x="243" y="0" type="curve" smooth="yes"/>
      <point x="322.906" y="0"/>
      <point x="387.245" y="45"/>
    </contour>
  </outline>
</glyph>
<glyph name="sinNa" format="1">
  <advance width="950" height="950"/>
  <unicode hex="0DB1"/>
  <outline>
    <contour>
      <point x="124" y="184" type="curve"/>
      <point x="130" y="183"/>
      <point x="134" y="183"/>
      <point x="141" y="183" type="curve" smooth="yes"/>
      <point x="167" y="183"/>
      <point x="203" y="214"/>
      <point x="224" y="238" type="curve" smooth="yes"/>
      <point x="269" y="289"/>
      <point x="307" y="330"/>
      <point x="376" y="330" type="curve" smooth="yes"/>
      <point x="426" y="330"/>
      <point x="489" y="300"/>
      <point x="500" y="210" type="curve" smooth="yes"/>
      <point x="510" y="129"/>
      <point x="468" y="38"/>
      <point x="328" y="38" type="curve" smooth="yes"/>
      <point x="239" y="38"/>
      <point x="154" y="101"/>
    </contour>
    <contour>
      <point x="539" y="100" type="curve" smooth="yes"/>
      <point x="565" y="158"/>
      <point x="559" y="241"/>
      <point x="543" y="277" type="curve" smooth="yes"/>
      <point x="507" y="357"/>
      <point x="447" y="379"/>
      <point x="384" y="379" type="curve" smooth="yes"/>
      <point x="372" y="379"/>
      <point x="362" y="377"/>
      <point x="350" y="374" type="curve"/>
      <point x="435" y="452"/>
      <point x="492" y="486"/>
      <point x="587" y="486" type="curve" smooth="yes"/>
      <point x="768" y="486"/>
      <point x="840" y="355"/>
      <point x="840" y="241" type="curve" smooth="yes"/>
      <point x="840" y="134"/>
      <point x="794" y="39"/>
      <point x="690" y="38" type="curve" smooth="yes"/>
      <point x="648" y="38"/>
      <point x="618" y="55"/>
      <point x="591" y="70" type="curve" smooth="yes"/>
      <point x="578" y="77"/>
      <point x="565" y="76"/>
      <point x="556" y="64" type="curve" smooth="yes"/>
      <point x="548" y="54"/>
      <point x="554" y="34"/>
      <point x="562" y="28" type="curve" smooth="yes"/>
      <point x="596" y="4"/>
      <point x="632" y="-8"/>
      <point x="690" y="-8" type="curve" smooth="yes"/>
      <point x="840" y="-8"/>
      <point x="890" y="110"/>
      <point x="890" y="241" type="curve" smooth="yes"/>
      <point x="890" y="380"/>
      <point x="794" y="533"/>
      <point x="587" y="533" type="curve" smooth="yes"/>
      <point x="454" y="533"/>
      <point x="396" y="481"/>
      <point x="319" y="408" type="curve"/>
      <point x="309" y="477"/>
      <point x="258" y="533"/>
      <point x="187" y="533" type="curve" smooth="yes"/>
      <point x="123" y="533"/>
      <point x="74" y="486"/>
      <point x="74" y="428" type="curve" smooth="yes"/>
      <point x="74" y="404"/>
      <point x="82" y="385"/>
      <point x="96" y="372" type="curve" smooth="yes"/>
      <point x="118" y="351"/>
      <point x="138" y="354"/>
      <point x="149" y="368" type="curve" smooth="yes"/>
      <point x="161" y="383"/>
      <point x="153" y="397"/>
      <point x="140" y="401" type="curve" smooth="yes"/>
      <point x="131" y="404"/>
      <point x="123" y="415"/>
      <point x="123" y="428" type="curve" smooth="yes"/>
      <point x="122" y="456"/>
      <point x="138" y="487"/>
      <point x="187" y="487" type="curve" smooth="yes"/>
      <point x="223" y="487"/>
      <point x="253" y="469"/>
      <point x="266" y="424" type="curve" smooth="yes"/>
      <point x="273" y="400"/>
      <point x="267" y="364"/>
      <point x="253" y="348" type="curve" smooth="yes"/>
      <point x="221" y="311"/>
      <point x="176" y="230"/>
      <point x="114" y="230" type="curve" smooth="yes"/>
      <point x="95" y="230"/>
      <point x="76" y="231"/>
      <point x="56" y="234" type="curve"/>
      <point x="95" y="107"/>
      <point x="187" y="-8"/>
      <point x="328" y="-8" type="curve" smooth="yes"/>
      <point x="415" y="-8"/>
      <point x="502" y="17"/>
    </contour>
  </outline>
</glyph>
